{"glyphs":{"0":{"ha":843,"x_min":0,"x_max":0,"o":"m 421 -21 b 81 464 218 -21 81 176 b 421 949 81 751 218 949 b 764 464 624 949 764 751 b 421 -21 764 176 624 -21 m 178 464 b 421 18 178 182 268 18 b 667 464 576 18 667 182 b 421 910 667 747 576 910 b 178 464 268 910 178 747 "},"1":{"ha":460,"x_min":0,"x_max":0,"o":"m 60 19 b 214 129 171 22 211 36 l 214 800 l 60 800 l 60 819 b 283 949 160 843 228 874 l 301 949 l 301 129 b 428 19 301 36 344 22 l 428 0 l 60 0 l 60 19 "},"2":{"ha":772,"x_min":0,"x_max":0,"o":"m 61 19 l 125 85 b 561 703 383 350 561 519 b 367 910 561 819 488 910 b 183 722 268 910 183 846 b 197 632 183 696 188 665 l 92 632 b 89 681 90 649 89 665 b 369 949 89 865 228 949 b 658 688 542 949 658 838 b 156 85 658 472 421 297 l 481 85 b 667 226 604 85 632 103 l 686 226 l 647 0 l 61 0 "},"3":{"ha":765,"x_min":0,"x_max":0,"o":"m 372 -19 b 75 224 201 -19 75 79 b 76 254 75 233 75 243 l 174 254 b 169 208 171 239 169 224 b 374 19 169 103 249 19 b 596 247 504 19 596 107 b 351 478 596 374 518 478 b 272 471 326 478 300 475 l 274 492 l 578 843 l 335 843 b 111 675 204 843 144 807 l 92 675 l 132 943 b 338 928 199 929 268 928 l 693 928 l 693 908 l 346 510 b 428 518 375 515 403 518 b 693 264 610 518 693 390 b 372 -19 693 100 565 -19 "},"4":{"ha":785,"x_min":0,"x_max":0,"o":"m 301 19 b 472 140 404 22 472 40 l 472 254 l 26 254 l 26 274 l 513 931 l 560 931 l 560 321 l 732 321 l 732 254 l 560 254 l 560 140 b 688 19 560 40 601 22 l 688 0 l 301 0 l 301 19 m 472 321 l 472 811 l 110 321 "},"5":{"ha":721,"x_min":0,"x_max":0,"o":"m 182 928 l 640 928 l 640 843 l 204 843 l 143 557 b 300 574 199 568 251 574 b 664 265 526 574 664 456 b 353 -19 664 94 538 -19 b 61 224 176 -19 61 71 b 63 254 61 233 61 243 l 156 254 b 153 210 153 239 153 224 b 350 21 153 94 228 21 b 567 254 479 21 567 111 b 231 511 567 401 454 511 b 110 501 193 511 153 508 l 94 515 "},"6":{"ha":813,"x_min":0,"x_max":0,"o":"m 417 -21 b 74 460 197 -21 74 157 b 449 949 74 865 314 949 b 725 696 567 949 715 886 l 621 696 b 435 910 629 850 528 910 b 171 468 319 910 171 810 b 172 400 171 446 171 424 b 429 579 207 518 299 579 b 725 288 610 579 725 456 b 417 -21 725 106 596 -21 m 193 289 b 415 18 193 138 282 18 b 629 275 540 18 629 125 b 406 524 629 429 538 524 b 193 289 275 524 193 435 "},"7":{"ha":671,"x_min":0,"x_max":0,"o":"m 653 908 b 338 78 522 767 338 474 b 340 0 338 53 339 26 l 238 0 b 235 76 236 26 235 51 b 569 843 235 408 393 667 l 279 843 b 57 675 150 843 90 807 l 38 675 l 76 943 b 283 928 143 929 213 928 l 653 928 l 653 908 "},"8":{"ha":779,"x_min":0,"x_max":0,"o":"m 388 -21 b 74 218 208 -21 74 75 b 281 468 74 321 142 410 b 94 714 179 514 94 578 b 389 949 94 851 221 949 b 685 722 558 949 685 853 b 486 494 685 628 625 551 b 704 226 601 447 704 383 b 388 -21 704 81 576 -21 m 154 233 b 390 18 154 99 254 18 b 619 200 524 18 619 96 b 318 453 619 358 461 394 b 154 233 188 386 154 304 m 179 740 b 446 510 179 599 314 560 b 604 708 586 576 604 650 b 389 913 604 835 515 913 b 179 740 265 913 179 836 "},"9":{"ha":813,"x_min":0,"x_max":0,"o":"m 396 949 b 739 468 615 949 739 771 b 364 -21 739 63 499 -21 b 88 232 246 -21 97 42 l 192 232 b 378 18 183 78 285 18 b 642 460 493 18 642 118 b 640 528 642 482 642 504 b 383 349 606 410 514 349 b 88 640 203 349 88 472 b 396 949 88 822 217 949 m 183 653 b 407 404 183 499 275 404 b 619 639 538 404 619 493 b 397 910 619 790 531 910 b 183 653 272 910 183 803 "},"\r":{"ha":833,"x_min":0,"x_max":0,"o":""}," ":{"ha":231,"x_min":0,"x_max":0,"o":""},"A":{"ha":979,"x_min":0,"x_max":0,"o":"m 824 146 b 975 19 860 56 896 24 l 975 0 l 649 0 l 649 19 b 746 85 713 21 746 42 b 732 140 746 100 740 118 l 660 322 l 276 322 l 206 143 b 190 82 196 119 190 99 b 299 19 190 40 225 21 l 299 0 l 4 0 l 4 19 b 165 144 94 22 129 56 l 485 949 l 504 949 l 824 146 m 644 361 l 468 808 l 292 361 "},"Á":{"ha":979,"x_min":0,"x_max":0,"o":"m 824 146 b 975 19 860 56 896 24 l 975 0 l 649 0 l 649 19 b 746 85 713 21 746 42 b 732 140 746 100 740 118 l 660 322 l 276 322 l 206 143 b 190 82 196 119 190 99 b 299 19 190 40 225 21 l 299 0 l 4 0 l 4 19 b 165 144 94 22 129 56 l 485 949 l 504 949 l 824 146 m 644 361 l 468 808 l 292 361 m 617 1204 l 747 1204 l 490 1032 l 471 1032 "},"Ă":{"ha":979,"x_min":0,"x_max":0,"o":"m 824 146 b 975 19 860 56 896 24 l 975 0 l 649 0 l 649 19 b 746 85 713 21 746 42 b 732 140 746 100 740 118 l 660 322 l 276 322 l 206 143 b 190 82 196 119 190 99 b 299 19 190 40 225 21 l 299 0 l 4 0 l 4 19 b 165 144 94 22 129 56 l 485 949 l 504 949 l 824 146 m 644 361 l 468 808 l 292 361 m 350 1206 b 500 1097 357 1133 414 1097 b 651 1206 586 1097 644 1133 l 667 1206 b 500 1038 665 1101 610 1038 b 333 1206 390 1038 335 1101 "},"Â":{"ha":979,"x_min":0,"x_max":0,"o":"m 824 146 b 975 19 860 56 896 24 l 975 0 l 649 0 l 649 19 b 746 85 713 21 746 42 b 732 140 746 100 740 118 l 660 322 l 276 322 l 206 143 b 190 82 196 119 190 99 b 299 19 190 40 225 21 l 299 0 l 4 0 l 4 19 b 165 144 94 22 129 56 l 485 949 l 504 949 l 824 146 m 644 361 l 468 808 l 292 361 m 456 1204 l 550 1204 l 699 1047 l 679 1047 l 501 1144 l 322 1047 l 303 1047 "},"Ä":{"ha":979,"x_min":0,"x_max":0,"o":"m 824 146 b 975 19 860 56 896 24 l 975 0 l 649 0 l 649 19 b 746 85 713 21 746 42 b 732 140 746 100 740 118 l 660 322 l 276 322 l 206 143 b 190 82 196 119 190 99 b 299 19 190 40 225 21 l 299 0 l 4 0 l 4 19 b 165 144 94 22 129 56 l 485 949 l 504 949 l 824 146 m 644 361 l 468 808 l 292 361 m 326 1126 b 396 1193 326 1164 357 1193 b 461 1126 432 1193 461 1164 b 396 1061 461 1090 432 1061 b 326 1126 357 1061 326 1090 m 543 1126 b 613 1193 543 1164 574 1193 b 678 1126 649 1193 678 1164 b 613 1061 678 1090 649 1061 b 543 1126 574 1061 543 1090 "},"À":{"ha":979,"x_min":0,"x_max":0,"o":"m 824 146 b 975 19 860 56 896 24 l 975 0 l 649 0 l 649 19 b 746 85 713 21 746 42 b 732 140 746 100 740 118 l 660 322 l 276 322 l 206 143 b 190 82 196 119 190 99 b 299 19 190 40 225 21 l 299 0 l 4 0 l 4 19 b 165 144 94 22 129 56 l 485 949 l 504 949 l 824 146 m 399 1203 l 544 1031 l 525 1031 l 268 1203 m 644 361 l 468 808 l 292 361 "},"Ā":{"ha":979,"x_min":0,"x_max":0,"o":"m 824 146 b 975 19 860 56 896 24 l 975 0 l 649 0 l 649 19 b 746 85 713 21 746 42 b 732 140 746 100 740 118 l 660 322 l 276 322 l 206 143 b 190 82 196 119 190 99 b 299 19 190 40 225 21 l 299 0 l 4 0 l 4 19 b 165 144 94 22 129 56 l 485 949 l 504 949 l 824 146 m 644 361 l 468 808 l 292 361 m 324 1121 l 674 1121 l 674 1088 l 324 1088 "},"Ą":{"ha":979,"x_min":0,"x_max":0,"o":"m 824 146 b 975 19 860 56 896 24 l 975 0 l 808 0 b 690 -174 736 -50 690 -111 b 767 -251 690 -221 724 -251 b 868 -189 799 -251 839 -228 l 879 -194 b 750 -294 854 -254 801 -294 b 626 -189 674 -294 626 -251 b 776 0 626 -115 683 -47 l 649 0 l 649 19 b 746 85 713 21 746 42 b 732 140 746 100 740 118 l 660 322 l 276 322 l 206 143 b 190 82 196 119 190 99 b 299 19 190 40 225 21 l 299 0 l 4 0 l 4 19 b 165 144 94 22 129 56 l 485 949 l 504 949 l 824 146 m 644 361 l 468 808 l 292 361 "},"Å":{"ha":979,"x_min":0,"x_max":0,"o":"m 824 146 b 975 19 860 56 896 24 l 975 0 l 649 0 l 649 19 b 746 85 713 21 746 42 b 732 140 746 100 740 118 l 660 322 l 276 322 l 206 143 b 190 82 196 119 190 99 b 299 19 190 40 225 21 l 299 0 l 4 0 l 4 19 b 165 144 94 22 129 56 l 485 949 l 504 949 l 824 146 m 644 361 l 468 808 l 292 361 m 374 1153 b 499 1269 374 1219 426 1269 b 624 1153 571 1269 624 1219 b 499 1035 624 1085 571 1035 b 374 1153 426 1035 374 1085 m 407 1153 b 499 1063 407 1100 447 1063 b 590 1153 551 1063 590 1100 b 499 1243 590 1206 551 1243 b 407 1153 447 1243 407 1206 "},"Ǻ":{"ha":979,"x_min":0,"x_max":0,"o":"m 824 146 b 975 19 860 56 896 24 l 975 0 l 649 0 l 649 19 b 746 85 713 21 746 42 b 732 140 746 100 740 118 l 660 322 l 276 322 l 206 143 b 190 82 196 119 190 99 b 299 19 190 40 225 21 l 299 0 l 4 0 l 4 19 b 165 144 94 22 129 56 l 485 949 l 504 949 l 824 146 m 644 361 l 468 808 l 292 361 m 374 1153 b 489 1269 374 1217 422 1265 l 631 1436 l 761 1436 l 511 1269 b 624 1153 578 1264 624 1215 b 499 1035 624 1085 571 1035 b 374 1153 426 1035 374 1085 m 407 1153 b 499 1063 407 1100 447 1063 b 590 1153 551 1063 590 1100 b 499 1243 590 1206 551 1243 b 407 1153 447 1243 407 1206 "},"Ã":{"ha":979,"x_min":0,"x_max":0,"o":"m 824 146 b 975 19 860 56 896 24 l 975 0 l 649 0 l 649 19 b 746 85 713 21 746 42 b 732 140 746 100 740 118 l 660 322 l 276 322 l 206 143 b 190 82 196 119 190 99 b 299 19 190 40 225 21 l 299 0 l 4 0 l 4 19 b 165 144 94 22 129 56 l 485 949 l 504 949 l 824 146 m 644 361 l 468 808 l 292 361 m 322 1131 b 404 1233 322 1197 347 1233 b 607 1156 472 1233 546 1156 b 663 1228 638 1156 657 1169 l 676 1229 l 676 1201 b 596 1099 676 1135 651 1099 b 393 1175 529 1099 451 1175 b 336 1103 361 1175 342 1163 l 322 1103 "},"Æ":{"ha":1393,"x_min":0,"x_max":0,"o":"m 4 19 b 169 144 74 31 119 65 l 569 793 b 606 872 593 829 606 854 b 514 908 606 897 576 906 l 514 928 l 1108 928 b 1235 938 1157 928 1196 932 l 1274 693 l 1254 693 b 1044 889 1221 824 1174 889 l 749 889 l 749 496 l 994 496 b 1115 626 1089 496 1113 536 l 1135 626 l 1135 328 l 1115 328 b 994 457 1113 415 1089 457 l 749 457 l 749 132 b 828 39 749 64 772 39 l 1063 39 b 1272 235 1192 39 1239 104 l 1292 235 l 1253 -10 b 1126 0 1214 -4 1175 0 l 536 0 l 536 19 b 663 132 618 22 663 39 l 663 322 l 324 322 l 213 143 b 182 72 196 115 182 92 b 296 19 182 44 211 26 l 296 0 l 4 0 l 4 19 m 663 361 l 663 871 l 347 361 "},"Ǽ":{"ha":1393,"x_min":0,"x_max":0,"o":"m 4 19 b 169 144 74 31 119 65 l 569 793 b 606 872 593 829 606 854 b 514 908 606 897 576 906 l 514 928 l 1108 928 b 1235 938 1157 928 1196 932 l 1274 693 l 1254 693 b 1044 889 1221 824 1174 889 l 749 889 l 749 496 l 994 496 b 1115 626 1089 496 1113 536 l 1135 626 l 1135 328 l 1115 328 b 994 457 1113 415 1089 457 l 749 457 l 749 132 b 828 39 749 64 772 39 l 1063 39 b 1272 235 1192 39 1239 104 l 1292 235 l 1253 -10 b 1126 0 1214 -4 1175 0 l 536 0 l 536 19 b 663 132 618 22 663 39 l 663 322 l 324 322 l 213 143 b 182 72 196 115 182 92 b 296 19 182 44 211 26 l 296 0 l 4 0 l 4 19 m 663 361 l 663 871 l 347 361 m 1010 1204 l 1140 1204 l 883 1032 l 864 1032 "},"B":{"ha":890,"x_min":0,"x_max":0,"o":"m 60 19 b 186 129 143 22 186 36 l 186 800 b 60 908 186 890 143 906 l 60 928 l 429 928 b 754 710 633 928 754 846 b 514 485 754 588 663 501 b 817 249 704 475 817 388 b 492 0 817 94 696 0 l 60 0 l 60 19 m 274 128 b 401 39 274 69 306 39 l 478 39 b 719 249 628 39 719 118 b 443 463 719 382 614 463 l 274 463 l 274 128 m 438 501 b 656 710 575 501 656 579 b 408 889 656 821 564 889 l 274 889 l 274 501 "},"C":{"ha":924,"x_min":0,"x_max":0,"o":"m 776 690 b 506 910 758 828 654 910 b 172 471 300 910 172 747 b 533 53 172 226 326 53 b 846 282 678 53 796 135 l 864 278 b 503 -21 817 83 669 -21 b 74 467 246 -21 74 181 b 503 949 75 756 260 949 b 804 867 618 949 726 921 l 796 690 l 776 690 "},"Ć":{"ha":924,"x_min":0,"x_max":0,"o":"m 776 690 b 506 910 758 828 654 910 b 172 471 300 910 172 747 b 533 53 172 226 326 53 b 846 282 678 53 796 135 l 864 278 b 503 -21 817 83 669 -21 b 74 467 246 -21 74 181 b 503 949 75 756 260 949 b 804 867 618 949 726 921 l 796 690 l 776 690 m 631 1204 l 761 1204 l 504 1032 l 485 1032 "},"Č":{"ha":924,"x_min":0,"x_max":0,"o":"m 776 690 b 506 910 758 828 654 910 b 172 471 300 910 172 747 b 533 53 172 226 326 53 b 846 282 678 53 796 135 l 864 278 b 503 -21 817 83 669 -21 b 74 467 246 -21 74 181 b 503 949 75 756 260 949 b 804 867 618 949 726 921 l 796 690 l 776 690 m 336 1204 l 515 1107 l 693 1204 l 713 1204 l 564 1047 l 469 1047 l 317 1204 "},"Ç":{"ha":924,"x_min":0,"x_max":0,"o":"m 776 690 b 506 910 758 828 654 910 b 172 471 300 910 172 747 b 533 53 172 226 326 53 b 846 282 678 53 796 135 l 864 278 b 529 -19 819 93 685 -10 l 507 -83 b 629 -193 582 -99 629 -133 b 513 -294 629 -254 582 -294 b 401 -251 472 -294 436 -282 l 410 -240 b 485 -262 436 -256 461 -262 b 557 -203 525 -262 557 -242 b 464 -132 557 -168 532 -146 l 504 -21 l 503 -21 b 74 467 246 -21 74 181 b 503 949 75 756 260 949 b 804 867 618 949 726 921 l 796 690 l 776 690 "},"Ĉ":{"ha":924,"x_min":0,"x_max":0,"o":"m 776 690 b 506 910 758 828 654 910 b 172 471 300 910 172 747 b 533 53 172 226 326 53 b 846 282 678 53 796 135 l 864 278 b 503 -21 817 83 669 -21 b 74 467 246 -21 74 181 b 503 949 75 756 260 949 b 804 867 618 949 726 921 l 796 690 l 776 690 m 471 1204 l 565 1204 l 714 1047 l 694 1047 l 517 1144 l 338 1047 l 318 1047 "},"Ċ":{"ha":924,"x_min":0,"x_max":0,"o":"m 776 690 b 506 910 758 828 654 910 b 172 471 300 910 172 747 b 533 53 172 226 326 53 b 846 282 678 53 796 135 l 864 278 b 503 -21 817 83 669 -21 b 74 467 246 -21 74 181 b 503 949 75 756 260 949 b 804 867 618 949 726 921 l 796 690 l 776 690 m 447 1150 b 517 1217 447 1188 478 1217 b 581 1150 553 1217 581 1188 b 517 1085 581 1114 553 1085 b 447 1150 478 1085 447 1114 "},"D":{"ha":999,"x_min":0,"x_max":0,"o":"m 60 19 b 186 129 143 22 186 36 l 186 800 b 60 908 186 890 143 906 l 60 928 l 442 928 b 925 464 731 928 925 742 b 463 0 925 186 740 0 l 60 0 l 60 19 m 274 128 b 394 39 274 60 300 39 l 463 39 b 826 464 681 39 826 210 b 418 889 826 718 664 889 l 274 889 l 274 128 "},"Ð":{"ha":999,"x_min":0,"x_max":0,"o":"m 60 19 b 186 129 143 22 186 36 l 186 447 l 31 447 l 31 481 l 186 481 l 186 800 b 60 908 186 890 143 906 l 60 928 l 442 928 b 925 464 731 928 925 742 b 463 0 925 186 740 0 l 60 0 l 60 19 m 274 128 b 394 39 274 60 300 39 l 463 39 b 826 464 681 39 826 210 b 418 889 826 718 664 889 l 274 889 l 274 481 l 429 481 l 429 447 l 274 447 l 274 128 "},"Ď":{"ha":999,"x_min":0,"x_max":0,"o":"m 60 19 b 186 129 143 22 186 36 l 186 800 b 60 908 186 890 143 906 l 60 928 l 442 928 b 925 464 731 928 925 742 b 463 0 925 186 740 0 l 60 0 l 60 19 m 247 1204 l 426 1107 l 604 1204 l 624 1204 l 475 1047 l 381 1047 l 228 1204 m 274 128 b 394 39 274 60 300 39 l 463 39 b 826 464 681 39 826 210 b 418 889 826 718 664 889 l 274 889 l 274 128 "},"Đ":{"ha":999,"x_min":0,"x_max":0,"o":"m 60 19 b 186 129 143 22 186 36 l 186 447 l 31 447 l 31 481 l 186 481 l 186 800 b 60 908 186 890 143 906 l 60 928 l 442 928 b 925 464 731 928 925 742 b 463 0 925 186 740 0 l 60 0 l 60 19 m 274 128 b 394 39 274 60 300 39 l 463 39 b 826 464 681 39 826 210 b 418 889 826 718 664 889 l 274 889 l 274 481 l 429 481 l 429 447 l 274 447 l 274 128 "},"E":{"ha":918,"x_min":0,"x_max":0,"o":"m 815 235 l 776 -10 b 650 0 738 -4 699 0 l 60 0 l 60 19 b 186 132 142 22 186 39 l 186 797 b 60 908 186 888 142 906 l 60 928 l 632 928 b 760 938 682 928 721 932 l 799 693 l 779 693 b 568 889 746 824 699 889 l 274 889 l 274 496 l 513 496 b 640 626 611 496 636 536 l 660 626 l 660 328 l 640 328 b 513 457 636 415 611 457 l 274 457 l 274 132 b 351 39 274 64 296 39 l 586 39 b 796 235 715 39 763 104 "},"É":{"ha":918,"x_min":0,"x_max":0,"o":"m 815 235 l 776 -10 b 650 0 738 -4 699 0 l 60 0 l 60 19 b 186 132 142 22 186 39 l 186 797 b 60 908 186 888 142 906 l 60 928 l 632 928 b 760 938 682 928 721 932 l 799 693 l 779 693 b 568 889 746 824 699 889 l 274 889 l 274 496 l 513 496 b 640 626 611 496 636 536 l 660 626 l 660 328 l 640 328 b 513 457 636 415 611 457 l 274 457 l 274 132 b 351 39 274 64 296 39 l 586 39 b 796 235 715 39 763 104 m 579 1204 l 710 1204 l 453 1032 l 433 1032 "},"Ĕ":{"ha":918,"x_min":0,"x_max":0,"o":"m 815 235 l 776 -10 b 650 0 738 -4 699 0 l 60 0 l 60 19 b 186 132 142 22 186 39 l 186 797 b 60 908 186 888 142 906 l 60 928 l 632 928 b 760 938 682 928 721 932 l 799 693 l 779 693 b 568 889 746 824 699 889 l 274 889 l 274 496 l 513 496 b 640 626 611 496 636 536 l 660 626 l 660 328 l 640 328 b 513 457 636 415 611 457 l 274 457 l 274 132 b 351 39 274 64 296 39 l 586 39 b 796 235 715 39 763 104 m 313 1206 b 463 1097 319 1133 376 1097 b 614 1206 549 1097 607 1133 l 629 1206 b 463 1038 628 1101 572 1038 b 296 1206 353 1038 297 1101 "},"Ě":{"ha":918,"x_min":0,"x_max":0,"o":"m 815 235 l 776 -10 b 650 0 738 -4 699 0 l 60 0 l 60 19 b 186 132 142 22 186 39 l 186 797 b 60 908 186 888 142 906 l 60 928 l 632 928 b 760 938 682 928 721 932 l 799 693 l 779 693 b 568 889 746 824 699 889 l 274 889 l 274 496 l 513 496 b 640 626 611 496 636 536 l 660 626 l 660 328 l 640 328 b 513 457 636 415 611 457 l 274 457 l 274 132 b 351 39 274 64 296 39 l 586 39 b 796 235 715 39 763 104 m 283 1204 l 463 1107 l 640 1204 l 660 1204 l 511 1047 l 417 1047 l 264 1204 "},"Ê":{"ha":918,"x_min":0,"x_max":0,"o":"m 815 235 l 776 -10 b 650 0 738 -4 699 0 l 60 0 l 60 19 b 186 132 142 22 186 39 l 186 797 b 60 908 186 888 142 906 l 60 928 l 632 928 b 760 938 682 928 721 932 l 799 693 l 779 693 b 568 889 746 824 699 889 l 274 889 l 274 496 l 513 496 b 640 626 611 496 636 536 l 660 626 l 660 328 l 640 328 b 513 457 636 415 611 457 l 274 457 l 274 132 b 351 39 274 64 296 39 l 586 39 b 796 235 715 39 763 104 m 418 1204 l 513 1204 l 661 1047 l 642 1047 l 464 1144 l 285 1047 l 265 1047 "},"Ë":{"ha":918,"x_min":0,"x_max":0,"o":"m 815 235 l 776 -10 b 650 0 738 -4 699 0 l 60 0 l 60 19 b 186 132 142 22 186 39 l 186 797 b 60 908 186 888 142 906 l 60 928 l 632 928 b 760 938 682 928 721 932 l 799 693 l 779 693 b 568 889 746 824 699 889 l 274 889 l 274 496 l 513 496 b 640 626 611 496 636 536 l 660 626 l 660 328 l 640 328 b 513 457 636 415 611 457 l 274 457 l 274 132 b 351 39 274 64 296 39 l 586 39 b 796 235 715 39 763 104 m 289 1126 b 358 1193 289 1164 319 1193 b 424 1126 394 1193 424 1164 b 358 1061 424 1090 394 1061 b 289 1126 319 1061 289 1090 m 506 1126 b 575 1193 506 1164 536 1193 b 640 1126 611 1193 640 1164 b 575 1061 640 1090 611 1061 b 506 1126 536 1061 506 1090 "},"Ė":{"ha":918,"x_min":0,"x_max":0,"o":"m 815 235 l 776 -10 b 650 0 738 -4 699 0 l 60 0 l 60 19 b 186 132 142 22 186 39 l 186 797 b 60 908 186 888 142 906 l 60 928 l 632 928 b 760 938 682 928 721 932 l 799 693 l 779 693 b 568 889 746 824 699 889 l 274 889 l 274 496 l 513 496 b 640 626 611 496 636 536 l 660 626 l 660 328 l 640 328 b 513 457 636 415 611 457 l 274 457 l 274 132 b 351 39 274 64 296 39 l 586 39 b 796 235 715 39 763 104 m 396 1150 b 465 1217 396 1188 426 1217 b 529 1150 501 1217 529 1188 b 465 1085 529 1114 501 1085 b 396 1150 426 1085 396 1114 "},"È":{"ha":918,"x_min":0,"x_max":0,"o":"m 815 235 l 776 -10 b 650 0 738 -4 699 0 l 60 0 l 60 19 b 186 132 142 22 186 39 l 186 797 b 60 908 186 888 142 906 l 60 928 l 632 928 b 760 938 682 928 721 932 l 799 693 l 779 693 b 568 889 746 824 699 889 l 274 889 l 274 496 l 513 496 b 640 626 611 496 636 536 l 660 626 l 660 328 l 640 328 b 513 457 636 415 611 457 l 274 457 l 274 132 b 351 39 274 64 296 39 l 586 39 b 796 235 715 39 763 104 m 363 1203 l 508 1031 l 489 1031 l 232 1203 "},"Ē":{"ha":918,"x_min":0,"x_max":0,"o":"m 815 235 l 776 -10 b 650 0 738 -4 699 0 l 60 0 l 60 19 b 186 132 142 22 186 39 l 186 797 b 60 908 186 888 142 906 l 60 928 l 632 928 b 760 938 682 928 721 932 l 799 693 l 779 693 b 568 889 746 824 699 889 l 274 889 l 274 496 l 513 496 b 640 626 611 496 636 536 l 660 626 l 660 328 l 640 328 b 513 457 636 415 611 457 l 274 457 l 274 132 b 351 39 274 64 296 39 l 586 39 b 796 235 715 39 763 104 m 288 1121 l 638 1121 l 638 1088 l 288 1088 "},"Ę":{"ha":918,"x_min":0,"x_max":0,"o":"m 815 235 l 776 -10 b 650 0 738 -4 699 0 l 593 0 b 475 -174 521 -50 475 -111 b 551 -251 475 -221 508 -251 b 653 -189 583 -251 624 -228 l 664 -194 b 535 -294 639 -254 586 -294 b 411 -189 458 -294 411 -251 b 561 0 411 -115 468 -47 l 60 0 l 60 19 b 186 132 142 22 186 39 l 186 797 b 60 908 186 888 142 906 l 60 928 l 632 928 b 760 938 682 928 721 932 l 799 693 l 779 693 b 568 889 746 824 699 889 l 274 889 l 274 496 l 513 496 b 640 626 611 496 636 536 l 660 626 l 660 328 l 640 328 b 513 457 636 415 611 457 l 274 457 l 274 132 b 351 39 274 64 296 39 l 586 39 b 796 235 715 39 763 104 "},"F":{"ha":879,"x_min":0,"x_max":0,"o":"m 797 693 l 778 693 b 567 889 744 824 697 889 l 274 889 l 274 493 l 513 493 b 640 625 611 493 636 535 l 660 625 l 660 328 l 640 328 b 513 458 636 415 611 458 l 274 458 l 274 131 b 442 19 274 36 317 22 l 442 0 l 60 0 l 60 19 b 186 129 143 22 186 36 l 186 800 b 60 908 186 890 143 906 l 60 928 l 631 928 b 758 938 681 928 719 932 "},"G":{"ha":990,"x_min":0,"x_max":0,"o":"m 526 -19 b 74 461 247 -19 74 178 b 532 949 75 749 272 949 b 839 867 647 949 763 918 l 832 690 l 813 690 b 535 910 794 826 686 910 b 172 467 314 910 172 743 b 536 19 172 189 315 19 b 776 103 632 19 721 44 l 776 335 b 643 447 776 413 744 444 l 643 467 l 965 467 l 965 447 b 865 335 901 444 865 407 l 865 138 b 526 -19 806 54 685 -19 "},"Ğ":{"ha":990,"x_min":0,"x_max":0,"o":"m 526 -19 b 74 461 247 -19 74 178 b 532 949 75 749 272 949 b 839 867 647 949 763 918 l 832 690 l 813 690 b 535 910 794 826 686 910 b 172 467 314 910 172 743 b 536 19 172 189 315 19 b 776 103 632 19 721 44 l 776 335 b 643 447 776 413 744 444 l 643 467 l 965 467 l 965 447 b 865 335 901 444 865 407 l 865 138 b 526 -19 806 54 685 -19 m 383 1206 b 533 1097 390 1133 447 1097 b 685 1206 619 1097 678 1133 l 700 1206 b 533 1038 699 1101 643 1038 b 367 1206 424 1038 368 1101 "},"Ĝ":{"ha":990,"x_min":0,"x_max":0,"o":"m 526 -19 b 74 461 247 -19 74 178 b 532 949 75 749 272 949 b 839 867 647 949 763 918 l 832 690 l 813 690 b 535 910 794 826 686 910 b 172 467 314 910 172 743 b 536 19 172 189 315 19 b 776 103 632 19 721 44 l 776 335 b 643 447 776 413 744 444 l 643 467 l 965 467 l 965 447 b 865 335 901 444 865 407 l 865 138 b 526 -19 806 54 685 -19 m 489 1204 l 583 1204 l 732 1047 l 713 1047 l 535 1144 l 356 1047 l 336 1047 "},"Ģ":{"ha":990,"x_min":0,"x_max":0,"o":"m 526 -19 b 74 461 247 -19 74 178 b 532 949 75 749 272 949 b 839 867 647 949 763 918 l 832 690 l 813 690 b 535 910 794 826 686 910 b 172 467 314 910 172 743 b 536 19 172 189 315 19 b 776 103 632 19 721 44 l 776 335 b 643 447 776 413 744 444 l 643 467 l 965 467 l 965 447 b 865 335 901 444 865 407 l 865 138 b 526 -19 806 54 685 -19 m 461 -178 b 525 -114 461 -139 488 -114 b 593 -206 571 -114 593 -150 b 469 -347 593 -279 542 -337 l 469 -329 b 551 -233 514 -321 547 -290 b 522 -240 542 -237 531 -240 b 461 -178 488 -240 461 -211 "},"Ġ":{"ha":990,"x_min":0,"x_max":0,"o":"m 526 -19 b 74 461 247 -19 74 178 b 532 949 75 749 272 949 b 839 867 647 949 763 918 l 832 690 l 813 690 b 535 910 794 826 686 910 b 172 467 314 910 172 743 b 536 19 172 189 315 19 b 776 103 632 19 721 44 l 776 335 b 643 447 776 413 744 444 l 643 467 l 965 467 l 965 447 b 865 335 901 444 865 407 l 865 138 b 526 -19 806 54 685 -19 m 465 1150 b 535 1217 465 1188 496 1217 b 599 1150 571 1217 599 1188 b 535 1085 599 1114 571 1085 b 465 1150 496 1085 465 1114 "},"H":{"ha":1067,"x_min":0,"x_max":0,"o":"m 667 19 b 793 132 750 22 793 38 l 793 457 l 274 457 l 274 132 b 400 19 274 38 317 22 l 400 0 l 60 0 l 60 19 b 186 132 143 22 186 38 l 186 797 b 60 908 186 889 143 906 l 60 928 l 400 928 l 400 908 b 274 797 317 906 274 889 l 274 496 l 793 496 l 793 797 b 667 908 793 889 750 906 l 667 928 l 1007 928 l 1007 908 b 881 797 924 906 881 889 l 881 132 b 1007 19 881 38 924 22 l 1007 0 l 667 0 l 667 19 "},"Ħ":{"ha":1067,"x_min":0,"x_max":0,"o":"m 667 19 b 793 132 750 22 793 38 l 793 457 l 274 457 l 274 132 b 400 19 274 38 317 22 l 400 0 l 60 0 l 60 19 b 186 132 143 22 186 38 l 186 678 l 118 678 l 118 711 l 186 711 l 186 797 b 60 908 186 889 143 906 l 60 928 l 400 928 l 400 908 b 274 797 317 906 274 889 l 274 711 l 793 711 l 793 797 b 667 908 793 889 750 906 l 667 928 l 1007 928 l 1007 908 b 881 797 924 906 881 889 l 881 711 l 971 711 l 971 678 l 881 678 l 881 132 b 1007 19 881 38 924 22 l 1007 0 l 667 0 l 667 19 m 793 496 l 793 678 l 274 678 l 274 496 "},"Ĥ":{"ha":1067,"x_min":0,"x_max":0,"o":"m 667 19 b 793 132 750 22 793 38 l 793 457 l 274 457 l 274 132 b 400 19 274 38 317 22 l 400 0 l 60 0 l 60 19 b 186 132 143 22 186 38 l 186 797 b 60 908 186 889 143 906 l 60 928 l 400 928 l 400 908 b 274 797 317 906 274 889 l 274 496 l 793 496 l 793 797 b 667 908 793 889 750 906 l 667 928 l 1007 928 l 1007 908 b 881 797 924 906 881 889 l 881 132 b 1007 19 881 38 924 22 l 1007 0 l 667 0 l 667 19 m 501 1204 l 596 1204 l 744 1047 l 725 1047 l 547 1144 l 368 1047 l 349 1047 "},"I":{"ha":474,"x_min":0,"x_max":0,"o":"m 67 19 b 193 132 150 22 193 38 l 193 797 b 67 908 193 889 150 906 l 67 928 l 407 928 l 407 908 b 281 797 324 906 281 889 l 281 132 b 407 19 281 38 324 22 l 407 0 l 67 0 l 67 19 "},"Ĳ":{"ha":1174,"x_min":0,"x_max":0,"o":"m 67 19 b 193 132 150 22 193 38 l 193 797 b 67 908 193 889 150 906 l 67 928 l 407 928 l 407 908 b 281 797 324 906 281 889 l 281 132 b 407 19 281 38 324 22 l 407 0 l 67 0 l 67 19 m 603 236 b 597 179 599 215 597 197 b 756 18 597 71 664 18 b 917 228 853 18 917 81 l 917 799 b 789 908 917 885 875 906 l 789 928 l 1128 928 l 1128 908 b 1004 799 1046 906 1004 885 l 1004 256 b 754 -21 1004 68 907 -21 b 507 236 597 -21 497 79 "},"Í":{"ha":474,"x_min":0,"x_max":0,"o":"m 67 19 b 193 132 150 22 193 38 l 193 797 b 67 908 193 889 150 906 l 67 928 l 407 928 l 407 908 b 281 797 324 906 281 889 l 281 132 b 407 19 281 38 324 22 l 407 0 l 67 0 l 67 19 m 356 1204 l 486 1204 l 229 1032 l 210 1032 "},"Ĭ":{"ha":474,"x_min":0,"x_max":0,"o":"m 67 19 b 193 132 150 22 193 38 l 193 797 b 67 908 193 889 150 906 l 67 928 l 407 928 l 407 908 b 281 797 324 906 281 889 l 281 132 b 407 19 281 38 324 22 l 407 0 l 67 0 l 67 19 m 89 1206 b 239 1097 96 1133 153 1097 b 390 1206 325 1097 383 1133 l 406 1206 b 239 1038 404 1101 349 1038 b 72 1206 129 1038 74 1101 "},"Î":{"ha":474,"x_min":0,"x_max":0,"o":"m 67 19 b 193 132 150 22 193 38 l 193 797 b 67 908 193 889 150 906 l 67 928 l 407 928 l 407 908 b 281 797 324 906 281 889 l 281 132 b 407 19 281 38 324 22 l 407 0 l 67 0 l 67 19 m 194 1204 l 289 1204 l 438 1047 l 418 1047 l 240 1144 l 61 1047 l 42 1047 "},"Ï":{"ha":474,"x_min":0,"x_max":0,"o":"m 67 19 b 193 132 150 22 193 38 l 193 797 b 67 908 193 889 150 906 l 67 928 l 407 928 l 407 908 b 281 797 324 906 281 889 l 281 132 b 407 19 281 38 324 22 l 407 0 l 67 0 l 67 19 m 65 1126 b 135 1193 65 1164 96 1193 b 200 1126 171 1193 200 1164 b 135 1061 200 1090 171 1061 b 65 1126 96 1061 65 1090 m 282 1126 b 351 1193 282 1164 313 1193 b 417 1126 388 1193 417 1164 b 351 1061 417 1090 388 1061 b 282 1126 313 1061 282 1090 "},"İ":{"ha":474,"x_min":0,"x_max":0,"o":"m 67 19 b 193 132 150 22 193 38 l 193 797 b 67 908 193 889 150 906 l 67 928 l 407 928 l 407 908 b 281 797 324 906 281 889 l 281 132 b 407 19 281 38 324 22 l 407 0 l 67 0 l 67 19 m 171 1150 b 240 1217 171 1188 201 1217 b 304 1150 276 1217 304 1188 b 240 1085 304 1114 276 1085 b 171 1150 201 1085 171 1114 "},"Ì":{"ha":474,"x_min":0,"x_max":0,"o":"m 67 19 b 193 132 150 22 193 38 l 193 797 b 67 908 193 889 150 906 l 67 928 l 407 928 l 407 908 b 281 797 324 906 281 889 l 281 132 b 407 19 281 38 324 22 l 407 0 l 67 0 l 67 19 m 138 1203 l 283 1031 l 264 1031 l 7 1203 "},"Ī":{"ha":474,"x_min":0,"x_max":0,"o":"m 67 19 b 193 132 150 22 193 38 l 193 797 b 67 908 193 889 150 906 l 67 928 l 407 928 l 407 908 b 281 797 324 906 281 889 l 281 132 b 407 19 281 38 324 22 l 407 0 l 67 0 l 67 19 m 63 1121 l 413 1121 l 413 1088 l 63 1088 "},"Į":{"ha":474,"x_min":0,"x_max":0,"o":"m 67 19 b 193 132 150 22 193 38 l 193 797 b 67 908 193 889 150 906 l 67 928 l 407 928 l 407 908 b 281 797 324 906 281 889 l 281 132 b 407 19 281 38 324 22 l 407 0 l 318 0 b 200 -174 246 -50 200 -111 b 276 -251 200 -221 233 -251 b 378 -189 308 -251 349 -228 l 389 -194 b 260 -294 364 -254 311 -294 b 136 -189 183 -294 136 -251 b 286 0 136 -115 193 -47 l 67 0 l 67 19 "},"Ĩ":{"ha":474,"x_min":0,"x_max":0,"o":"m 67 19 b 193 132 150 22 193 38 l 193 797 b 67 908 193 889 150 906 l 67 928 l 407 928 l 407 908 b 281 797 324 906 281 889 l 281 132 b 407 19 281 38 324 22 l 407 0 l 67 0 l 67 19 m 61 1131 b 143 1233 61 1197 86 1233 b 346 1156 211 1233 285 1156 b 401 1228 376 1156 396 1169 l 415 1229 l 415 1201 b 335 1099 415 1135 390 1099 b 132 1175 268 1099 190 1175 b 75 1103 100 1175 81 1163 l 61 1103 "},"J":{"ha":700,"x_min":0,"x_max":0,"o":"m 654 908 b 531 799 572 906 531 885 l 531 256 b 281 -21 531 68 433 -21 b 33 236 124 -21 24 79 l 129 236 b 124 179 125 215 124 197 b 282 18 124 71 190 18 b 443 228 379 18 443 81 l 443 799 b 315 908 443 885 401 906 l 315 928 l 654 928 l 654 908 "},"Ĵ":{"ha":700,"x_min":0,"x_max":0,"o":"m 654 908 b 531 799 572 906 531 885 l 531 256 b 281 -21 531 68 433 -21 b 33 236 124 -21 24 79 l 129 236 b 124 179 125 215 124 197 b 282 18 124 71 190 18 b 443 228 379 18 443 81 l 443 799 b 315 908 443 885 401 906 l 315 928 l 654 928 l 654 908 m 443 1204 l 538 1204 l 686 1047 l 667 1047 l 489 1144 l 310 1047 l 290 1047 "},"K":{"ha":964,"x_min":0,"x_max":0,"o":"m 761 111 b 944 19 811 64 885 24 l 944 0 l 726 0 b 638 117 719 29 693 63 l 274 458 l 274 132 b 400 19 274 38 317 22 l 400 0 l 60 0 l 60 19 b 186 132 143 22 186 38 l 186 797 b 60 908 186 889 143 906 l 60 928 l 400 928 l 400 908 b 274 797 317 906 274 889 l 274 474 l 665 828 b 700 878 689 849 700 865 b 611 908 700 897 671 907 l 611 928 l 896 928 l 896 908 b 718 825 831 906 779 881 l 357 497 l 761 111 "},"Ķ":{"ha":964,"x_min":0,"x_max":0,"o":"m 761 111 b 944 19 811 64 885 24 l 944 0 l 726 0 b 638 117 719 29 693 63 l 274 458 l 274 132 b 400 19 274 38 317 22 l 400 0 l 60 0 l 60 19 b 186 132 143 22 186 38 l 186 797 b 60 908 186 889 143 906 l 60 928 l 400 928 l 400 908 b 274 797 317 906 274 889 l 274 474 l 665 828 b 700 878 689 849 700 865 b 611 908 700 897 671 907 l 611 928 l 896 928 l 896 908 b 718 825 831 906 779 881 l 357 497 l 761 111 m 451 -178 b 515 -114 451 -139 478 -114 b 583 -206 561 -114 583 -150 b 460 -347 583 -279 532 -337 l 460 -329 b 542 -233 504 -321 538 -290 b 513 -240 532 -237 521 -240 b 451 -178 478 -240 451 -211 "},"L":{"ha":847,"x_min":0,"x_max":0,"o":"m 801 235 l 761 -10 b 635 0 722 -4 683 0 l 60 0 l 60 19 b 186 129 146 22 186 38 l 186 800 b 60 908 186 889 146 906 l 60 928 l 400 928 l 400 908 b 274 800 315 906 274 889 l 274 129 b 350 39 274 63 296 39 l 571 39 b 782 235 701 39 749 104 "},"Ĺ":{"ha":847,"x_min":0,"x_max":0,"o":"m 801 235 l 761 -10 b 635 0 722 -4 683 0 l 60 0 l 60 19 b 186 129 146 22 186 38 l 186 800 b 60 908 186 889 146 906 l 60 928 l 400 928 l 400 908 b 274 800 315 906 274 889 l 274 129 b 350 39 274 63 296 39 l 571 39 b 782 235 701 39 749 104 m 346 1204 l 476 1204 l 219 1032 l 200 1032 "},"Ľ":{"ha":847,"x_min":0,"x_max":0,"o":"m 801 235 l 761 -10 b 635 0 722 -4 683 0 l 60 0 l 60 19 b 186 129 146 22 186 38 l 186 800 b 60 908 186 889 146 906 l 60 928 l 400 928 l 400 908 b 274 800 315 906 274 889 l 274 129 b 350 39 274 63 296 39 l 571 39 b 782 235 701 39 749 104 m 644 928 l 726 928 l 636 681 l 621 681 "},"Ļ":{"ha":847,"x_min":0,"x_max":0,"o":"m 801 235 l 761 -10 b 635 0 722 -4 683 0 l 60 0 l 60 19 b 186 129 146 22 186 38 l 186 800 b 60 908 186 889 146 906 l 60 928 l 400 928 l 400 908 b 274 800 315 906 274 889 l 274 129 b 350 39 274 63 296 39 l 571 39 b 782 235 701 39 749 104 m 401 -178 b 465 -114 401 -139 428 -114 b 533 -206 511 -114 533 -150 b 410 -347 533 -279 482 -337 l 410 -329 b 492 -233 454 -321 488 -290 b 463 -240 482 -237 471 -240 b 401 -178 428 -240 401 -211 "},"Ŀ":{"ha":847,"x_min":0,"x_max":0,"o":"m 801 235 l 761 -10 b 635 0 722 -4 683 0 l 60 0 l 60 19 b 186 129 146 22 186 38 l 186 800 b 60 908 186 889 146 906 l 60 928 l 400 928 l 400 908 b 274 800 315 906 274 889 l 274 129 b 350 39 274 63 296 39 l 571 39 b 782 235 701 39 749 104 m 457 463 b 528 533 457 504 486 533 b 599 463 569 533 599 504 b 528 392 599 422 569 392 b 457 463 486 392 457 422 "},"Ł":{"ha":847,"x_min":0,"x_max":0,"o":"m 801 235 l 761 -10 b 635 0 722 -4 683 0 l 60 0 l 60 19 b 186 129 146 22 186 38 l 186 438 l 68 392 l 68 425 l 186 469 l 186 800 b 60 908 186 889 146 906 l 60 928 l 400 928 l 400 908 b 274 800 315 906 274 889 l 274 500 l 539 601 l 539 569 l 274 468 l 274 129 b 350 39 274 63 296 39 l 571 39 b 782 235 701 39 749 104 "},"M":{"ha":1269,"x_min":0,"x_max":0,"o":"m 1210 908 b 1085 807 1125 907 1085 883 l 1085 117 b 1210 19 1085 43 1122 26 l 1210 0 l 874 0 l 874 19 b 997 117 957 26 997 44 l 997 799 l 613 -21 l 593 -21 l 224 799 l 224 117 b 347 19 224 42 263 26 l 347 0 l 60 0 l 60 19 b 185 117 146 26 185 44 l 185 807 b 60 908 185 883 144 906 l 60 928 l 260 928 l 629 107 l 1015 928 l 1210 928 l 1210 908 "},"N":{"ha":1004,"x_min":0,"x_max":0,"o":"m 951 928 l 951 908 b 847 811 894 906 847 899 l 847 -21 l 828 -21 l 231 799 l 231 119 b 376 21 231 25 292 24 l 376 0 l 86 0 l 86 19 b 192 119 144 22 192 25 l 192 817 b 60 908 192 886 132 904 l 60 928 l 244 928 l 808 153 l 808 811 b 660 908 808 899 746 906 l 660 928 "},"Ń":{"ha":1004,"x_min":0,"x_max":0,"o":"m 951 928 l 951 908 b 847 811 894 906 847 899 l 847 -21 l 828 -21 l 231 799 l 231 119 b 376 21 231 25 292 24 l 376 0 l 86 0 l 86 19 b 192 119 144 22 192 25 l 192 817 b 60 908 192 886 132 904 l 60 928 l 244 928 l 808 153 l 808 811 b 660 908 808 899 746 906 l 660 928 m 639 1204 l 769 1204 l 513 1032 l 493 1032 "},"Ň":{"ha":1004,"x_min":0,"x_max":0,"o":"m 951 928 l 951 908 b 847 811 894 906 847 899 l 847 -21 l 828 -21 l 231 799 l 231 119 b 376 21 231 25 292 24 l 376 0 l 86 0 l 86 19 b 192 119 144 22 192 25 l 192 817 b 60 908 192 886 132 904 l 60 928 l 244 928 l 808 153 l 808 811 b 660 908 808 899 746 906 l 660 928 m 344 1204 l 524 1107 l 701 1204 l 721 1204 l 572 1047 l 478 1047 l 325 1204 "},"Ņ":{"ha":1004,"x_min":0,"x_max":0,"o":"m 951 928 l 951 908 b 847 811 894 906 847 899 l 847 -21 l 828 -21 l 231 799 l 231 119 b 376 21 231 25 292 24 l 376 0 l 86 0 l 86 19 b 192 119 144 22 192 25 l 192 817 b 60 908 192 886 132 904 l 60 928 l 244 928 l 808 153 l 808 811 b 660 908 808 899 746 906 l 660 928 m 443 -178 b 507 -114 443 -139 469 -114 b 575 -206 553 -114 575 -150 b 451 -347 575 -279 524 -337 l 451 -329 b 533 -233 496 -321 529 -290 b 504 -240 524 -237 513 -240 b 443 -178 469 -240 443 -211 "},"Ñ":{"ha":1004,"x_min":0,"x_max":0,"o":"m 951 928 l 951 908 b 847 811 894 906 847 899 l 847 -21 l 828 -21 l 231 799 l 231 119 b 376 21 231 25 292 24 l 376 0 l 86 0 l 86 19 b 192 119 144 22 192 25 l 192 817 b 60 908 192 886 132 904 l 60 928 l 244 928 l 808 153 l 808 811 b 660 908 808 899 746 906 l 660 928 m 346 1131 b 428 1233 346 1197 371 1233 b 631 1156 496 1233 569 1156 b 686 1228 661 1156 681 1169 l 700 1229 l 700 1201 b 619 1099 700 1135 675 1099 b 417 1175 553 1099 475 1175 b 360 1103 385 1175 365 1163 l 346 1103 "},"Ŋ":{"ha":1004,"x_min":0,"x_max":0,"o":"m 951 928 l 951 908 b 847 811 894 906 847 899 l 847 -81 b 665 -294 847 -210 788 -294 b 478 -46 532 -294 467 -194 l 568 -46 b 561 -114 564 -71 561 -94 b 681 -256 561 -207 606 -256 b 813 -86 775 -256 813 -179 b 717 131 813 17 776 51 l 231 799 l 231 119 b 376 21 231 25 292 24 l 376 0 l 86 0 l 86 19 b 192 119 144 22 192 25 l 192 817 b 60 908 192 886 132 904 l 60 928 l 244 928 l 814 144 l 814 811 b 667 908 814 899 751 906 l 667 928 "},"O":{"ha":1050,"x_min":0,"x_max":0,"o":"m 525 -21 b 74 464 257 -21 74 176 b 525 949 74 751 257 949 b 976 464 794 949 976 751 b 525 -21 976 176 794 -21 m 171 464 b 525 18 171 194 313 18 b 879 464 738 18 879 194 b 525 910 879 733 738 910 b 171 464 313 910 171 733 "},"Ó":{"ha":1050,"x_min":0,"x_max":0,"o":"m 525 -21 b 74 464 257 -21 74 176 b 525 949 74 751 257 949 b 976 464 794 949 976 751 b 525 -21 976 176 794 -21 m 171 464 b 525 18 171 194 313 18 b 879 464 738 18 879 194 b 525 910 879 733 738 910 b 171 464 313 910 171 733 m 643 1204 l 774 1204 l 517 1032 l 497 1032 "},"Ŏ":{"ha":1050,"x_min":0,"x_max":0,"o":"m 525 -21 b 74 464 257 -21 74 176 b 525 949 74 751 257 949 b 976 464 794 949 976 751 b 525 -21 976 176 794 -21 m 171 464 b 525 18 171 194 313 18 b 879 464 738 18 879 194 b 525 910 879 733 738 910 b 171 464 313 910 171 733 m 376 1206 b 526 1097 383 1133 440 1097 b 678 1206 613 1097 671 1133 l 693 1206 b 526 1038 692 1101 636 1038 b 360 1206 417 1038 361 1101 "},"Ô":{"ha":1050,"x_min":0,"x_max":0,"o":"m 525 -21 b 74 464 257 -21 74 176 b 525 949 74 751 257 949 b 976 464 794 949 976 751 b 525 -21 976 176 794 -21 m 171 464 b 525 18 171 194 313 18 b 879 464 738 18 879 194 b 525 910 879 733 738 910 b 171 464 313 910 171 733 m 482 1204 l 576 1204 l 725 1047 l 706 1047 l 528 1144 l 349 1047 l 329 1047 "},"Ö":{"ha":1050,"x_min":0,"x_max":0,"o":"m 525 -21 b 74 464 257 -21 74 176 b 525 949 74 751 257 949 b 976 464 794 949 976 751 b 525 -21 976 176 794 -21 m 171 464 b 525 18 171 194 313 18 b 879 464 738 18 879 194 b 525 910 879 733 738 910 b 171 464 313 910 171 733 m 353 1126 b 422 1193 353 1164 383 1193 b 488 1126 458 1193 488 1164 b 422 1061 488 1090 458 1061 b 353 1126 383 1061 353 1090 m 569 1126 b 639 1193 569 1164 600 1193 b 704 1126 675 1193 704 1164 b 639 1061 704 1090 675 1061 b 569 1126 600 1061 569 1090 "},"Ò":{"ha":1050,"x_min":0,"x_max":0,"o":"m 525 -21 b 74 464 257 -21 74 176 b 525 949 74 751 257 949 b 976 464 794 949 976 751 b 525 -21 976 176 794 -21 m 171 464 b 525 18 171 194 313 18 b 879 464 738 18 879 194 b 525 910 879 733 738 910 b 171 464 313 910 171 733 m 425 1203 l 571 1031 l 551 1031 l 294 1203 "},"Ő":{"ha":1050,"x_min":0,"x_max":0,"o":"m 525 -21 b 74 464 257 -21 74 176 b 525 949 74 751 257 949 b 976 464 794 949 976 751 b 525 -21 976 176 794 -21 m 171 464 b 525 18 171 194 313 18 b 879 464 738 18 879 194 b 525 910 879 733 738 910 b 171 464 313 910 171 733 m 508 1218 l 604 1218 l 425 1032 l 407 1032 m 668 1217 l 768 1218 l 588 1032 l 567 1032 "},"Ō":{"ha":1050,"x_min":0,"x_max":0,"o":"m 525 -21 b 74 464 257 -21 74 176 b 525 949 74 751 257 949 b 976 464 794 949 976 751 b 525 -21 976 176 794 -21 m 171 464 b 525 18 171 194 313 18 b 879 464 738 18 879 194 b 525 910 879 733 738 910 b 171 464 313 910 171 733 m 350 1121 l 700 1121 l 700 1088 l 350 1088 "},"Ø":{"ha":1007,"x_min":0,"x_max":0,"o":"m 525 -21 b 340 15 457 -21 396 -8 l 299 -78 l 271 -65 l 313 28 b 74 464 165 103 74 261 b 525 949 74 751 257 949 b 711 913 593 949 656 936 l 753 1006 l 782 994 l 739 900 b 976 464 886 824 976 667 b 525 -21 976 176 794 -21 m 171 464 b 335 76 171 286 232 150 l 690 867 b 525 910 643 894 586 910 b 171 464 313 910 171 733 m 361 60 b 525 18 408 33 464 18 b 879 464 738 18 879 194 b 717 850 879 640 818 776 l 361 60 "},"Ǿ":{"ha":1007,"x_min":0,"x_max":0,"o":"m 525 -21 b 340 15 457 -21 396 -8 l 299 -78 l 271 -65 l 313 28 b 74 464 165 103 74 261 b 525 949 74 751 257 949 b 711 913 593 949 656 936 l 753 1006 l 782 994 l 739 900 b 976 464 886 824 976 667 b 525 -21 976 176 794 -21 m 171 464 b 335 76 171 286 232 150 l 690 867 b 525 910 643 894 586 910 b 171 464 313 910 171 733 m 361 60 b 525 18 408 33 464 18 b 879 464 738 18 879 194 b 717 850 879 640 818 776 l 361 60 m 643 1204 l 774 1204 l 517 1032 l 497 1032 "},"Õ":{"ha":1050,"x_min":0,"x_max":0,"o":"m 525 -21 b 74 464 257 -21 74 176 b 525 949 74 751 257 949 b 976 464 794 949 976 751 b 525 -21 976 176 794 -21 m 171 464 b 525 18 171 194 313 18 b 879 464 738 18 879 194 b 525 910 879 733 738 910 b 171 464 313 910 171 733 m 349 1131 b 431 1233 349 1197 374 1233 b 633 1156 499 1233 572 1156 b 689 1228 664 1156 683 1169 l 703 1229 l 703 1201 b 622 1099 703 1135 678 1099 b 419 1175 556 1099 478 1175 b 363 1103 388 1175 368 1163 l 349 1103 "},"Œ":{"ha":1456,"x_min":0,"x_max":0,"o":"m 557 0 b 74 464 268 0 74 186 b 535 928 74 742 258 928 l 1171 928 b 1297 938 1219 928 1258 932 l 1336 693 l 1317 693 b 1107 889 1283 824 1236 889 l 811 889 l 811 496 l 1051 496 b 1178 625 1150 496 1175 536 l 1197 625 l 1197 328 l 1178 328 b 1051 457 1175 415 1150 457 l 811 457 l 811 132 b 890 39 811 64 835 39 l 1125 39 b 1335 235 1254 39 1301 104 l 1354 235 l 1315 -10 b 1189 0 1276 -4 1238 0 l 557 0 m 171 464 b 581 39 171 210 335 39 l 725 39 l 725 800 b 603 889 725 868 699 889 l 535 889 b 171 464 317 889 171 718 "},"P":{"ha":842,"x_min":0,"x_max":0,"o":"m 60 19 b 186 132 143 22 186 38 l 186 797 b 60 908 186 889 143 906 l 60 928 l 431 928 b 782 671 638 928 782 851 b 431 410 782 490 638 410 l 274 410 l 274 132 b 428 19 274 38 317 22 l 428 0 l 60 0 l 60 19 m 422 449 b 685 671 596 449 685 540 b 422 889 685 799 594 889 l 274 889 l 274 449 "},"Þ":{"ha":856,"x_min":0,"x_max":0,"o":"m 431 728 b 782 471 638 728 782 651 b 431 210 782 290 638 210 l 274 210 l 274 132 b 428 19 274 38 317 22 l 428 0 l 60 0 l 60 19 b 186 132 143 22 186 38 l 186 797 b 60 908 186 889 143 906 l 60 928 l 400 928 l 400 908 b 274 797 317 906 274 889 l 274 728 l 431 728 m 422 249 b 685 471 596 249 685 340 b 422 689 685 599 594 689 l 274 689 l 274 249 "},"Q":{"ha":1050,"x_min":0,"x_max":0,"o":"m 519 -21 b 790 -219 571 -139 688 -207 l 764 -300 b 492 -19 639 -289 529 -187 b 74 464 242 -4 74 189 b 525 949 74 751 257 949 b 976 464 794 949 976 751 b 525 -21 976 176 794 -21 m 171 464 b 525 18 171 194 313 18 b 879 464 738 18 879 194 b 525 910 879 733 738 910 b 171 464 313 910 171 733 "},"R":{"ha":929,"x_min":0,"x_max":0,"o":"m 672 0 b 589 114 669 17 646 50 l 274 461 l 274 129 b 400 19 274 36 317 22 l 400 0 l 60 0 l 60 19 b 186 129 143 22 186 36 l 186 800 b 60 908 186 890 143 906 l 60 928 l 428 928 b 782 685 636 928 782 865 b 428 439 782 506 636 436 l 406 439 l 674 143 b 897 19 749 61 811 26 l 897 0 l 672 0 m 424 478 b 685 685 596 478 685 557 b 424 889 685 811 596 889 l 274 889 l 274 478 "},"Ŕ":{"ha":929,"x_min":0,"x_max":0,"o":"m 672 0 b 589 114 669 17 646 50 l 274 461 l 274 129 b 400 19 274 36 317 22 l 400 0 l 60 0 l 60 19 b 186 129 143 22 186 36 l 186 800 b 60 908 186 890 143 906 l 60 928 l 428 928 b 782 685 636 928 782 865 b 428 439 782 506 636 436 l 406 439 l 674 143 b 897 19 749 61 811 26 l 897 0 l 672 0 m 424 478 b 685 685 596 478 685 557 b 424 889 685 811 596 889 l 274 889 l 274 478 m 540 1204 l 671 1204 l 414 1032 l 394 1032 "},"Ř":{"ha":929,"x_min":0,"x_max":0,"o":"m 672 0 b 589 114 669 17 646 50 l 274 461 l 274 129 b 400 19 274 36 317 22 l 400 0 l 60 0 l 60 19 b 186 129 143 22 186 36 l 186 800 b 60 908 186 890 143 906 l 60 928 l 428 928 b 782 685 636 928 782 865 b 428 439 782 506 636 436 l 406 439 l 674 143 b 897 19 749 61 811 26 l 897 0 l 672 0 m 246 1204 l 425 1107 l 603 1204 l 622 1204 l 474 1047 l 379 1047 l 226 1204 m 424 478 b 685 685 596 478 685 557 b 424 889 685 811 596 889 l 274 889 l 274 478 "},"Ŗ":{"ha":929,"x_min":0,"x_max":0,"o":"m 672 0 b 589 114 669 17 646 50 l 274 461 l 274 129 b 400 19 274 36 317 22 l 400 0 l 60 0 l 60 19 b 186 129 143 22 186 36 l 186 800 b 60 908 186 890 143 906 l 60 928 l 428 928 b 782 685 636 928 782 865 b 428 439 782 506 636 436 l 406 439 l 674 143 b 897 19 749 61 811 26 l 897 0 l 672 0 m 424 478 b 685 685 596 478 685 557 b 424 889 685 811 596 889 l 274 889 l 274 478 m 406 -178 b 469 -114 406 -139 432 -114 b 538 -206 515 -114 538 -150 b 414 -347 538 -279 486 -337 l 414 -329 b 496 -233 458 -321 492 -290 b 467 -240 486 -237 475 -240 b 406 -178 432 -240 406 -211 "},"S":{"ha":824,"x_min":0,"x_max":0,"o":"m 143 281 b 424 19 181 117 286 19 b 638 203 551 19 638 94 b 119 711 638 496 119 383 b 389 947 119 850 224 947 b 672 868 489 947 601 918 l 665 690 l 646 690 b 388 908 622 833 531 908 b 193 743 288 908 193 842 b 722 240 193 482 722 574 b 422 -19 722 86 600 -19 b 115 86 299 -19 185 19 l 124 281 l 143 281 "},"Ś":{"ha":824,"x_min":0,"x_max":0,"o":"m 143 281 b 424 19 181 117 286 19 b 638 203 551 19 638 94 b 119 711 638 496 119 383 b 389 947 119 850 224 947 b 672 868 489 947 601 918 l 665 690 l 646 690 b 388 908 622 833 531 908 b 193 743 288 908 193 842 b 722 240 193 482 722 574 b 422 -19 722 86 600 -19 b 115 86 299 -19 185 19 l 124 281 l 143 281 m 531 1204 l 661 1204 l 404 1032 l 385 1032 "},"Š":{"ha":824,"x_min":0,"x_max":0,"o":"m 143 281 b 424 19 181 117 286 19 b 638 203 551 19 638 94 b 119 711 638 496 119 383 b 389 947 119 850 224 947 b 672 868 489 947 601 918 l 665 690 l 646 690 b 388 908 622 833 531 908 b 193 743 288 908 193 842 b 722 240 193 482 722 574 b 422 -19 722 86 600 -19 b 115 86 299 -19 185 19 l 124 281 l 143 281 m 236 1204 l 415 1107 l 593 1204 l 613 1204 l 464 1047 l 369 1047 l 217 1204 "},"Ş":{"ha":824,"x_min":0,"x_max":0,"o":"m 143 281 b 424 19 181 117 286 19 b 638 203 551 19 638 94 b 119 711 638 496 119 383 b 389 947 119 850 224 947 b 672 868 489 947 601 918 l 665 690 l 646 690 b 388 908 622 833 531 908 b 193 743 288 908 193 842 b 722 240 193 482 722 574 b 443 -19 722 92 610 -11 l 421 -83 b 543 -193 496 -99 543 -133 b 426 -294 543 -254 496 -294 b 315 -251 386 -294 350 -282 l 324 -240 b 399 -262 350 -256 375 -262 b 471 -203 439 -262 471 -242 b 378 -132 471 -168 446 -146 l 419 -19 b 115 86 296 -18 185 19 l 124 281 l 143 281 "},"Ŝ":{"ha":824,"x_min":0,"x_max":0,"o":"m 143 281 b 424 19 181 117 286 19 b 638 203 551 19 638 94 b 119 711 638 496 119 383 b 389 947 119 850 224 947 b 672 868 489 947 601 918 l 665 690 l 646 690 b 388 908 622 833 531 908 b 193 743 288 908 193 842 b 722 240 193 482 722 574 b 422 -19 722 86 600 -19 b 115 86 299 -19 185 19 l 124 281 l 143 281 m 371 1204 l 465 1204 l 614 1047 l 594 1047 l 417 1144 l 238 1047 l 218 1047 "},"Ș":{"ha":824,"x_min":0,"x_max":0,"o":"m 143 281 b 424 19 181 117 286 19 b 638 203 551 19 638 94 b 119 711 638 496 119 383 b 389 947 119 850 224 947 b 672 868 489 947 601 918 l 665 690 l 646 690 b 388 908 622 833 531 908 b 193 743 288 908 193 842 b 722 240 193 482 722 574 b 422 -19 722 86 600 -19 b 115 86 299 -19 185 19 l 124 281 l 143 281 m 363 -178 b 426 -114 363 -139 389 -114 b 494 -206 472 -114 494 -150 b 371 -347 494 -279 443 -337 l 371 -329 b 453 -233 415 -321 449 -290 b 424 -240 443 -237 432 -240 b 363 -178 389 -240 363 -211 "},"ẞ":{"ha":1106,"x_min":0,"x_max":0,"o":"m 736 -19 b 465 86 625 -19 529 24 l 472 275 l 492 275 b 740 19 529 111 607 19 b 919 192 854 19 919 86 b 704 425 919 301 847 338 b 506 686 586 499 506 561 b 661 889 506 782 556 854 l 274 889 l 274 132 b 400 19 274 38 317 22 l 400 0 l 60 0 l 60 19 b 186 132 143 22 186 38 l 186 797 b 60 908 186 889 143 906 l 60 928 l 886 928 l 886 889 l 833 889 b 579 713 676 889 579 826 b 771 500 579 619 643 581 b 1004 214 939 394 1004 329 b 736 -19 1004 71 904 -19 "},"T":{"ha":919,"x_min":0,"x_max":0,"o":"m 503 153 b 629 19 503 38 544 22 l 629 0 l 289 0 l 289 19 b 417 153 375 22 417 38 l 417 889 l 276 889 b 65 693 146 889 99 824 l 46 693 l 86 938 b 213 928 125 932 164 928 l 707 928 b 833 938 756 928 794 932 l 872 693 l 853 693 b 643 889 819 824 772 889 l 503 889 l 503 153 "},"Ŧ":{"ha":919,"x_min":0,"x_max":0,"o":"m 503 153 b 629 19 503 38 544 22 l 629 0 l 289 0 l 289 19 b 417 153 375 22 417 38 l 417 447 l 260 447 l 260 481 l 417 481 l 417 889 l 276 889 b 65 693 146 889 99 824 l 46 693 l 86 938 b 213 928 125 932 164 928 l 707 928 b 833 938 756 928 794 932 l 872 693 l 853 693 b 643 889 819 824 772 889 l 503 889 l 503 481 l 658 481 l 658 447 l 503 447 l 503 153 "},"Ť":{"ha":919,"x_min":0,"x_max":0,"o":"m 503 153 b 629 19 503 38 544 22 l 629 0 l 289 0 l 289 19 b 417 153 375 22 417 38 l 417 889 l 276 889 b 65 693 146 889 99 824 l 46 693 l 86 938 b 213 928 125 932 164 928 l 707 928 b 833 938 756 928 794 932 l 872 693 l 853 693 b 643 889 819 824 772 889 l 503 889 l 503 153 m 281 1204 l 460 1107 l 638 1204 l 657 1204 l 508 1047 l 414 1047 l 261 1204 "},"Ţ":{"ha":919,"x_min":0,"x_max":0,"o":"m 503 153 b 629 19 503 38 544 22 l 629 0 l 481 0 l 451 -83 b 574 -193 526 -99 574 -133 b 457 -294 574 -254 526 -294 b 346 -251 417 -294 381 -282 l 354 -240 b 429 -262 381 -256 406 -262 b 501 -203 469 -262 501 -242 b 408 -132 501 -168 476 -146 l 457 0 l 289 0 l 289 19 b 417 153 375 22 417 38 l 417 889 l 276 889 b 65 693 146 889 99 824 l 46 693 l 86 938 b 213 928 125 932 164 928 l 707 928 b 833 938 756 928 794 932 l 872 693 l 853 693 b 643 889 819 824 772 889 l 503 889 l 503 153 "},"Ț":{"ha":919,"x_min":0,"x_max":0,"o":"m 503 153 b 629 19 503 38 544 22 l 629 0 l 289 0 l 289 19 b 417 153 375 22 417 38 l 417 889 l 276 889 b 65 693 146 889 99 824 l 46 693 l 86 938 b 213 928 125 932 164 928 l 707 928 b 833 938 756 928 794 932 l 872 693 l 853 693 b 643 889 819 824 772 889 l 503 889 l 503 153 m 393 -178 b 457 -114 393 -139 419 -114 b 525 -206 503 -114 525 -150 b 401 -347 525 -279 474 -337 l 401 -329 b 483 -233 446 -321 479 -290 b 454 -240 474 -237 463 -240 b 393 -178 419 -240 393 -211 "},"U":{"ha":1032,"x_min":0,"x_max":0,"o":"m 986 928 l 986 908 b 860 800 903 906 860 890 l 860 353 b 528 -19 860 104 739 -19 b 172 344 304 -19 172 106 l 172 800 b 46 908 172 890 129 906 l 46 928 l 386 928 l 386 908 b 260 800 303 906 260 890 l 260 357 b 554 31 260 139 375 31 b 821 354 722 31 821 136 l 821 800 b 693 908 821 890 778 906 l 693 928 "},"Ú":{"ha":1032,"x_min":0,"x_max":0,"o":"m 986 928 l 986 908 b 860 800 903 906 860 890 l 860 353 b 528 -19 860 104 739 -19 b 172 344 304 -19 172 106 l 172 800 b 46 908 172 890 129 906 l 46 928 l 386 928 l 386 908 b 260 800 303 906 260 890 l 260 357 b 554 31 260 139 375 31 b 821 354 722 31 821 136 l 821 800 b 693 908 821 890 778 906 l 693 928 m 656 1204 l 786 1204 l 529 1032 l 510 1032 "},"Ŭ":{"ha":1032,"x_min":0,"x_max":0,"o":"m 986 928 l 986 908 b 860 800 903 906 860 890 l 860 353 b 528 -19 860 104 739 -19 b 172 344 304 -19 172 106 l 172 800 b 46 908 172 890 129 906 l 46 928 l 386 928 l 386 908 b 260 800 303 906 260 890 l 260 357 b 554 31 260 139 375 31 b 821 354 722 31 821 136 l 821 800 b 693 908 821 890 778 906 l 693 928 m 390 1206 b 540 1097 397 1133 454 1097 b 692 1206 626 1097 685 1133 l 707 1206 b 540 1038 706 1101 650 1038 b 374 1206 431 1038 375 1101 "},"Û":{"ha":1032,"x_min":0,"x_max":0,"o":"m 986 928 l 986 908 b 860 800 903 906 860 890 l 860 353 b 528 -19 860 104 739 -19 b 172 344 304 -19 172 106 l 172 800 b 46 908 172 890 129 906 l 46 928 l 386 928 l 386 908 b 260 800 303 906 260 890 l 260 357 b 554 31 260 139 375 31 b 821 354 722 31 821 136 l 821 800 b 693 908 821 890 778 906 l 693 928 m 496 1204 l 590 1204 l 739 1047 l 719 1047 l 542 1144 l 363 1047 l 343 1047 "},"Ü":{"ha":1032,"x_min":0,"x_max":0,"o":"m 986 928 l 986 908 b 860 800 903 906 860 890 l 860 353 b 528 -19 860 104 739 -19 b 172 344 304 -19 172 106 l 172 800 b 46 908 172 890 129 906 l 46 928 l 386 928 l 386 908 b 260 800 303 906 260 890 l 260 357 b 554 31 260 139 375 31 b 821 354 722 31 821 136 l 821 800 b 693 908 821 890 778 906 l 693 928 m 367 1126 b 436 1193 367 1164 397 1193 b 501 1126 472 1193 501 1164 b 436 1061 501 1090 472 1061 b 367 1126 397 1061 367 1090 m 583 1126 b 653 1193 583 1164 614 1193 b 718 1126 689 1193 718 1164 b 653 1061 718 1090 689 1061 b 583 1126 614 1061 583 1090 "},"Ù":{"ha":1032,"x_min":0,"x_max":0,"o":"m 986 928 l 986 908 b 860 800 903 906 860 890 l 860 353 b 528 -19 860 104 739 -19 b 172 344 304 -19 172 106 l 172 800 b 46 908 172 890 129 906 l 46 928 l 386 928 l 386 908 b 260 800 303 906 260 890 l 260 357 b 554 31 260 139 375 31 b 821 354 722 31 821 136 l 821 800 b 693 908 821 890 778 906 l 693 928 m 439 1203 l 585 1031 l 565 1031 l 308 1203 "},"Ű":{"ha":1032,"x_min":0,"x_max":0,"o":"m 986 928 l 986 908 b 860 800 903 906 860 890 l 860 353 b 528 -19 860 104 739 -19 b 172 344 304 -19 172 106 l 172 800 b 46 908 172 890 129 906 l 46 928 l 386 928 l 386 908 b 260 800 303 906 260 890 l 260 357 b 554 31 260 139 375 31 b 821 354 722 31 821 136 l 821 800 b 693 908 821 890 778 906 l 693 928 m 522 1218 l 618 1218 l 439 1032 l 421 1032 m 682 1217 l 782 1218 l 601 1032 l 581 1032 "},"Ū":{"ha":1032,"x_min":0,"x_max":0,"o":"m 986 928 l 986 908 b 860 800 903 906 860 890 l 860 353 b 528 -19 860 104 739 -19 b 172 344 304 -19 172 106 l 172 800 b 46 908 172 890 129 906 l 46 928 l 386 928 l 386 908 b 260 800 303 906 260 890 l 260 357 b 554 31 260 139 375 31 b 821 354 722 31 821 136 l 821 800 b 693 908 821 890 778 906 l 693 928 m 364 1121 l 714 1121 l 714 1088 l 364 1088 "},"Ų":{"ha":1032,"x_min":0,"x_max":0,"o":"m 986 928 l 986 908 b 860 800 903 906 860 890 l 860 353 b 632 -8 860 149 778 29 b 524 -174 569 -47 524 -112 b 600 -251 524 -221 557 -251 b 701 -189 632 -251 672 -228 l 713 -194 b 583 -294 688 -254 635 -294 b 460 -189 507 -294 460 -251 b 592 -15 460 -119 513 -53 b 528 -19 571 -18 550 -19 b 172 344 304 -19 172 106 l 172 800 b 46 908 172 890 129 906 l 46 928 l 386 928 l 386 908 b 260 800 303 906 260 890 l 260 357 b 554 31 260 139 375 31 b 821 354 722 31 821 136 l 821 800 b 693 908 821 890 778 906 l 693 928 "},"Ů":{"ha":1032,"x_min":0,"x_max":0,"o":"m 986 928 l 986 908 b 860 800 903 906 860 890 l 860 353 b 528 -19 860 104 739 -19 b 172 344 304 -19 172 106 l 172 800 b 46 908 172 890 129 906 l 46 928 l 386 928 l 386 908 b 260 800 303 906 260 890 l 260 357 b 554 31 260 139 375 31 b 821 354 722 31 821 136 l 821 800 b 693 908 821 890 778 906 l 693 928 m 414 1153 b 539 1269 414 1219 467 1269 b 664 1153 611 1269 664 1219 b 539 1035 664 1085 611 1035 b 414 1153 467 1035 414 1085 m 447 1153 b 539 1063 447 1100 488 1063 b 631 1153 592 1063 631 1100 b 539 1243 631 1206 592 1243 b 447 1153 488 1243 447 1206 "},"Ũ":{"ha":1032,"x_min":0,"x_max":0,"o":"m 986 928 l 986 908 b 860 800 903 906 860 890 l 860 353 b 528 -19 860 104 739 -19 b 172 344 304 -19 172 106 l 172 800 b 46 908 172 890 129 906 l 46 928 l 386 928 l 386 908 b 260 800 303 906 260 890 l 260 357 b 554 31 260 139 375 31 b 821 354 722 31 821 136 l 821 800 b 693 908 821 890 778 906 l 693 928 m 363 1131 b 444 1233 363 1197 388 1233 b 647 1156 513 1233 586 1156 b 703 1228 678 1156 697 1169 l 717 1229 l 717 1201 b 636 1099 717 1135 692 1099 b 433 1175 569 1099 492 1175 b 376 1103 401 1175 382 1163 l 363 1103 "},"V":{"ha":951,"x_min":0,"x_max":0,"o":"m 142 782 b -10 908 106 872 69 904 l -10 928 l 317 928 l 317 908 b 219 843 253 907 219 886 b 233 788 219 828 225 810 l 497 119 l 760 785 b 775 846 769 808 775 829 b 667 908 775 888 740 907 l 667 928 l 961 928 l 961 908 b 800 783 871 906 836 872 l 481 -21 l 461 -21 l 142 782 "},"W":{"ha":1400,"x_min":0,"x_max":0,"o":"m 643 782 b 511 908 615 863 582 904 l 511 928 l 832 928 l 832 908 b 725 838 757 906 725 882 b 735 788 725 822 728 806 l 964 132 l 1196 785 b 1208 842 1204 806 1208 825 b 1103 908 1208 883 1178 907 l 1103 928 l 1396 928 l 1396 908 b 1236 783 1301 904 1267 867 l 950 -21 l 931 -21 l 686 663 l 443 -21 l 424 -21 l 136 782 b 4 908 107 864 75 904 l 4 928 l 325 928 l 325 908 b 218 839 251 907 218 882 b 229 788 218 824 222 807 l 458 132 l 665 721 l 643 782 "},"Ẃ":{"ha":1400,"x_min":0,"x_max":0,"o":"m 643 782 b 511 908 615 863 582 904 l 511 928 l 832 928 l 832 908 b 725 838 757 906 725 882 b 735 788 725 822 728 806 l 964 132 l 1196 785 b 1208 842 1204 806 1208 825 b 1103 908 1208 883 1178 907 l 1103 928 l 1396 928 l 1396 908 b 1236 783 1301 904 1267 867 l 950 -21 l 931 -21 l 686 663 l 443 -21 l 424 -21 l 136 782 b 4 908 107 864 75 904 l 4 928 l 325 928 l 325 908 b 218 839 251 907 218 882 b 229 788 218 824 222 807 l 458 132 l 665 721 l 643 782 m 789 1204 l 919 1204 l 663 1032 l 643 1032 "},"Ŵ":{"ha":1400,"x_min":0,"x_max":0,"o":"m 643 782 b 511 908 615 863 582 904 l 511 928 l 832 928 l 832 908 b 725 838 757 906 725 882 b 735 788 725 822 728 806 l 964 132 l 1196 785 b 1208 842 1204 806 1208 825 b 1103 908 1208 883 1178 907 l 1103 928 l 1396 928 l 1396 908 b 1236 783 1301 904 1267 867 l 950 -21 l 931 -21 l 686 663 l 443 -21 l 424 -21 l 136 782 b 4 908 107 864 75 904 l 4 928 l 325 928 l 325 908 b 218 839 251 907 218 882 b 229 788 218 824 222 807 l 458 132 l 665 721 l 643 782 m 629 1204 l 724 1204 l 872 1047 l 853 1047 l 675 1144 l 496 1047 l 476 1047 "},"Ẅ":{"ha":1400,"x_min":0,"x_max":0,"o":"m 643 782 b 511 908 615 863 582 904 l 511 928 l 832 928 l 832 908 b 725 838 757 906 725 882 b 735 788 725 822 728 806 l 964 132 l 1196 785 b 1208 842 1204 806 1208 825 b 1103 908 1208 883 1178 907 l 1103 928 l 1396 928 l 1396 908 b 1236 783 1301 904 1267 867 l 950 -21 l 931 -21 l 686 663 l 443 -21 l 424 -21 l 136 782 b 4 908 107 864 75 904 l 4 928 l 325 928 l 325 908 b 218 839 251 907 218 882 b 229 788 218 824 222 807 l 458 132 l 665 721 l 643 782 m 500 1126 b 569 1193 500 1164 531 1193 b 635 1126 606 1193 635 1164 b 569 1061 635 1090 606 1061 b 500 1126 531 1061 500 1090 m 717 1126 b 786 1193 717 1164 747 1193 b 851 1126 822 1193 851 1164 b 786 1061 851 1090 822 1061 b 717 1126 747 1061 717 1090 "},"Ẁ":{"ha":1400,"x_min":0,"x_max":0,"o":"m 643 782 b 511 908 615 863 582 904 l 511 928 l 832 928 l 832 908 b 725 838 757 906 725 882 b 735 788 725 822 728 806 l 964 132 l 1196 785 b 1208 842 1204 806 1208 825 b 1103 908 1208 883 1178 907 l 1103 928 l 1396 928 l 1396 908 b 1236 783 1301 904 1267 867 l 950 -21 l 931 -21 l 686 663 l 443 -21 l 424 -21 l 136 782 b 4 908 107 864 75 904 l 4 928 l 325 928 l 325 908 b 218 839 251 907 218 882 b 229 788 218 824 222 807 l 458 132 l 665 721 l 643 782 m 572 1203 l 718 1031 l 699 1031 l 442 1203 "},"X":{"ha":1006,"x_min":0,"x_max":0,"o":"m 656 19 b 739 63 711 21 739 35 b 707 132 739 79 728 103 l 483 446 l 260 135 b 228 64 239 104 228 82 b 324 19 228 35 258 21 l 324 0 l 25 0 l 25 19 b 215 138 104 22 157 54 l 460 479 l 221 817 b 67 908 175 882 136 906 l 67 928 l 392 928 l 392 908 b 304 869 332 907 304 896 b 328 817 304 857 311 839 l 525 538 l 707 792 b 740 864 729 822 740 846 b 644 908 740 893 708 907 l 644 928 l 931 928 l 931 908 b 753 792 861 906 811 874 l 547 506 l 811 132 b 981 19 868 53 915 22 l 981 0 l 656 0 l 656 19 "},"Y":{"ha":842,"x_min":0,"x_max":0,"o":"m 232 19 b 357 129 315 22 357 36 l 357 394 l 118 792 b -24 908 71 872 31 906 l -24 928 l 301 928 l 301 908 b 196 856 229 907 196 890 b 219 792 196 839 204 818 l 429 443 l 646 792 b 672 861 664 821 672 843 b 579 908 672 893 643 907 l 579 928 l 865 928 l 865 908 b 692 792 792 906 742 872 l 444 396 l 444 129 b 569 19 444 36 488 22 l 569 0 l 232 0 l 232 19 "},"Ý":{"ha":842,"x_min":0,"x_max":0,"o":"m 232 19 b 357 129 315 22 357 36 l 357 394 l 118 792 b -24 908 71 872 31 906 l -24 928 l 301 928 l 301 908 b 196 856 229 907 196 890 b 219 792 196 839 204 818 l 429 443 l 646 792 b 672 861 664 821 672 843 b 579 908 672 893 643 907 l 579 928 l 865 928 l 865 908 b 692 792 792 906 742 872 l 444 396 l 444 129 b 569 19 444 36 488 22 l 569 0 l 232 0 l 232 19 m 532 1204 l 663 1204 l 406 1032 l 386 1032 "},"Ŷ":{"ha":842,"x_min":0,"x_max":0,"o":"m 232 19 b 357 129 315 22 357 36 l 357 394 l 118 792 b -24 908 71 872 31 906 l -24 928 l 301 928 l 301 908 b 196 856 229 907 196 890 b 219 792 196 839 204 818 l 429 443 l 646 792 b 672 861 664 821 672 843 b 579 908 672 893 643 907 l 579 928 l 865 928 l 865 908 b 692 792 792 906 742 872 l 444 396 l 444 129 b 569 19 444 36 488 22 l 569 0 l 232 0 l 232 19 m 371 1204 l 465 1204 l 614 1047 l 594 1047 l 417 1144 l 238 1047 l 218 1047 "},"Ÿ":{"ha":842,"x_min":0,"x_max":0,"o":"m 232 19 b 357 129 315 22 357 36 l 357 394 l 118 792 b -24 908 71 872 31 906 l -24 928 l 301 928 l 301 908 b 196 856 229 907 196 890 b 219 792 196 839 204 818 l 429 443 l 646 792 b 672 861 664 821 672 843 b 579 908 672 893 643 907 l 579 928 l 865 928 l 865 908 b 692 792 792 906 742 872 l 444 396 l 444 129 b 569 19 444 36 488 22 l 569 0 l 232 0 l 232 19 m 242 1126 b 311 1193 242 1164 272 1193 b 376 1126 347 1193 376 1164 b 311 1061 376 1090 347 1061 b 242 1126 272 1061 242 1090 m 458 1126 b 528 1193 458 1164 489 1193 b 593 1126 564 1193 593 1164 b 528 1061 593 1090 564 1061 b 458 1126 489 1061 458 1090 "},"Ỳ":{"ha":842,"x_min":0,"x_max":0,"o":"m 232 19 b 357 129 315 22 357 36 l 357 394 l 118 792 b -24 908 71 872 31 906 l -24 928 l 301 928 l 301 908 b 196 856 229 907 196 890 b 219 792 196 839 204 818 l 429 443 l 646 792 b 672 861 664 821 672 843 b 579 908 672 893 643 907 l 579 928 l 865 928 l 865 908 b 692 792 792 906 742 872 l 444 396 l 444 129 b 569 19 444 36 488 22 l 569 0 l 232 0 l 232 19 m 314 1203 l 460 1031 l 440 1031 l 183 1203 "},"Z":{"ha":847,"x_min":0,"x_max":0,"o":"m 732 -10 b 606 0 693 -4 654 0 l 64 0 l 64 19 l 647 889 l 325 889 b 114 693 196 889 149 824 l 94 693 l 135 938 b 261 928 174 932 213 928 l 765 928 l 765 908 l 181 39 l 542 39 b 751 235 671 39 718 104 l 771 235 l 732 -10 "},"Ź":{"ha":847,"x_min":0,"x_max":0,"o":"m 732 -10 b 606 0 693 -4 654 0 l 64 0 l 64 19 l 647 889 l 325 889 b 114 693 196 889 149 824 l 94 693 l 135 938 b 261 928 174 932 213 928 l 765 928 l 765 908 l 181 39 l 542 39 b 751 235 671 39 718 104 l 771 235 l 732 -10 m 519 1204 l 650 1204 l 393 1032 l 374 1032 "},"Ž":{"ha":847,"x_min":0,"x_max":0,"o":"m 732 -10 b 606 0 693 -4 654 0 l 64 0 l 64 19 l 647 889 l 325 889 b 114 693 196 889 149 824 l 94 693 l 135 938 b 261 928 174 932 213 928 l 765 928 l 765 908 l 181 39 l 542 39 b 751 235 671 39 718 104 l 771 235 l 732 -10 m 225 1204 l 404 1107 l 582 1204 l 601 1204 l 453 1047 l 358 1047 l 206 1204 "},"Ż":{"ha":847,"x_min":0,"x_max":0,"o":"m 732 -10 b 606 0 693 -4 654 0 l 64 0 l 64 19 l 647 889 l 325 889 b 114 693 196 889 149 824 l 94 693 l 135 938 b 261 928 174 932 213 928 l 765 928 l 765 908 l 181 39 l 542 39 b 751 235 671 39 718 104 l 771 235 l 732 -10 m 336 1150 b 406 1217 336 1188 367 1217 b 469 1150 442 1217 469 1188 b 406 1085 469 1114 442 1085 b 336 1150 367 1085 336 1114 "},"a":{"ha":633,"x_min":0,"x_max":0,"o":"m 247 -21 b 67 144 139 -21 67 47 b 446 463 67 396 446 288 b 299 607 446 549 386 607 b 156 467 208 607 156 546 b 161 419 156 451 157 436 l 67 419 b 300 642 68 538 151 642 b 518 431 435 642 518 557 l 518 104 b 582 38 518 61 536 42 l 604 36 l 604 17 l 447 -22 l 447 149 b 247 -21 410 35 340 -21 m 150 151 b 274 31 150 81 201 31 b 446 231 354 31 446 107 l 446 386 b 150 151 393 285 150 340 "},"á":{"ha":633,"x_min":0,"x_max":0,"o":"m 247 -21 b 67 144 139 -21 67 47 b 446 463 67 396 446 288 b 299 607 446 549 386 607 b 156 467 208 607 156 546 b 161 419 156 451 157 436 l 67 419 b 300 642 68 538 151 642 b 518 431 435 642 518 557 l 518 104 b 582 38 518 61 536 42 l 604 36 l 604 17 l 447 -22 l 447 149 b 247 -21 410 35 340 -21 m 150 151 b 274 31 150 81 201 31 b 446 231 354 31 446 107 l 446 386 b 150 151 393 285 150 340 m 372 963 l 489 963 l 297 751 l 278 751 "},"ă":{"ha":633,"x_min":0,"x_max":0,"o":"m 247 -21 b 67 144 139 -21 67 47 b 446 463 67 396 446 288 b 299 607 446 549 386 607 b 156 467 208 607 156 546 b 161 419 156 451 157 436 l 67 419 b 300 642 68 538 151 642 b 518 431 435 642 518 557 l 518 104 b 582 38 518 61 536 42 l 604 36 l 604 17 l 447 -22 l 447 149 b 247 -21 410 35 340 -21 m 165 950 b 301 819 169 853 225 819 b 439 950 378 819 435 853 l 454 950 b 301 757 456 821 400 757 b 149 950 203 757 147 821 m 150 151 b 274 31 150 81 201 31 b 446 231 354 31 446 107 l 446 386 b 150 151 393 285 150 340 "},"â":{"ha":633,"x_min":0,"x_max":0,"o":"m 247 -21 b 67 144 139 -21 67 47 b 446 463 67 396 446 288 b 299 607 446 549 386 607 b 156 467 208 607 156 546 b 161 419 156 451 157 436 l 67 419 b 300 642 68 538 151 642 b 518 431 435 642 518 557 l 518 104 b 582 38 518 61 536 42 l 604 36 l 604 17 l 447 -22 l 447 149 b 247 -21 410 35 340 -21 m 254 935 l 349 935 l 488 751 l 469 751 l 301 875 l 131 751 l 113 751 m 150 151 b 274 31 150 81 201 31 b 446 231 354 31 446 107 l 446 386 b 150 151 393 285 150 340 "},"ä":{"ha":633,"x_min":0,"x_max":0,"o":"m 247 -21 b 67 144 139 -21 67 47 b 446 463 67 396 446 288 b 299 607 446 549 386 607 b 156 467 208 607 156 546 b 161 419 156 451 157 436 l 67 419 b 300 642 68 538 151 642 b 518 431 435 642 518 557 l 518 104 b 582 38 518 61 536 42 l 604 36 l 604 17 l 447 -22 l 447 149 b 247 -21 410 35 340 -21 m 125 843 b 196 911 125 882 156 911 b 261 843 232 911 261 882 b 196 778 261 807 232 778 b 125 843 156 778 125 807 m 150 151 b 274 31 150 81 201 31 b 446 231 354 31 446 107 l 446 386 b 150 151 393 285 150 340 m 343 843 b 413 911 343 882 374 911 b 479 843 449 911 479 882 b 413 778 479 807 449 778 b 343 843 374 778 343 807 "},"à":{"ha":633,"x_min":0,"x_max":0,"o":"m 247 -21 b 67 144 139 -21 67 47 b 446 463 67 396 446 288 b 299 607 446 549 386 607 b 156 467 208 607 156 546 b 161 419 156 451 157 436 l 67 419 b 300 642 68 538 151 642 b 518 431 435 642 518 557 l 518 104 b 582 38 518 61 536 42 l 604 36 l 604 17 l 447 -22 l 447 149 b 247 -21 410 35 340 -21 m 251 963 l 346 751 l 326 751 l 135 963 m 150 151 b 274 31 150 81 201 31 b 446 231 354 31 446 107 l 446 386 b 150 151 393 285 150 340 "},"ā":{"ha":633,"x_min":0,"x_max":0,"o":"m 247 -21 b 67 144 139 -21 67 47 b 446 463 67 396 446 288 b 299 607 446 549 386 607 b 156 467 208 607 156 546 b 161 419 156 451 157 436 l 67 419 b 300 642 68 538 151 642 b 518 431 435 642 518 557 l 518 104 b 582 38 518 61 536 42 l 604 36 l 604 17 l 447 -22 l 447 149 b 247 -21 410 35 340 -21 m 126 839 l 476 839 l 476 806 l 126 806 m 150 151 b 274 31 150 81 201 31 b 446 231 354 31 446 107 l 446 386 b 150 151 393 285 150 340 "},"ą":{"ha":633,"x_min":0,"x_max":0,"o":"m 247 -21 b 67 144 139 -21 67 47 b 446 463 67 396 446 288 b 299 607 446 549 386 607 b 156 467 208 607 156 546 b 161 419 156 451 157 436 l 67 419 b 300 642 68 538 151 642 b 518 431 435 642 518 557 l 518 104 b 582 38 518 61 536 42 l 604 36 l 604 17 l 490 -11 b 388 -174 431 -51 388 -114 b 464 -251 388 -221 421 -251 b 565 -189 496 -251 536 -228 l 576 -194 b 447 -294 551 -254 499 -294 b 324 -189 371 -294 324 -251 b 447 -19 324 -121 372 -58 l 447 149 b 247 -21 410 35 340 -21 m 150 151 b 274 31 150 81 201 31 b 446 231 354 31 446 107 l 446 386 b 150 151 393 285 150 340 "},"å":{"ha":633,"x_min":0,"x_max":0,"o":"m 247 -21 b 67 144 139 -21 67 47 b 446 463 67 396 446 288 b 299 607 446 549 386 607 b 156 467 208 607 156 546 b 161 419 156 451 157 436 l 67 419 b 300 642 68 538 151 642 b 518 431 435 642 518 557 l 518 104 b 582 38 518 61 536 42 l 604 36 l 604 17 l 447 -22 l 447 149 b 247 -21 410 35 340 -21 m 150 151 b 274 31 150 81 201 31 b 446 231 354 31 446 107 l 446 386 b 150 151 393 285 150 340 m 175 871 b 300 988 175 938 228 988 b 425 871 372 988 425 938 b 300 753 425 803 372 753 b 175 871 228 753 175 803 m 208 871 b 300 781 208 818 249 781 b 392 871 353 781 392 818 b 300 961 392 924 353 961 b 208 871 249 961 208 924 "},"ǻ":{"ha":633,"x_min":0,"x_max":0,"o":"m 247 -21 b 67 144 139 -21 67 47 b 446 463 67 396 446 288 b 299 607 446 549 386 607 b 156 467 208 607 156 546 b 161 419 156 451 157 436 l 67 419 b 300 642 68 538 151 642 b 518 431 435 642 518 557 l 518 104 b 582 38 518 61 536 42 l 604 36 l 604 17 l 447 -22 l 447 149 b 247 -21 410 35 340 -21 m 150 151 b 274 31 150 81 201 31 b 446 231 354 31 446 107 l 446 386 b 150 151 393 285 150 340 m 175 871 b 300 988 175 938 228 988 b 425 871 372 988 425 938 b 300 753 425 803 372 753 b 175 871 228 753 175 803 m 208 871 b 300 781 208 818 249 781 b 392 871 353 781 392 818 b 300 961 392 924 353 961 b 208 871 249 961 208 924 m 386 1221 l 503 1221 l 311 1010 l 292 1010 "},"ã":{"ha":633,"x_min":0,"x_max":0,"o":"m 247 -21 b 67 144 139 -21 67 47 b 446 463 67 396 446 288 b 299 607 446 549 386 607 b 156 467 208 607 156 546 b 161 419 156 451 157 436 l 67 419 b 300 642 68 538 151 642 b 518 431 435 642 518 557 l 518 104 b 582 38 518 61 536 42 l 604 36 l 604 17 l 447 -22 l 447 149 b 247 -21 410 35 340 -21 m 124 824 b 206 926 124 890 149 926 b 406 850 272 926 346 850 b 461 922 436 850 456 863 l 475 922 l 475 894 b 394 792 475 828 451 792 b 193 868 328 792 253 868 b 138 796 163 868 143 856 l 124 796 m 150 151 b 274 31 150 81 201 31 b 446 231 354 31 446 107 l 446 386 b 150 151 393 285 150 340 "},"æ":{"ha":1028,"x_min":0,"x_max":0,"o":"m 446 463 b 299 607 446 549 386 607 b 156 467 208 607 156 546 b 161 419 156 451 157 436 l 67 419 b 300 642 68 538 151 642 b 501 515 401 642 472 593 b 738 642 553 597 636 642 b 967 411 872 642 967 557 b 964 369 967 397 965 383 l 526 369 l 525 340 b 758 43 521 165 606 43 b 951 183 858 43 925 111 l 968 179 b 724 -18 942 57 850 -18 b 463 185 596 -18 499 61 b 247 -21 440 40 336 -21 b 67 144 139 -21 67 47 b 446 463 67 396 446 288 m 150 151 b 274 38 150 81 201 38 b 446 243 354 38 446 107 l 446 385 b 150 151 393 285 150 340 m 882 404 b 883 439 883 417 883 428 b 724 607 883 547 817 607 b 531 404 624 607 551 528 "},"ǽ":{"ha":1028,"x_min":0,"x_max":0,"o":"m 446 463 b 299 607 446 549 386 607 b 156 467 208 607 156 546 b 161 419 156 451 157 436 l 67 419 b 300 642 68 538 151 642 b 501 515 401 642 472 593 b 738 642 553 597 636 642 b 967 411 872 642 967 557 b 964 369 967 397 965 383 l 526 369 l 525 340 b 758 43 521 165 606 43 b 951 183 858 43 925 111 l 968 179 b 724 -18 942 57 850 -18 b 463 185 596 -18 499 61 b 247 -21 440 40 336 -21 b 67 144 139 -21 67 47 b 446 463 67 396 446 288 m 150 151 b 274 38 150 81 201 38 b 446 243 354 38 446 107 l 446 385 b 150 151 393 285 150 340 m 585 963 l 701 963 l 510 751 l 490 751 m 882 404 b 883 439 883 417 883 428 b 724 607 883 547 817 607 b 531 404 624 607 551 528 "},"b":{"ha":697,"x_min":0,"x_max":0,"o":"m 385 642 b 643 313 538 642 643 510 b 364 -21 643 90 510 -21 b 201 35 304 -21 239 0 l 110 -21 l 110 838 b 46 903 110 881 90 900 l 24 904 l 24 924 l 182 963 l 182 475 b 385 642 207 578 283 642 m 182 215 b 363 14 182 104 251 14 b 560 300 497 14 560 143 b 365 582 560 474 475 582 b 182 363 269 582 182 518 l 182 215 "},"c":{"ha":619,"x_min":0,"x_max":0,"o":"m 510 443 b 347 607 499 553 433 607 b 136 324 225 607 136 485 b 365 40 136 164 235 40 b 557 183 460 40 526 103 l 574 179 b 335 -18 546 57 460 -18 b 53 314 174 -18 53 119 b 347 642 53 503 178 642 b 533 596 414 642 486 625 l 529 443 l 510 443 "},"ć":{"ha":619,"x_min":0,"x_max":0,"o":"m 510 443 b 347 607 499 553 433 607 b 136 324 225 607 136 485 b 365 40 136 164 235 40 b 557 183 460 40 526 103 l 574 179 b 335 -18 546 57 460 -18 b 53 314 174 -18 53 119 b 347 642 53 503 178 642 b 533 596 414 642 486 625 l 529 443 l 510 443 m 407 963 l 524 963 l 332 751 l 313 751 "},"č":{"ha":619,"x_min":0,"x_max":0,"o":"m 510 443 b 347 607 499 553 433 607 b 136 324 225 607 136 485 b 365 40 136 164 235 40 b 557 183 460 40 526 103 l 574 179 b 335 -18 546 57 460 -18 b 53 314 174 -18 53 119 b 347 642 53 503 178 642 b 533 596 414 642 486 625 l 529 443 l 510 443 m 164 949 l 335 825 l 503 949 l 521 949 l 382 765 l 288 765 l 146 949 "},"ç":{"ha":619,"x_min":0,"x_max":0,"o":"m 510 443 b 347 607 499 553 433 607 b 136 324 225 607 136 485 b 365 40 136 164 235 40 b 557 183 460 40 526 103 l 574 179 b 335 -18 546 57 460 -18 l 324 -18 l 301 -83 b 424 -193 376 -99 424 -133 b 307 -294 424 -254 376 -294 b 196 -251 267 -294 231 -282 l 204 -240 b 279 -262 231 -256 256 -262 b 351 -203 319 -262 351 -242 b 258 -132 351 -168 326 -146 l 300 -15 b 53 314 157 1 53 133 b 347 642 53 503 178 642 b 533 596 414 642 486 625 l 529 443 l 510 443 "},"ĉ":{"ha":619,"x_min":0,"x_max":0,"o":"m 510 443 b 347 607 499 553 433 607 b 136 324 225 607 136 485 b 365 40 136 164 235 40 b 557 183 460 40 526 103 l 574 179 b 335 -18 546 57 460 -18 b 53 314 174 -18 53 119 b 347 642 53 503 178 642 b 533 596 414 642 486 625 l 529 443 l 510 443 m 289 935 l 383 935 l 522 751 l 504 751 l 336 875 l 165 751 l 147 751 "},"ċ":{"ha":619,"x_min":0,"x_max":0,"o":"m 510 443 b 347 607 499 553 433 607 b 136 324 225 607 136 485 b 365 40 136 164 235 40 b 557 183 460 40 526 103 l 574 179 b 335 -18 546 57 460 -18 b 53 314 174 -18 53 119 b 347 642 53 503 178 642 b 533 596 414 642 486 625 l 529 443 l 510 443 m 267 885 b 336 951 267 922 297 951 b 401 885 372 951 401 922 b 336 819 401 849 372 819 b 267 885 297 819 267 849 "},"d":{"ha":710,"x_min":0,"x_max":0,"o":"m 313 -21 b 54 308 160 -21 54 111 b 333 642 54 531 188 642 b 515 561 396 642 467 622 l 515 838 b 451 903 515 881 496 900 l 429 904 l 429 924 l 588 963 l 588 104 b 651 39 588 63 606 43 l 674 38 l 674 18 l 517 -21 l 517 150 b 313 -21 492 44 415 -21 m 138 321 b 332 40 138 147 222 40 b 515 260 428 40 514 103 l 515 406 b 335 607 515 517 446 607 b 138 321 200 607 138 478 "},"ð":{"ha":693,"x_min":0,"x_max":0,"o":"m 333 15 b 529 310 476 15 529 146 b 329 607 529 475 472 607 b 136 311 210 607 136 508 b 333 15 136 121 210 15 m 53 308 b 325 642 53 497 144 642 b 528 528 426 642 492 596 b 419 825 518 667 488 763 l 303 746 l 285 774 l 393 846 b 131 914 333 889 247 910 l 131 949 b 435 876 242 943 349 929 l 549 951 l 564 925 l 463 857 b 619 415 557 785 619 653 b 333 -21 619 201 565 -21 b 53 308 169 -21 53 106 "},"ď":{"ha":710,"x_min":0,"x_max":0,"o":"m 313 -21 b 54 308 160 -21 54 111 b 333 642 54 531 188 642 b 515 561 396 642 467 622 l 515 838 b 451 903 515 881 496 900 l 429 904 l 429 924 l 588 963 l 588 104 b 651 39 588 63 606 43 l 674 38 l 674 18 l 517 -21 l 517 150 b 313 -21 492 44 415 -21 m 138 321 b 332 40 138 147 222 40 b 515 260 428 40 514 103 l 515 406 b 335 607 515 517 446 607 b 138 321 200 607 138 478 m 692 950 l 774 950 l 683 703 l 668 703 "},"đ":{"ha":710,"x_min":0,"x_max":0,"o":"m 313 -21 b 54 308 160 -21 54 111 b 333 642 54 531 188 642 b 515 561 396 642 467 622 l 515 753 l 324 753 l 324 786 l 515 786 l 515 838 b 451 903 515 881 496 900 l 429 904 l 429 924 l 588 963 l 588 786 l 722 786 l 722 753 l 588 753 l 588 104 b 651 39 588 63 606 43 l 674 38 l 674 18 l 517 -21 l 517 150 b 313 -21 492 44 415 -21 m 138 321 b 332 40 138 147 222 40 b 515 260 428 40 514 103 l 515 406 b 335 607 515 517 446 607 b 138 321 200 607 138 478 "},"e":{"ha":636,"x_min":0,"x_max":0,"o":"m 132 340 b 365 43 128 165 213 43 b 558 183 465 43 532 111 l 575 179 b 331 -18 549 57 457 -18 b 53 301 165 -18 53 114 b 344 642 53 514 174 642 b 574 411 479 642 574 557 b 571 369 574 397 572 383 l 133 369 b 132 340 132 360 132 350 m 489 404 b 490 439 490 417 490 428 b 331 607 490 547 424 607 b 138 404 231 607 158 528 "},"é":{"ha":636,"x_min":0,"x_max":0,"o":"m 132 340 b 365 43 128 165 213 43 b 558 183 465 43 532 111 l 575 179 b 331 -18 549 57 457 -18 b 53 301 165 -18 53 114 b 344 642 53 514 174 642 b 574 411 479 642 574 557 b 571 369 574 397 572 383 l 133 369 b 132 340 132 360 132 350 m 489 404 b 490 439 490 417 490 428 b 331 607 490 547 424 607 b 138 404 231 607 158 528 m 401 963 l 518 963 l 326 751 l 307 751 "},"ĕ":{"ha":636,"x_min":0,"x_max":0,"o":"m 132 340 b 365 43 128 165 213 43 b 558 183 465 43 532 111 l 575 179 b 331 -18 549 57 457 -18 b 53 301 165 -18 53 114 b 344 642 53 514 174 642 b 574 411 479 642 574 557 b 571 369 574 397 572 383 l 133 369 b 132 340 132 360 132 350 m 489 404 b 490 439 490 417 490 428 b 331 607 490 547 424 607 b 138 404 231 607 158 528 m 193 950 b 329 819 197 853 253 819 b 467 950 406 819 463 853 l 482 950 b 329 757 483 821 428 757 b 176 950 231 757 175 821 "},"ě":{"ha":636,"x_min":0,"x_max":0,"o":"m 132 340 b 365 43 128 165 213 43 b 558 183 465 43 532 111 l 575 179 b 331 -18 549 57 457 -18 b 53 301 165 -18 53 114 b 344 642 53 514 174 642 b 574 411 479 642 574 557 b 571 369 574 397 572 383 l 133 369 b 132 340 132 360 132 350 m 489 404 b 490 439 490 417 490 428 b 331 607 490 547 424 607 b 138 404 231 607 158 528 m 158 949 l 329 825 l 497 949 l 515 949 l 376 765 l 282 765 l 140 949 "},"ê":{"ha":636,"x_min":0,"x_max":0,"o":"m 132 340 b 365 43 128 165 213 43 b 558 183 465 43 532 111 l 575 179 b 331 -18 549 57 457 -18 b 53 301 165 -18 53 114 b 344 642 53 514 174 642 b 574 411 479 642 574 557 b 571 369 574 397 572 383 l 133 369 b 132 340 132 360 132 350 m 489 404 b 490 439 490 417 490 428 b 331 607 490 547 424 607 b 138 404 231 607 158 528 m 283 935 l 378 935 l 517 751 l 499 751 l 331 875 l 160 751 l 142 751 "},"ë":{"ha":636,"x_min":0,"x_max":0,"o":"m 132 340 b 365 43 128 165 213 43 b 558 183 465 43 532 111 l 575 179 b 331 -18 549 57 457 -18 b 53 301 165 -18 53 114 b 344 642 53 514 174 642 b 574 411 479 642 574 557 b 571 369 574 397 572 383 l 133 369 b 132 340 132 360 132 350 m 489 404 b 490 439 490 417 490 428 b 331 607 490 547 424 607 b 138 404 231 607 158 528 m 154 843 b 225 911 154 882 185 911 b 290 843 261 911 290 882 b 225 778 290 807 261 778 b 154 843 185 778 154 807 m 372 843 b 442 911 372 882 403 911 b 508 843 478 911 508 882 b 442 778 508 807 478 778 b 372 843 403 778 372 807 "},"ė":{"ha":636,"x_min":0,"x_max":0,"o":"m 132 340 b 365 43 128 165 213 43 b 558 183 465 43 532 111 l 575 179 b 331 -18 549 57 457 -18 b 53 301 165 -18 53 114 b 344 642 53 514 174 642 b 574 411 479 642 574 557 b 571 369 574 397 572 383 l 133 369 b 132 340 132 360 132 350 m 489 404 b 490 439 490 417 490 428 b 331 607 490 547 424 607 b 138 404 231 607 158 528 m 261 885 b 331 951 261 922 292 951 b 396 885 367 951 396 922 b 331 819 396 849 367 819 b 261 885 292 819 261 849 "},"è":{"ha":636,"x_min":0,"x_max":0,"o":"m 132 340 b 365 43 128 165 213 43 b 558 183 465 43 532 111 l 575 179 b 331 -18 549 57 457 -18 b 53 301 165 -18 53 114 b 344 642 53 514 174 642 b 574 411 479 642 574 557 b 571 369 574 397 572 383 l 133 369 b 132 340 132 360 132 350 m 489 404 b 490 439 490 417 490 428 b 331 607 490 547 424 607 b 138 404 231 607 158 528 m 281 963 l 375 751 l 356 751 l 164 963 "},"ē":{"ha":636,"x_min":0,"x_max":0,"o":"m 132 340 b 365 43 128 165 213 43 b 558 183 465 43 532 111 l 575 179 b 331 -18 549 57 457 -18 b 53 301 165 -18 53 114 b 344 642 53 514 174 642 b 574 411 479 642 574 557 b 571 369 574 397 572 383 l 133 369 b 132 340 132 360 132 350 m 489 404 b 490 439 490 417 490 428 b 331 607 490 547 424 607 b 138 404 231 607 158 528 m 154 839 l 504 839 l 504 806 l 154 806 "},"ę":{"ha":636,"x_min":0,"x_max":0,"o":"m 132 340 b 365 43 128 165 213 43 b 558 183 465 43 532 111 l 575 179 b 431 0 556 92 504 29 b 310 -174 363 -39 310 -108 b 386 -251 310 -221 343 -251 b 488 -189 418 -251 458 -228 l 499 -194 b 369 -294 474 -254 421 -294 b 246 -189 293 -294 246 -251 b 381 -14 246 -118 300 -51 b 331 -18 364 -17 347 -18 b 53 301 165 -18 53 114 b 344 642 53 514 174 642 b 574 411 479 642 574 557 b 571 369 574 397 572 383 l 133 369 b 132 340 132 360 132 350 m 489 404 b 490 439 490 417 490 428 b 331 607 490 547 424 607 b 138 404 231 607 158 528 "},"f":{"ha":401,"x_min":0,"x_max":0,"o":"m 390 586 l 215 586 l 215 92 b 344 19 215 44 253 24 l 344 0 l 51 0 l 51 19 b 143 92 118 28 143 47 l 143 586 l 38 586 l 38 621 l 143 621 l 143 731 b 346 949 143 876 224 949 b 454 926 378 949 425 943 l 447 792 l 431 792 b 322 914 419 872 382 914 b 215 761 257 914 215 857 l 215 621 l 390 621 "},"g":{"ha":667,"x_min":0,"x_max":0,"o":"m 332 -294 b 38 -119 156 -294 38 -228 b 154 28 38 -56 82 -6 b 93 135 114 50 93 88 b 160 256 93 183 119 226 b 75 426 106 294 75 354 b 321 642 75 556 174 642 b 460 610 375 642 422 631 b 619 639 519 622 556 639 l 619 588 l 493 588 b 567 426 540 550 567 494 b 321 210 567 297 468 210 b 176 246 264 210 215 222 b 143 167 157 224 143 197 b 256 85 143 115 185 90 l 417 76 b 633 -89 561 68 633 13 b 332 -294 633 -214 521 -294 m 114 -107 b 339 -260 114 -207 199 -260 b 564 -111 479 -260 564 -200 b 407 -7 564 -44 508 -12 l 256 1 b 174 18 224 3 196 8 b 114 -107 140 -3 114 -51 m 156 426 b 321 246 156 317 222 246 b 488 426 421 246 488 317 b 321 607 488 536 421 607 b 156 426 222 607 156 536 "},"ğ":{"ha":667,"x_min":0,"x_max":0,"o":"m 332 -294 b 38 -119 156 -294 38 -228 b 154 28 38 -56 82 -6 b 93 135 114 50 93 88 b 160 256 93 183 119 226 b 75 426 106 294 75 354 b 321 642 75 556 174 642 b 460 610 375 642 422 631 b 619 639 519 622 556 639 l 619 588 l 493 588 b 567 426 540 550 567 494 b 321 210 567 297 468 210 b 176 246 264 210 215 222 b 143 167 157 224 143 197 b 256 85 143 115 185 90 l 417 76 b 633 -89 561 68 633 13 b 332 -294 633 -214 521 -294 m 114 -107 b 339 -260 114 -207 199 -260 b 564 -111 479 -260 564 -200 b 407 -7 564 -44 508 -12 l 256 1 b 174 18 224 3 196 8 b 114 -107 140 -3 114 -51 m 156 426 b 321 246 156 317 222 246 b 488 426 421 246 488 317 b 321 607 488 536 421 607 b 156 426 222 607 156 536 m 189 950 b 325 819 193 853 249 819 b 463 950 401 819 458 853 l 478 950 b 325 757 479 821 424 757 b 172 950 226 757 171 821 "},"ĝ":{"ha":667,"x_min":0,"x_max":0,"o":"m 332 -294 b 38 -119 156 -294 38 -228 b 154 28 38 -56 82 -6 b 93 135 114 50 93 88 b 160 256 93 183 119 226 b 75 426 106 294 75 354 b 321 642 75 556 174 642 b 460 610 375 642 422 631 b 619 639 519 622 556 639 l 619 588 l 493 588 b 567 426 540 550 567 494 b 321 210 567 297 468 210 b 176 246 264 210 215 222 b 143 167 157 224 143 197 b 256 85 143 115 185 90 l 417 76 b 633 -89 561 68 633 13 b 332 -294 633 -214 521 -294 m 114 -107 b 339 -260 114 -207 199 -260 b 564 -111 479 -260 564 -200 b 407 -7 564 -44 508 -12 l 256 1 b 174 18 224 3 196 8 b 114 -107 140 -3 114 -51 m 278 935 l 372 935 l 511 751 l 493 751 l 325 875 l 154 751 l 136 751 m 156 426 b 321 246 156 317 222 246 b 488 426 421 246 488 317 b 321 607 488 536 421 607 b 156 426 222 607 156 536 "},"ģ":{"ha":667,"x_min":0,"x_max":0,"o":"m 332 -294 b 38 -119 156 -294 38 -228 b 154 28 38 -56 82 -6 b 93 135 114 50 93 88 b 160 256 93 183 119 226 b 75 426 106 294 75 354 b 321 642 75 556 174 642 b 460 610 375 642 422 631 b 619 639 519 622 556 639 l 619 588 l 493 588 b 567 426 540 550 567 494 b 321 210 567 297 468 210 b 176 246 264 210 215 222 b 143 167 157 224 143 197 b 256 85 143 115 185 90 l 417 76 b 633 -89 561 68 633 13 b 332 -294 633 -214 521 -294 m 114 -107 b 339 -260 114 -207 199 -260 b 564 -111 479 -260 564 -200 b 407 -7 564 -44 508 -12 l 256 1 b 174 18 224 3 196 8 b 114 -107 140 -3 114 -51 m 156 426 b 321 246 156 317 222 246 b 488 426 421 246 488 317 b 321 607 488 536 421 607 b 156 426 222 607 156 536 m 258 883 b 382 1025 258 957 310 1015 l 382 1007 b 300 911 338 999 304 968 b 329 918 310 915 321 918 b 390 856 364 918 390 889 b 326 792 390 817 364 792 b 258 883 281 792 258 828 "},"ġ":{"ha":667,"x_min":0,"x_max":0,"o":"m 332 -294 b 38 -119 156 -294 38 -228 b 154 28 38 -56 82 -6 b 93 135 114 50 93 88 b 160 256 93 183 119 226 b 75 426 106 294 75 354 b 321 642 75 556 174 642 b 460 610 375 642 422 631 b 619 639 519 622 556 639 l 619 588 l 493 588 b 567 426 540 550 567 494 b 321 210 567 297 468 210 b 176 246 264 210 215 222 b 143 167 157 224 143 197 b 256 85 143 115 185 90 l 417 76 b 633 -89 561 68 633 13 b 332 -294 633 -214 521 -294 m 114 -107 b 339 -260 114 -207 199 -260 b 564 -111 479 -260 564 -200 b 407 -7 564 -44 508 -12 l 256 1 b 174 18 224 3 196 8 b 114 -107 140 -3 114 -51 m 156 426 b 321 246 156 317 222 246 b 488 426 421 246 488 317 b 321 607 488 536 421 607 b 156 426 222 607 156 536 m 256 885 b 325 951 256 922 286 951 b 390 885 361 951 390 922 b 325 819 390 849 361 819 b 256 885 286 819 256 849 "},"h":{"ha":725,"x_min":0,"x_max":0,"o":"m 603 92 b 693 19 603 47 628 28 l 693 0 l 438 0 l 438 19 b 529 92 504 28 529 47 l 529 426 b 393 586 529 542 469 586 b 204 357 304 586 204 524 l 204 92 b 296 19 204 47 229 28 l 296 0 l 40 0 l 40 19 b 132 92 107 28 132 47 l 132 838 b 68 903 132 881 114 900 l 46 904 l 46 924 l 204 963 l 204 474 b 419 642 244 588 324 642 b 603 433 528 642 603 575 l 603 92 "},"ħ":{"ha":725,"x_min":0,"x_max":0,"o":"m 603 92 b 693 19 603 47 628 28 l 693 0 l 438 0 l 438 19 b 529 92 504 28 529 47 l 529 426 b 393 586 529 542 469 586 b 204 357 304 586 204 524 l 204 92 b 296 19 204 47 229 28 l 296 0 l 40 0 l 40 19 b 132 92 107 28 132 47 l 132 753 l 18 753 l 18 786 l 132 786 l 132 838 b 68 903 132 881 114 900 l 46 904 l 46 924 l 204 963 l 204 786 l 417 786 l 417 753 l 204 753 l 204 474 b 419 642 244 588 324 642 b 603 433 528 642 603 575 l 603 92 "},"ĥ":{"ha":725,"x_min":0,"x_max":0,"o":"m 603 92 b 693 19 603 47 628 28 l 693 0 l 438 0 l 438 19 b 529 92 504 28 529 47 l 529 426 b 393 586 529 542 469 586 b 204 357 304 586 204 524 l 204 92 b 296 19 204 47 229 28 l 296 0 l 40 0 l 40 19 b 132 92 107 28 132 47 l 132 838 b 68 903 132 881 114 900 l 46 904 l 46 924 l 204 963 l 204 474 b 419 642 244 588 324 642 b 603 433 528 642 603 575 l 603 92 m 124 1204 l 218 1204 l 367 1047 l 347 1047 l 169 1144 l -10 1047 l -29 1047 "},"i":{"ha":347,"x_min":0,"x_max":0,"o":"m 211 92 b 301 19 211 47 236 28 l 301 0 l 47 0 l 47 19 b 138 92 113 28 138 47 l 138 517 b 74 582 138 560 119 579 l 51 583 l 51 603 l 211 642 l 211 92 m 106 885 b 175 951 106 922 136 951 b 240 885 211 951 240 922 b 175 819 240 849 211 819 b 106 885 136 819 106 849 "},"ı":{"ha":347,"x_min":0,"x_max":0,"o":"m 211 92 b 301 19 211 47 236 28 l 301 0 l 47 0 l 47 19 b 138 92 113 28 138 47 l 138 517 b 74 582 138 560 119 579 l 51 583 l 51 603 l 211 642 l 211 92 "},"í":{"ha":347,"x_min":0,"x_max":0,"o":"m 211 92 b 301 19 211 47 236 28 l 301 0 l 47 0 l 47 19 b 138 92 113 28 138 47 l 138 517 b 74 582 138 560 119 579 l 51 583 l 51 603 l 211 642 l 211 92 m 246 963 l 363 963 l 171 751 l 151 751 "},"ĭ":{"ha":347,"x_min":0,"x_max":0,"o":"m 211 92 b 301 19 211 47 236 28 l 301 0 l 47 0 l 47 19 b 138 92 113 28 138 47 l 138 517 b 74 582 138 560 119 579 l 51 583 l 51 603 l 211 642 l 211 92 m 39 950 b 175 819 43 853 99 819 b 313 950 251 819 308 853 l 328 950 b 175 757 329 821 274 757 b 22 950 76 757 21 821 "},"î":{"ha":347,"x_min":0,"x_max":0,"o":"m 211 92 b 301 19 211 47 236 28 l 301 0 l 47 0 l 47 19 b 138 92 113 28 138 47 l 138 517 b 74 582 138 560 119 579 l 51 583 l 51 603 l 211 642 l 211 92 m 128 935 l 222 935 l 361 751 l 343 751 l 175 875 l 4 751 l -14 751 "},"ï":{"ha":347,"x_min":0,"x_max":0,"o":"m 211 92 b 301 19 211 47 236 28 l 301 0 l 47 0 l 47 19 b 138 92 113 28 138 47 l 138 517 b 74 582 138 560 119 579 l 51 583 l 51 603 l 211 642 l 211 92 m -1 843 b 69 911 -1 882 29 911 b 135 843 106 911 135 882 b 69 778 135 807 106 778 b -1 843 29 778 -1 807 m 217 843 b 286 911 217 882 247 911 b 353 843 322 911 353 882 b 286 778 353 807 322 778 b 217 843 247 778 217 807 "},"ì":{"ha":347,"x_min":0,"x_max":0,"o":"m 211 92 b 301 19 211 47 236 28 l 301 0 l 47 0 l 47 19 b 138 92 113 28 138 47 l 138 517 b 74 582 138 560 119 579 l 51 583 l 51 603 l 211 642 l 211 92 m 125 963 l 219 751 l 200 751 l 8 963 "},"ĳ":{"ha":689,"x_min":0,"x_max":0,"o":"m 211 92 b 301 19 211 47 236 28 l 301 0 l 47 0 l 47 19 b 138 92 113 28 138 47 l 138 517 b 74 582 138 560 119 579 l 51 583 l 51 603 l 211 642 l 211 92 m 106 885 b 175 951 106 922 136 951 b 240 885 211 951 240 922 b 175 819 240 849 211 819 b 106 885 136 819 106 849 m 347 -281 b 490 75 444 -201 490 -107 l 490 517 b 426 582 490 560 472 579 l 406 583 l 406 603 l 564 642 l 564 106 b 357 -294 564 -99 513 -215 l 347 -281 m 458 885 b 528 951 458 922 489 951 b 593 885 564 951 593 922 b 528 819 593 849 564 819 b 458 885 489 819 458 849 "},"ī":{"ha":347,"x_min":0,"x_max":0,"o":"m 211 92 b 301 19 211 47 236 28 l 301 0 l 47 0 l 47 19 b 138 92 113 28 138 47 l 138 517 b 74 582 138 560 119 579 l 51 583 l 51 603 l 211 642 l 211 92 m 0 839 l 350 839 l 350 806 l 0 806 "},"į":{"ha":347,"x_min":0,"x_max":0,"o":"m 211 92 b 301 19 211 47 236 28 l 301 0 l 228 0 b 110 -174 156 -50 110 -111 b 186 -251 110 -221 143 -251 b 288 -189 218 -251 258 -228 l 299 -194 b 169 -294 274 -254 221 -294 b 46 -189 93 -294 46 -251 b 196 0 46 -115 103 -47 l 47 0 l 47 19 b 138 92 113 28 138 47 l 138 517 b 74 582 138 560 119 579 l 51 583 l 51 603 l 211 642 l 211 92 m 106 885 b 175 951 106 922 136 951 b 240 885 211 951 240 922 b 175 819 240 849 211 819 b 106 885 136 819 106 849 "},"ĩ":{"ha":347,"x_min":0,"x_max":0,"o":"m 211 92 b 301 19 211 47 236 28 l 301 0 l 47 0 l 47 19 b 138 92 113 28 138 47 l 138 517 b 74 582 138 560 119 579 l 51 583 l 51 603 l 211 642 l 211 92 m -3 824 b 79 926 -3 890 22 926 b 279 850 146 926 219 850 b 335 922 310 850 329 863 l 349 922 l 349 894 b 268 792 349 828 325 792 b 67 868 201 792 126 868 b 11 796 36 868 17 856 l -3 796 "},"j":{"ha":289,"x_min":0,"x_max":0,"o":"m 32 603 l 190 642 l 190 106 b -17 -294 190 -99 139 -215 l -26 -281 b 117 75 71 -201 117 -107 l 117 517 b 53 582 117 560 99 579 l 32 583 m 85 885 b 154 951 85 922 115 951 b 219 885 190 951 219 922 b 154 819 219 849 190 819 b 85 885 115 819 85 849 "},"ȷ":{"ha":289,"x_min":0,"x_max":0,"o":"m 32 603 l 190 642 l 190 106 b -17 -294 190 -99 139 -215 l -26 -281 b 117 75 71 -201 117 -107 l 117 517 b 53 582 117 560 99 579 l 32 583 "},"ĵ":{"ha":289,"x_min":0,"x_max":0,"o":"m 32 603 l 190 642 l 190 106 b -17 -294 190 -99 139 -215 l -26 -281 b 117 75 71 -201 117 -107 l 117 517 b 53 582 117 560 99 579 l 32 583 m 106 935 l 200 935 l 339 751 l 321 751 l 153 875 l -18 751 l -36 751 "},"k":{"ha":696,"x_min":0,"x_max":0,"o":"m 511 0 b 438 101 508 22 486 51 l 204 332 l 204 92 b 296 19 204 47 229 28 l 296 0 l 40 0 l 40 19 b 132 92 107 28 132 47 l 132 838 b 68 903 132 881 114 900 l 46 904 l 46 924 l 204 963 l 204 339 l 442 526 b 486 579 472 550 486 568 b 435 601 486 593 469 599 l 435 621 l 654 621 l 654 601 b 490 521 610 600 561 576 l 282 356 l 540 96 b 692 18 593 42 635 21 l 692 0 l 511 0 "},"ķ":{"ha":696,"x_min":0,"x_max":0,"o":"m 511 0 b 438 101 508 22 486 51 l 204 332 l 204 92 b 296 19 204 47 229 28 l 296 0 l 40 0 l 40 19 b 132 92 107 28 132 47 l 132 838 b 68 903 132 881 114 900 l 46 904 l 46 924 l 204 963 l 204 339 l 442 526 b 486 579 472 550 486 568 b 435 601 486 593 469 599 l 435 621 l 654 621 l 654 601 b 490 521 610 600 561 576 l 282 356 l 540 96 b 692 18 593 42 635 21 l 692 0 l 511 0 m 288 -199 b 351 -135 288 -160 314 -135 b 419 -226 397 -135 419 -171 b 296 -368 419 -300 368 -358 l 296 -350 b 378 -254 340 -342 374 -311 b 349 -261 368 -258 357 -261 b 288 -199 314 -261 288 -232 "},"ĸ":{"ha":719,"x_min":0,"x_max":0,"o":"m 224 336 l 482 540 b 506 576 499 553 506 567 b 471 601 506 590 493 600 l 471 621 l 678 621 l 678 601 b 514 521 631 600 579 572 l 306 356 l 578 81 b 715 18 613 46 651 19 l 715 0 l 561 0 m 47 19 b 138 92 113 28 138 47 l 138 517 b 74 582 138 560 119 579 l 51 583 l 51 603 l 211 642 l 211 92 b 301 19 211 47 236 28 l 301 0 l 47 0 "},"l":{"ha":335,"x_min":0,"x_max":0,"o":"m 204 92 b 296 19 204 47 229 28 l 296 0 l 40 0 l 40 19 b 132 92 107 28 132 47 l 132 838 b 68 903 132 881 114 900 l 46 904 l 46 924 l 204 963 l 204 92 "},"ĺ":{"ha":335,"x_min":0,"x_max":0,"o":"m 204 92 b 296 19 204 47 229 28 l 296 0 l 40 0 l 40 19 b 132 92 107 28 132 47 l 132 838 b 68 903 132 881 114 900 l 46 904 l 46 924 l 204 963 l 204 92 m 283 1204 l 414 1204 l 157 1032 l 138 1032 "},"ľ":{"ha":335,"x_min":0,"x_max":0,"o":"m 204 92 b 296 19 204 47 229 28 l 296 0 l 40 0 l 40 19 b 132 92 107 28 132 47 l 132 838 b 68 903 132 881 114 900 l 46 904 l 46 924 l 204 963 l 204 92 m 288 950 l 369 950 l 279 703 l 264 703 "},"ļ":{"ha":335,"x_min":0,"x_max":0,"o":"m 204 92 b 296 19 204 47 229 28 l 296 0 l 40 0 l 40 19 b 132 92 107 28 132 47 l 132 838 b 68 903 132 881 114 900 l 46 904 l 46 924 l 204 963 l 204 92 m 104 -199 b 168 -135 104 -160 131 -135 b 236 -226 214 -135 236 -171 b 113 -368 236 -300 185 -358 l 113 -350 b 194 -254 157 -342 190 -311 b 165 -261 185 -258 174 -261 b 104 -199 131 -261 104 -232 "},"ŀ":{"ha":406,"x_min":0,"x_max":0,"o":"m 204 92 b 296 19 204 47 229 28 l 296 0 l 40 0 l 40 19 b 132 92 107 28 132 47 l 132 838 b 68 903 132 881 114 900 l 46 904 l 46 924 l 204 963 l 204 92 m 288 486 b 360 557 288 528 318 557 b 431 486 401 557 431 528 b 360 415 431 446 401 415 b 288 486 318 415 288 446 "},"ł":{"ha":390,"x_min":0,"x_max":0,"o":"m 232 92 b 324 19 232 47 257 28 l 324 0 l 68 0 l 68 19 b 160 92 135 28 160 47 l 160 519 l 58 472 l 58 506 l 160 553 l 160 838 b 96 903 160 881 142 900 l 74 904 l 74 924 l 232 963 l 232 581 l 346 633 l 346 600 l 232 547 l 232 92 "},"m":{"ha":1129,"x_min":0,"x_max":0,"o":"m 1006 92 b 1096 19 1006 47 1031 28 l 1096 0 l 842 0 l 842 19 b 932 92 907 28 932 47 l 932 426 b 797 586 932 542 872 586 b 608 357 708 586 608 524 l 608 92 b 699 19 608 47 633 28 l 699 0 l 444 0 l 444 19 b 535 92 510 28 535 47 l 535 426 b 400 586 535 542 475 586 b 211 357 311 586 211 524 l 211 92 b 301 19 211 47 236 28 l 301 0 l 47 0 l 47 19 b 138 92 113 28 138 47 l 138 517 b 74 582 138 560 119 579 l 51 583 l 51 603 l 211 642 l 211 474 b 425 642 250 588 329 642 b 607 468 524 642 594 586 b 822 642 644 585 725 642 b 1006 433 931 642 1006 575 l 1006 92 "},"n":{"ha":731,"x_min":0,"x_max":0,"o":"m 608 92 b 699 19 608 47 633 28 l 699 0 l 444 0 l 444 19 b 535 92 510 28 535 47 l 535 426 b 400 586 535 542 475 586 b 211 357 311 586 211 524 l 211 92 b 301 19 211 47 236 28 l 301 0 l 47 0 l 47 19 b 138 92 113 28 138 47 l 138 517 b 74 582 138 560 119 579 l 51 583 l 51 603 l 211 642 l 211 474 b 425 642 250 588 329 642 b 608 433 533 642 608 575 l 608 92 "},"ń":{"ha":731,"x_min":0,"x_max":0,"o":"m 608 92 b 699 19 608 47 633 28 l 699 0 l 444 0 l 444 19 b 535 92 510 28 535 47 l 535 426 b 400 586 535 542 475 586 b 211 357 311 586 211 524 l 211 92 b 301 19 211 47 236 28 l 301 0 l 47 0 l 47 19 b 138 92 113 28 138 47 l 138 517 b 74 582 138 560 119 579 l 51 583 l 51 603 l 211 642 l 211 474 b 425 642 250 588 329 642 b 608 433 533 642 608 575 l 608 92 m 444 963 l 561 963 l 369 751 l 350 751 "},"ŉ":{"ha":800,"x_min":0,"x_max":0,"o":"m 608 92 b 699 19 608 47 633 28 l 699 0 l 444 0 l 444 19 b 535 92 510 28 535 47 l 535 426 b 400 586 535 542 475 586 b 211 357 311 586 211 524 l 211 92 b 301 19 211 47 236 28 l 301 0 l 47 0 l 47 19 b 138 92 113 28 138 47 l 138 517 b 74 582 138 560 119 579 l 51 583 l 51 603 l 211 642 l 211 474 b 425 642 250 588 329 642 b 608 433 533 642 608 575 l 608 92 m 78 957 b 142 1015 78 992 104 1015 b 210 932 188 1015 210 982 b 86 804 210 867 158 814 l 86 821 b 168 907 131 829 164 856 b 139 901 158 903 149 901 b 78 957 104 901 78 928 "},"ň":{"ha":731,"x_min":0,"x_max":0,"o":"m 608 92 b 699 19 608 47 633 28 l 699 0 l 444 0 l 444 19 b 535 92 510 28 535 47 l 535 426 b 400 586 535 542 475 586 b 211 357 311 586 211 524 l 211 92 b 301 19 211 47 236 28 l 301 0 l 47 0 l 47 19 b 138 92 113 28 138 47 l 138 517 b 74 582 138 560 119 579 l 51 583 l 51 603 l 211 642 l 211 474 b 425 642 250 588 329 642 b 608 433 533 642 608 575 l 608 92 m 200 949 l 371 825 l 539 949 l 557 949 l 418 765 l 324 765 l 182 949 "},"ņ":{"ha":731,"x_min":0,"x_max":0,"o":"m 608 92 b 699 19 608 47 633 28 l 699 0 l 444 0 l 444 19 b 535 92 510 28 535 47 l 535 426 b 400 586 535 542 475 586 b 211 357 311 586 211 524 l 211 92 b 301 19 211 47 236 28 l 301 0 l 47 0 l 47 19 b 138 92 113 28 138 47 l 138 517 b 74 582 138 560 119 579 l 51 583 l 51 603 l 211 642 l 211 474 b 425 642 250 588 329 642 b 608 433 533 642 608 575 l 608 92 m 310 -199 b 374 -135 310 -160 336 -135 b 442 -226 419 -135 442 -171 b 318 -368 442 -300 390 -358 l 318 -350 b 400 -254 363 -342 396 -311 b 371 -261 390 -258 379 -261 b 310 -199 336 -261 310 -232 "},"ñ":{"ha":731,"x_min":0,"x_max":0,"o":"m 608 92 b 699 19 608 47 633 28 l 699 0 l 444 0 l 444 19 b 535 92 510 28 535 47 l 535 426 b 400 586 535 542 475 586 b 211 357 311 586 211 524 l 211 92 b 301 19 211 47 236 28 l 301 0 l 47 0 l 47 19 b 138 92 113 28 138 47 l 138 517 b 74 582 138 560 119 579 l 51 583 l 51 603 l 211 642 l 211 474 b 425 642 250 588 329 642 b 608 433 533 642 608 575 l 608 92 m 194 824 b 276 926 194 890 219 926 b 476 850 343 926 417 850 b 532 922 507 850 526 863 l 546 922 l 546 894 b 465 792 546 828 522 792 b 264 868 399 792 324 868 b 208 796 233 868 214 856 l 194 796 "},"ŋ":{"ha":706,"x_min":0,"x_max":0,"o":"m 533 446 b 399 586 533 533 482 586 b 208 357 315 586 208 524 l 208 92 b 299 18 208 36 251 26 l 299 0 l 46 0 l 46 18 b 135 92 93 26 135 36 l 135 517 b 72 581 135 556 121 579 l 38 581 l 38 599 l 192 642 l 208 642 l 208 469 b 422 642 247 585 331 642 b 606 447 539 642 606 567 l 606 106 b 399 -294 606 -99 554 -215 l 390 -281 b 533 75 488 -201 533 -107 l 533 446 "},"o":{"ha":665,"x_min":0,"x_max":0,"o":"m 333 -19 b 53 311 165 -19 53 114 b 333 642 53 508 165 642 b 613 311 500 642 613 508 b 333 -19 613 114 500 -19 m 136 311 b 333 15 136 125 211 15 b 529 311 454 15 529 125 b 333 607 529 499 454 607 b 136 311 211 607 136 499 "},"ó":{"ha":665,"x_min":0,"x_max":0,"o":"m 333 -19 b 53 311 165 -19 53 114 b 333 642 53 508 165 642 b 613 311 500 642 613 508 b 333 -19 613 114 500 -19 m 136 311 b 333 15 136 125 211 15 b 529 311 454 15 529 125 b 333 607 529 499 454 607 b 136 311 211 607 136 499 m 407 963 l 524 963 l 332 751 l 313 751 "},"ŏ":{"ha":665,"x_min":0,"x_max":0,"o":"m 333 -19 b 53 311 165 -19 53 114 b 333 642 53 508 165 642 b 613 311 500 642 613 508 b 333 -19 613 114 500 -19 m 136 311 b 333 15 136 125 211 15 b 529 311 454 15 529 125 b 333 607 529 499 454 607 b 136 311 211 607 136 499 m 199 950 b 335 819 203 853 258 819 b 472 950 411 819 468 853 l 488 950 b 335 757 489 821 433 757 b 182 950 236 757 181 821 "},"ô":{"ha":665,"x_min":0,"x_max":0,"o":"m 333 -19 b 53 311 165 -19 53 114 b 333 642 53 508 165 642 b 613 311 500 642 613 508 b 333 -19 613 114 500 -19 m 136 311 b 333 15 136 125 211 15 b 529 311 454 15 529 125 b 333 607 529 499 454 607 b 136 311 211 607 136 499 m 288 935 l 382 935 l 521 751 l 503 751 l 335 875 l 164 751 l 146 751 "},"ö":{"ha":665,"x_min":0,"x_max":0,"o":"m 333 -19 b 53 311 165 -19 53 114 b 333 642 53 508 165 642 b 613 311 500 642 613 508 b 333 -19 613 114 500 -19 m 136 311 b 333 15 136 125 211 15 b 529 311 454 15 529 125 b 333 607 529 499 454 607 b 136 311 211 607 136 499 m 158 843 b 229 911 158 882 189 911 b 294 843 265 911 294 882 b 229 778 294 807 265 778 b 158 843 189 778 158 807 m 376 843 b 446 911 376 882 407 911 b 513 843 482 911 513 882 b 446 778 513 807 482 778 b 376 843 407 778 376 807 "},"ò":{"ha":665,"x_min":0,"x_max":0,"o":"m 333 -19 b 53 311 165 -19 53 114 b 333 642 53 508 165 642 b 613 311 500 642 613 508 b 333 -19 613 114 500 -19 m 136 311 b 333 15 136 125 211 15 b 529 311 454 15 529 125 b 333 607 529 499 454 607 b 136 311 211 607 136 499 m 285 963 l 379 751 l 360 751 l 168 963 "},"ő":{"ha":665,"x_min":0,"x_max":0,"o":"m 333 -19 b 53 311 165 -19 53 114 b 333 642 53 508 165 642 b 613 311 500 642 613 508 b 333 -19 613 114 500 -19 m 136 311 b 333 15 136 125 211 15 b 529 311 454 15 529 125 b 333 607 529 499 454 607 b 136 311 211 607 136 499 m 304 963 l 393 963 l 238 751 l 219 751 m 463 963 l 553 963 l 396 751 l 376 751 "},"ō":{"ha":665,"x_min":0,"x_max":0,"o":"m 333 -19 b 53 311 165 -19 53 114 b 333 642 53 508 165 642 b 613 311 500 642 613 508 b 333 -19 613 114 500 -19 m 136 311 b 333 15 136 125 211 15 b 529 311 454 15 529 125 b 333 607 529 499 454 607 b 136 311 211 607 136 499 m 160 839 l 510 839 l 510 806 l 160 806 "},"ø":{"ha":665,"x_min":0,"x_max":0,"o":"m 333 -19 b 213 7 289 -19 249 -10 l 178 -68 l 151 -57 l 186 22 b 53 311 103 76 53 179 b 333 642 53 508 165 642 b 453 615 378 642 418 632 l 490 699 l 519 688 l 479 600 b 613 311 563 546 613 443 b 333 -19 613 114 500 -19 m 136 311 b 210 68 136 201 163 118 l 433 575 b 333 607 406 596 371 607 b 136 311 211 607 136 499 m 232 47 b 333 15 260 26 294 15 b 529 311 454 15 529 125 b 457 554 529 421 503 504 l 232 47 "},"ǿ":{"ha":665,"x_min":0,"x_max":0,"o":"m 333 -19 b 213 7 289 -19 249 -10 l 178 -68 l 151 -57 l 186 22 b 53 311 103 76 53 179 b 333 642 53 508 165 642 b 453 615 378 642 418 632 l 490 699 l 519 688 l 479 600 b 613 311 563 546 613 443 b 333 -19 613 114 500 -19 m 136 311 b 210 68 136 201 163 118 l 433 575 b 333 607 406 596 371 607 b 136 311 211 607 136 499 m 232 47 b 333 15 260 26 294 15 b 529 311 454 15 529 125 b 457 554 529 421 503 504 l 232 47 m 407 963 l 524 963 l 332 751 l 313 751 "},"õ":{"ha":665,"x_min":0,"x_max":0,"o":"m 333 -19 b 53 311 165 -19 53 114 b 333 642 53 508 165 642 b 613 311 500 642 613 508 b 333 -19 613 114 500 -19 m 136 311 b 333 15 136 125 211 15 b 529 311 454 15 529 125 b 333 607 529 499 454 607 b 136 311 211 607 136 499 m 157 824 b 239 926 157 890 182 926 b 439 850 306 926 379 850 b 494 922 469 850 489 863 l 508 922 l 508 894 b 428 792 508 828 485 792 b 226 868 361 792 286 868 b 171 796 196 868 176 856 l 157 796 "},"œ":{"ha":1118,"x_min":0,"x_max":0,"o":"m 333 -19 b 53 311 165 -19 53 114 b 333 642 53 508 165 642 b 575 489 443 642 529 585 b 826 642 624 588 714 642 b 1056 411 961 642 1056 557 b 1053 369 1056 397 1054 383 l 615 369 l 614 340 b 847 43 610 165 694 43 b 1040 183 947 43 1014 111 l 1057 179 b 813 -18 1031 57 939 -18 b 574 129 704 -18 619 38 b 333 -19 526 36 442 -19 m 136 311 b 333 15 136 125 211 15 b 529 311 454 15 529 125 b 333 607 529 499 454 607 b 136 311 211 607 136 499 m 971 404 b 972 439 972 417 972 428 b 813 607 972 547 906 607 b 619 404 713 607 640 528 "},"p":{"ha":725,"x_min":0,"x_max":0,"o":"m 414 644 b 672 315 565 644 672 513 b 392 -18 672 93 538 -18 b 211 63 331 -18 258 1 l 211 -182 b 339 -254 211 -229 247 -250 l 339 -274 l 47 -274 l 47 -254 b 138 -182 113 -246 138 -226 l 138 517 b 74 582 138 560 119 579 l 51 583 l 51 603 l 211 642 l 211 478 b 414 644 236 581 311 644 m 211 218 b 392 17 211 106 281 17 b 588 303 526 17 588 146 b 394 583 588 476 504 583 b 211 364 297 583 211 521 l 211 218 "},"þ":{"ha":739,"x_min":0,"x_max":0,"o":"m 221 -182 b 349 -254 221 -229 257 -250 l 349 -274 l 57 -274 l 57 -254 b 147 -182 122 -246 147 -226 l 147 838 b 83 903 147 881 129 900 l 61 904 l 61 924 l 221 963 l 221 475 b 424 642 247 579 322 642 b 682 313 576 642 682 510 b 403 -21 682 90 549 -21 b 221 53 342 -21 271 -3 l 221 -182 m 221 215 b 401 14 221 103 290 14 b 599 300 536 14 599 143 b 404 581 599 474 514 581 b 221 361 308 581 221 518 l 221 215 "},"q":{"ha":690,"x_min":0,"x_max":0,"o":"m 588 -182 b 678 -254 588 -226 613 -246 l 678 -274 l 386 -274 l 386 -254 b 514 -182 478 -250 514 -229 l 514 146 b 311 -21 489 43 414 -21 b 53 308 158 -21 53 111 b 332 642 53 531 188 642 b 494 588 386 642 447 628 l 588 642 l 588 -182 m 136 321 b 331 40 136 147 221 40 b 514 260 426 40 514 103 l 514 406 b 333 607 514 518 444 607 b 136 321 199 607 136 478 "},"r":{"ha":461,"x_min":0,"x_max":0,"o":"m 211 461 b 379 642 239 575 306 642 b 440 626 400 642 419 636 l 429 549 b 360 569 407 563 382 569 b 211 344 282 569 214 492 l 211 92 b 339 19 211 44 247 24 l 339 0 l 47 0 l 47 19 b 138 92 113 28 138 47 l 138 517 b 74 582 138 560 119 579 l 51 583 l 51 603 l 211 642 l 211 461 "},"ŕ":{"ha":461,"x_min":0,"x_max":0,"o":"m 211 461 b 379 642 239 575 306 642 b 440 626 400 642 419 636 l 429 549 b 360 569 407 563 382 569 b 211 344 282 569 214 492 l 211 92 b 339 19 211 44 247 24 l 339 0 l 47 0 l 47 19 b 138 92 113 28 138 47 l 138 517 b 74 582 138 560 119 579 l 51 583 l 51 603 l 211 642 l 211 461 m 339 963 l 456 963 l 264 751 l 244 751 "},"ř":{"ha":461,"x_min":0,"x_max":0,"o":"m 211 461 b 379 642 239 575 306 642 b 440 626 400 642 419 636 l 429 549 b 360 569 407 563 382 569 b 211 344 282 569 214 492 l 211 92 b 339 19 211 44 247 24 l 339 0 l 47 0 l 47 19 b 138 92 113 28 138 47 l 138 517 b 74 582 138 560 119 579 l 51 583 l 51 603 l 211 642 l 211 461 m 96 949 l 267 825 l 435 949 l 453 949 l 314 765 l 219 765 l 78 949 "},"ŗ":{"ha":461,"x_min":0,"x_max":0,"o":"m 211 461 b 379 642 239 575 306 642 b 440 626 400 642 419 636 l 429 549 b 360 569 407 563 382 569 b 211 344 282 569 214 492 l 211 92 b 339 19 211 44 247 24 l 339 0 l 47 0 l 47 19 b 138 92 113 28 138 47 l 138 517 b 74 582 138 560 119 579 l 51 583 l 51 603 l 211 642 l 211 461 m 118 -199 b 182 -135 118 -160 144 -135 b 250 -226 228 -135 250 -171 b 126 -368 250 -300 199 -358 l 126 -350 b 208 -254 171 -342 204 -311 b 179 -261 199 -258 188 -261 b 118 -199 144 -261 118 -232 "},"s":{"ha":561,"x_min":0,"x_max":0,"o":"m 100 203 b 289 14 122 85 194 14 b 438 143 378 14 438 65 b 78 479 438 332 78 233 b 275 642 78 576 157 642 b 454 597 349 642 410 625 l 451 444 l 432 444 b 272 607 417 546 357 607 b 138 493 193 607 138 561 b 497 158 138 319 497 415 b 288 -21 497 51 415 -21 b 76 50 194 -21 118 10 l 81 203 l 100 203 "},"ś":{"ha":561,"x_min":0,"x_max":0,"o":"m 100 203 b 289 14 122 85 194 14 b 438 143 378 14 438 65 b 78 479 438 332 78 233 b 275 642 78 576 157 642 b 454 597 349 642 410 625 l 451 444 l 432 444 b 272 607 417 546 357 607 b 138 493 193 607 138 561 b 497 158 138 319 497 415 b 288 -21 497 51 415 -21 b 76 50 194 -21 118 10 l 81 203 l 100 203 m 356 963 l 472 963 l 281 751 l 261 751 "},"š":{"ha":561,"x_min":0,"x_max":0,"o":"m 100 203 b 289 14 122 85 194 14 b 438 143 378 14 438 65 b 78 479 438 332 78 233 b 275 642 78 576 157 642 b 454 597 349 642 410 625 l 451 444 l 432 444 b 272 607 417 546 357 607 b 138 493 193 607 138 561 b 497 158 138 319 497 415 b 288 -21 497 51 415 -21 b 76 50 194 -21 118 10 l 81 203 l 100 203 m 111 949 l 282 825 l 450 949 l 468 949 l 329 765 l 235 765 l 93 949 "},"ş":{"ha":561,"x_min":0,"x_max":0,"o":"m 100 203 b 289 14 122 85 194 14 b 438 143 378 14 438 65 b 78 479 438 332 78 233 b 275 642 78 576 157 642 b 454 597 349 642 410 625 l 451 444 l 432 444 b 272 607 417 546 357 607 b 138 493 193 607 138 561 b 497 158 138 319 497 415 b 288 -21 497 51 415 -21 l 285 -21 l 263 -83 b 385 -193 338 -99 385 -133 b 268 -294 385 -254 338 -294 b 157 -251 228 -294 192 -282 l 165 -240 b 240 -262 192 -256 217 -262 b 313 -203 281 -262 313 -242 b 219 -132 313 -168 288 -146 l 260 -19 b 76 50 179 -15 114 14 l 81 203 l 100 203 "},"ŝ":{"ha":561,"x_min":0,"x_max":0,"o":"m 100 203 b 289 14 122 85 194 14 b 438 143 378 14 438 65 b 78 479 438 332 78 233 b 275 642 78 576 157 642 b 454 597 349 642 410 625 l 451 444 l 432 444 b 272 607 417 546 357 607 b 138 493 193 607 138 561 b 497 158 138 319 497 415 b 288 -21 497 51 415 -21 b 76 50 194 -21 118 10 l 81 203 l 100 203 m 236 935 l 331 935 l 469 751 l 451 751 l 283 875 l 113 751 l 94 751 "},"ș":{"ha":561,"x_min":0,"x_max":0,"o":"m 100 203 b 289 14 122 85 194 14 b 438 143 378 14 438 65 b 78 479 438 332 78 233 b 275 642 78 576 157 642 b 454 597 349 642 410 625 l 451 444 l 432 444 b 272 607 417 546 357 607 b 138 493 193 607 138 561 b 497 158 138 319 497 415 b 288 -21 497 51 415 -21 b 76 50 194 -21 118 10 l 81 203 l 100 203 m 221 -199 b 285 -135 221 -160 247 -135 b 353 -226 331 -135 353 -171 b 229 -368 353 -300 301 -358 l 229 -350 b 311 -254 274 -342 307 -311 b 282 -261 301 -258 290 -261 b 221 -199 247 -261 221 -232 "},"ß":{"ha":764,"x_min":0,"x_max":0,"o":"m 215 93 b 317 18 215 39 254 26 l 317 0 l 49 0 l 49 18 b 143 93 96 25 143 38 l 143 586 l 38 586 l 38 621 l 143 621 l 143 682 b 382 949 143 889 250 949 b 626 657 553 949 626 853 l 626 604 b 442 490 488 604 442 564 b 714 153 442 347 714 364 b 531 -21 714 40 640 -21 b 354 47 451 -21 383 10 l 358 203 l 378 203 b 531 14 399 86 449 14 b 654 135 597 14 654 44 b 381 468 654 299 381 263 b 556 635 381 558 436 618 b 381 914 553 832 500 914 b 215 713 285 914 215 871 l 215 93 "},"ſ":{"ha":401,"x_min":0,"x_max":0,"o":"m 431 817 b 329 914 411 888 363 914 b 215 761 254 914 215 857 l 215 93 b 344 18 215 39 254 26 l 344 0 l 49 0 l 49 18 b 143 93 96 25 143 38 l 143 586 l 38 586 l 38 621 l 143 621 l 143 731 b 342 949 143 876 225 949 b 454 933 379 949 425 943 l 447 817 l 431 817 "},"t":{"ha":413,"x_min":0,"x_max":0,"o":"m 375 67 b 254 -18 353 15 307 -18 b 111 164 160 -18 111 43 l 111 586 l 29 586 l 29 606 b 165 785 76 653 119 699 l 185 785 l 185 621 l 368 621 l 368 586 l 185 586 l 185 156 b 289 33 185 74 221 33 b 358 74 321 33 346 49 l 375 67 "},"ŧ":{"ha":413,"x_min":0,"x_max":0,"o":"m 375 67 b 254 -18 353 15 307 -18 b 111 164 160 -18 111 43 l 111 394 l 33 394 l 33 428 l 111 428 l 111 586 l 29 586 l 29 606 b 165 785 76 653 119 699 l 185 785 l 185 621 l 368 621 l 368 586 l 185 586 l 185 428 l 368 428 l 368 394 l 185 394 l 185 156 b 289 33 185 74 221 33 b 358 74 321 33 346 49 l 375 67 "},"ť":{"ha":413,"x_min":0,"x_max":0,"o":"m 375 67 b 254 -18 353 15 307 -18 b 111 164 160 -18 111 43 l 111 586 l 29 586 l 29 606 b 165 785 76 653 119 699 l 185 785 l 185 621 l 368 621 l 368 586 l 185 586 l 185 156 b 289 33 185 74 221 33 b 358 74 321 33 346 49 l 375 67 m 299 950 l 381 950 l 290 703 l 275 703 "},"ţ":{"ha":413,"x_min":0,"x_max":0,"o":"m 375 67 b 254 -18 353 15 307 -18 b 228 -17 244 -18 236 -18 l 204 -83 b 326 -193 279 -99 326 -133 b 210 -294 326 -254 279 -294 b 99 -251 169 -294 133 -282 l 107 -240 b 182 -262 133 -256 158 -262 b 254 -203 222 -262 254 -242 b 161 -132 254 -168 229 -146 l 206 -11 b 111 164 143 7 111 67 l 111 586 l 29 586 l 29 606 b 165 785 76 653 119 699 l 185 785 l 185 621 l 368 621 l 368 586 l 185 586 l 185 156 b 289 33 185 74 221 33 b 358 74 321 33 346 49 l 375 67 "},"ț":{"ha":413,"x_min":0,"x_max":0,"o":"m 375 67 b 254 -18 353 15 307 -18 b 111 164 160 -18 111 43 l 111 586 l 29 586 l 29 606 b 165 785 76 653 119 699 l 185 785 l 185 621 l 368 621 l 368 586 l 185 586 l 185 156 b 289 33 185 74 221 33 b 358 74 321 33 346 49 l 375 67 m 163 -199 b 226 -135 163 -160 189 -135 b 294 -226 272 -135 294 -171 b 171 -368 294 -300 243 -358 l 171 -350 b 253 -254 215 -342 249 -311 b 224 -261 243 -258 232 -261 b 163 -199 189 -261 163 -232 "},"u":{"ha":707,"x_min":0,"x_max":0,"o":"m 671 36 l 671 17 l 514 -22 l 514 151 b 299 -21 476 36 396 -21 b 115 189 190 -21 115 47 l 115 517 b 51 582 115 560 97 579 l 29 583 l 29 603 l 189 642 l 189 194 b 324 35 189 81 249 35 b 513 264 413 35 513 99 l 513 517 b 449 582 513 560 494 579 l 426 583 l 426 603 l 586 642 l 586 104 b 650 38 586 61 604 42 "},"ú":{"ha":707,"x_min":0,"x_max":0,"o":"m 671 36 l 671 17 l 514 -22 l 514 151 b 299 -21 476 36 396 -21 b 115 189 190 -21 115 47 l 115 517 b 51 582 115 560 97 579 l 29 583 l 29 603 l 189 642 l 189 194 b 324 35 189 81 249 35 b 513 264 413 35 513 99 l 513 517 b 449 582 513 560 494 579 l 426 583 l 426 603 l 586 642 l 586 104 b 650 38 586 61 604 42 m 419 963 l 536 963 l 344 751 l 325 751 "},"ŭ":{"ha":707,"x_min":0,"x_max":0,"o":"m 671 36 l 671 17 l 514 -22 l 514 151 b 299 -21 476 36 396 -21 b 115 189 190 -21 115 47 l 115 517 b 51 582 115 560 97 579 l 29 583 l 29 603 l 189 642 l 189 194 b 324 35 189 81 249 35 b 513 264 413 35 513 99 l 513 517 b 449 582 513 560 494 579 l 426 583 l 426 603 l 586 642 l 586 104 b 650 38 586 61 604 42 m 211 950 b 347 819 215 853 271 819 b 485 950 424 819 481 853 l 500 950 b 347 757 501 821 446 757 b 194 950 249 757 193 821 "},"û":{"ha":707,"x_min":0,"x_max":0,"o":"m 671 36 l 671 17 l 514 -22 l 514 151 b 299 -21 476 36 396 -21 b 115 189 190 -21 115 47 l 115 517 b 51 582 115 560 97 579 l 29 583 l 29 603 l 189 642 l 189 194 b 324 35 189 81 249 35 b 513 264 413 35 513 99 l 513 517 b 449 582 513 560 494 579 l 426 583 l 426 603 l 586 642 l 586 104 b 650 38 586 61 604 42 m 300 935 l 394 935 l 533 751 l 515 751 l 347 875 l 176 751 l 158 751 "},"ü":{"ha":707,"x_min":0,"x_max":0,"o":"m 671 36 l 671 17 l 514 -22 l 514 151 b 299 -21 476 36 396 -21 b 115 189 190 -21 115 47 l 115 517 b 51 582 115 560 97 579 l 29 583 l 29 603 l 189 642 l 189 194 b 324 35 189 81 249 35 b 513 264 413 35 513 99 l 513 517 b 449 582 513 560 494 579 l 426 583 l 426 603 l 586 642 l 586 104 b 650 38 586 61 604 42 m 171 843 b 242 911 171 882 201 911 b 307 843 278 911 307 882 b 242 778 307 807 278 778 b 171 843 201 778 171 807 m 389 843 b 458 911 389 882 419 911 b 525 843 494 911 525 882 b 458 778 525 807 494 778 b 389 843 419 778 389 807 "},"ù":{"ha":707,"x_min":0,"x_max":0,"o":"m 671 36 l 671 17 l 514 -22 l 514 151 b 299 -21 476 36 396 -21 b 115 189 190 -21 115 47 l 115 517 b 51 582 115 560 97 579 l 29 583 l 29 603 l 189 642 l 189 194 b 324 35 189 81 249 35 b 513 264 413 35 513 99 l 513 517 b 449 582 513 560 494 579 l 426 583 l 426 603 l 586 642 l 586 104 b 650 38 586 61 604 42 m 297 963 l 392 751 l 372 751 l 181 963 "},"ű":{"ha":707,"x_min":0,"x_max":0,"o":"m 671 36 l 671 17 l 514 -22 l 514 151 b 299 -21 476 36 396 -21 b 115 189 190 -21 115 47 l 115 517 b 51 582 115 560 97 579 l 29 583 l 29 603 l 189 642 l 189 194 b 324 35 189 81 249 35 b 513 264 413 35 513 99 l 513 517 b 449 582 513 560 494 579 l 426 583 l 426 603 l 586 642 l 586 104 b 650 38 586 61 604 42 m 317 963 l 406 963 l 250 751 l 232 751 m 475 963 l 565 963 l 408 751 l 389 751 "},"ū":{"ha":707,"x_min":0,"x_max":0,"o":"m 671 36 l 671 17 l 514 -22 l 514 151 b 299 -21 476 36 396 -21 b 115 189 190 -21 115 47 l 115 517 b 51 582 115 560 97 579 l 29 583 l 29 603 l 189 642 l 189 194 b 324 35 189 81 249 35 b 513 264 413 35 513 99 l 513 517 b 449 582 513 560 494 579 l 426 583 l 426 603 l 586 642 l 586 104 b 650 38 586 61 604 42 m 172 839 l 522 839 l 522 806 l 172 806 "},"ų":{"ha":707,"x_min":0,"x_max":0,"o":"m 671 36 l 671 17 l 558 -11 b 456 -174 499 -51 456 -114 b 532 -251 456 -221 489 -251 b 633 -189 564 -251 604 -228 l 644 -194 b 515 -294 619 -254 567 -294 b 392 -189 439 -294 392 -251 b 514 -19 392 -122 440 -58 l 514 151 b 299 -21 476 36 396 -21 b 115 189 190 -21 115 47 l 115 517 b 51 582 115 560 97 579 l 29 583 l 29 603 l 189 642 l 189 194 b 324 35 189 81 249 35 b 513 264 413 35 513 99 l 513 517 b 449 582 513 560 494 579 l 426 583 l 426 603 l 586 642 l 586 104 b 650 38 586 61 604 42 "},"ů":{"ha":707,"x_min":0,"x_max":0,"o":"m 671 36 l 671 17 l 514 -22 l 514 151 b 299 -21 476 36 396 -21 b 115 189 190 -21 115 47 l 115 517 b 51 582 115 560 97 579 l 29 583 l 29 603 l 189 642 l 189 194 b 324 35 189 81 249 35 b 513 264 413 35 513 99 l 513 517 b 449 582 513 560 494 579 l 426 583 l 426 603 l 586 642 l 586 104 b 650 38 586 61 604 42 m 221 871 b 346 988 221 938 274 988 b 471 871 418 988 471 938 b 346 753 471 803 418 753 b 221 871 274 753 221 803 m 254 871 b 346 781 254 818 294 781 b 438 871 399 781 438 818 b 346 961 438 924 399 961 b 254 871 294 961 254 924 "},"ũ":{"ha":707,"x_min":0,"x_max":0,"o":"m 671 36 l 671 17 l 514 -22 l 514 151 b 299 -21 476 36 396 -21 b 115 189 190 -21 115 47 l 115 517 b 51 582 115 560 97 579 l 29 583 l 29 603 l 189 642 l 189 194 b 324 35 189 81 249 35 b 513 264 413 35 513 99 l 513 517 b 449 582 513 560 494 579 l 426 583 l 426 603 l 586 642 l 586 104 b 650 38 586 61 604 42 m 169 824 b 251 926 169 890 194 926 b 451 850 318 926 392 850 b 507 922 482 850 501 863 l 521 922 l 521 894 b 440 792 521 828 497 792 b 239 868 374 792 299 868 b 183 796 208 868 189 856 l 169 796 "},"v":{"ha":626,"x_min":0,"x_max":0,"o":"m 86 526 b -8 601 67 576 40 597 l -8 621 l 233 621 l 233 601 b 161 558 183 600 161 586 b 168 525 161 549 164 538 l 333 97 l 503 522 b 511 556 508 535 511 546 b 424 601 511 585 483 599 l 424 621 l 635 621 l 635 601 b 540 521 589 599 561 575 l 322 -19 l 303 -19 l 86 526 "},"w":{"ha":961,"x_min":0,"x_max":0,"o":"m 431 529 b 346 603 411 578 389 599 l 346 621 l 586 621 l 586 603 b 504 561 529 601 504 589 b 511 529 504 553 506 542 l 674 101 l 839 521 b 847 556 844 533 847 546 b 760 603 847 585 819 600 l 760 621 l 969 621 l 969 603 b 874 519 925 601 897 578 l 661 -19 l 644 -19 l 476 410 l 307 -19 l 289 -19 l 79 526 b -8 603 60 578 35 599 l -8 621 l 232 621 l 232 603 b 150 561 175 601 150 589 b 157 528 150 551 151 540 l 318 101 l 458 457 l 431 529 "},"ẃ":{"ha":961,"x_min":0,"x_max":0,"o":"m 431 529 b 346 603 411 578 389 599 l 346 621 l 586 621 l 586 603 b 504 561 529 601 504 589 b 511 529 504 553 506 542 l 674 101 l 839 521 b 847 556 844 533 847 546 b 760 603 847 585 819 600 l 760 621 l 969 621 l 969 603 b 874 519 925 601 897 578 l 661 -19 l 644 -19 l 476 410 l 307 -19 l 289 -19 l 79 526 b -8 603 60 578 35 599 l -8 621 l 232 621 l 232 603 b 150 561 175 601 150 589 b 157 528 150 551 151 540 l 318 101 l 458 457 l 431 529 m 550 963 l 667 963 l 475 751 l 456 751 "},"ŵ":{"ha":961,"x_min":0,"x_max":0,"o":"m 431 529 b 346 603 411 578 389 599 l 346 621 l 586 621 l 586 603 b 504 561 529 601 504 589 b 511 529 504 553 506 542 l 674 101 l 839 521 b 847 556 844 533 847 546 b 760 603 847 585 819 600 l 760 621 l 969 621 l 969 603 b 874 519 925 601 897 578 l 661 -19 l 644 -19 l 476 410 l 307 -19 l 289 -19 l 79 526 b -8 603 60 578 35 599 l -8 621 l 232 621 l 232 603 b 150 561 175 601 150 589 b 157 528 150 551 151 540 l 318 101 l 458 457 l 431 529 m 432 935 l 526 935 l 665 751 l 647 751 l 479 875 l 308 751 l 290 751 "},"ẅ":{"ha":961,"x_min":0,"x_max":0,"o":"m 431 529 b 346 603 411 578 389 599 l 346 621 l 586 621 l 586 603 b 504 561 529 601 504 589 b 511 529 504 553 506 542 l 674 101 l 839 521 b 847 556 844 533 847 546 b 760 603 847 585 819 600 l 760 621 l 969 621 l 969 603 b 874 519 925 601 897 578 l 661 -19 l 644 -19 l 476 410 l 307 -19 l 289 -19 l 79 526 b -8 603 60 578 35 599 l -8 621 l 232 621 l 232 603 b 150 561 175 601 150 589 b 157 528 150 551 151 540 l 318 101 l 458 457 l 431 529 m 303 843 b 374 911 303 882 333 911 b 439 843 410 911 439 882 b 374 778 439 807 410 778 b 303 843 333 778 303 807 m 521 843 b 590 911 521 882 551 911 b 657 843 626 911 657 882 b 590 778 657 807 626 778 b 521 843 551 778 521 807 "},"ẁ":{"ha":961,"x_min":0,"x_max":0,"o":"m 431 529 b 346 603 411 578 389 599 l 346 621 l 586 621 l 586 603 b 504 561 529 601 504 589 b 511 529 504 553 506 542 l 674 101 l 839 521 b 847 556 844 533 847 546 b 760 603 847 585 819 600 l 760 621 l 969 621 l 969 603 b 874 519 925 601 897 578 l 661 -19 l 644 -19 l 476 410 l 307 -19 l 289 -19 l 79 526 b -8 603 60 578 35 599 l -8 621 l 232 621 l 232 603 b 150 561 175 601 150 589 b 157 528 150 551 151 540 l 318 101 l 458 457 l 431 529 m 429 963 l 524 751 l 504 751 l 313 963 "},"x":{"ha":690,"x_min":0,"x_max":0,"o":"m 428 18 b 492 50 471 21 492 31 b 471 94 492 61 485 76 l 328 286 l 181 100 b 157 53 165 81 157 65 b 232 18 157 32 182 21 l 232 0 l 19 0 l 19 18 b 138 103 57 21 93 47 l 306 315 l 146 528 b 33 603 108 578 75 600 l 33 621 l 276 621 l 276 603 b 215 574 235 601 215 592 b 238 528 215 563 222 547 l 363 363 l 490 522 b 513 569 506 542 513 558 b 442 603 513 590 492 600 l 442 621 l 654 621 l 654 603 b 531 519 611 600 574 575 l 383 333 l 564 94 b 672 18 603 43 635 21 l 672 0 l 428 0 l 428 18 "},"y":{"ha":613,"x_min":0,"x_max":0,"o":"m -7 -183 b 103 -224 32 -214 72 -224 b 260 -56 167 -224 214 -171 l 283 4 l 78 519 b -10 601 56 574 29 599 l -10 621 l 231 621 l 231 601 b 149 556 175 599 149 585 b 156 525 149 547 150 538 l 322 101 l 488 514 b 497 554 494 529 497 543 b 408 601 497 586 469 600 l 408 621 l 622 621 l 622 601 b 525 513 578 599 551 574 l 293 -64 b 46 -294 228 -226 158 -294 b -46 -269 18 -294 -14 -285 l -7 -183 "},"ý":{"ha":613,"x_min":0,"x_max":0,"o":"m -7 -183 b 103 -224 32 -214 72 -224 b 260 -56 167 -224 214 -171 l 283 4 l 78 519 b -10 601 56 574 29 599 l -10 621 l 231 621 l 231 601 b 149 556 175 599 149 585 b 156 525 149 547 150 538 l 322 101 l 488 514 b 497 554 494 529 497 543 b 408 601 497 586 469 600 l 408 621 l 622 621 l 622 601 b 525 513 578 599 551 574 l 293 -64 b 46 -294 228 -226 158 -294 b -46 -269 18 -294 -14 -285 l -7 -183 m 375 963 l 492 963 l 300 751 l 281 751 "},"ŷ":{"ha":613,"x_min":0,"x_max":0,"o":"m -7 -183 b 103 -224 32 -214 72 -224 b 260 -56 167 -224 214 -171 l 283 4 l 78 519 b -10 601 56 574 29 599 l -10 621 l 231 621 l 231 601 b 149 556 175 599 149 585 b 156 525 149 547 150 538 l 322 101 l 488 514 b 497 554 494 529 497 543 b 408 601 497 586 469 600 l 408 621 l 622 621 l 622 601 b 525 513 578 599 551 574 l 293 -64 b 46 -294 228 -226 158 -294 b -46 -269 18 -294 -14 -285 l -7 -183 m 257 935 l 351 935 l 490 751 l 472 751 l 304 875 l 133 751 l 115 751 "},"ÿ":{"ha":613,"x_min":0,"x_max":0,"o":"m -7 -183 b 103 -224 32 -214 72 -224 b 260 -56 167 -224 214 -171 l 283 4 l 78 519 b -10 601 56 574 29 599 l -10 621 l 231 621 l 231 601 b 149 556 175 599 149 585 b 156 525 149 547 150 538 l 322 101 l 488 514 b 497 554 494 529 497 543 b 408 601 497 586 469 600 l 408 621 l 622 621 l 622 601 b 525 513 578 599 551 574 l 293 -64 b 46 -294 228 -226 158 -294 b -46 -269 18 -294 -14 -285 l -7 -183 m 128 843 b 199 911 128 882 158 911 b 264 843 235 911 264 882 b 199 778 264 807 235 778 b 128 843 158 778 128 807 m 346 843 b 415 911 346 882 376 911 b 482 843 451 911 482 882 b 415 778 482 807 451 778 b 346 843 376 778 346 807 "},"ỳ":{"ha":613,"x_min":0,"x_max":0,"o":"m -7 -183 b 103 -224 32 -214 72 -224 b 260 -56 167 -224 214 -171 l 283 4 l 78 519 b -10 601 56 574 29 599 l -10 621 l 231 621 l 231 601 b 149 556 175 599 149 585 b 156 525 149 547 150 538 l 322 101 l 488 514 b 497 554 494 529 497 543 b 408 601 497 586 469 600 l 408 621 l 622 621 l 622 601 b 525 513 578 599 551 574 l 293 -64 b 46 -294 228 -226 158 -294 b -46 -269 18 -294 -14 -285 l -7 -183 m 254 963 l 349 751 l 329 751 l 138 963 "},"z":{"ha":626,"x_min":0,"x_max":0,"o":"m 65 19 l 457 586 l 236 586 b 90 421 161 586 121 538 l 71 421 l 104 621 l 556 621 l 556 601 l 164 35 l 396 35 b 542 203 472 35 513 85 l 561 203 l 528 0 l 65 0 "},"ź":{"ha":626,"x_min":0,"x_max":0,"o":"m 65 19 l 457 586 l 236 586 b 90 421 161 586 121 538 l 71 421 l 104 621 l 556 621 l 556 601 l 164 35 l 396 35 b 542 203 472 35 513 85 l 561 203 l 528 0 l 65 0 m 404 963 l 521 963 l 329 751 l 310 751 "},"ž":{"ha":626,"x_min":0,"x_max":0,"o":"m 65 19 l 457 586 l 236 586 b 90 421 161 586 121 538 l 71 421 l 104 621 l 556 621 l 556 601 l 164 35 l 396 35 b 542 203 472 35 513 85 l 561 203 l 528 0 l 65 0 m 161 949 l 332 825 l 500 949 l 518 949 l 379 765 l 285 765 l 143 949 "},"ż":{"ha":626,"x_min":0,"x_max":0,"o":"m 65 19 l 457 586 l 236 586 b 90 421 161 586 121 538 l 71 421 l 104 621 l 556 621 l 556 601 l 164 35 l 396 35 b 542 203 472 35 513 85 l 561 203 l 528 0 l 65 0 m 264 885 b 333 951 264 922 294 951 b 399 885 369 951 399 922 b 333 819 399 849 369 819 b 264 885 294 819 264 849 "},"ª":{"ha":457,"x_min":0,"x_max":0,"o":"m 300 838 b 219 921 300 888 267 921 b 140 839 169 921 140 886 b 146 804 140 828 142 817 l 67 804 b 224 947 69 883 126 947 b 371 808 315 947 371 892 l 371 617 b 408 576 371 592 381 581 l 428 574 l 428 558 l 301 525 l 301 619 l 301 625 b 175 526 281 558 236 526 b 67 628 115 526 67 558 b 199 754 67 713 133 735 b 300 838 250 769 300 785 m 142 644 b 204 572 142 593 171 572 b 300 681 253 572 300 608 l 300 782 b 233 739 289 760 264 751 b 142 644 160 713 142 688 "},"º":{"ha":471,"x_min":0,"x_max":0,"o":"m 235 526 b 53 736 126 526 53 611 b 235 947 53 861 126 947 b 418 736 344 947 418 860 b 235 526 418 611 344 526 m 129 736 b 235 553 129 618 169 553 b 342 736 301 553 342 619 b 235 921 342 854 301 921 b 129 736 169 921 129 854 "},"Δ":{"ha":879,"x_min":0,"x_max":0,"o":"m 60 22 l 429 949 l 449 949 l 819 22 l 819 0 l 60 0 m 718 39 l 413 808 l 108 39 "},"Ω":{"ha":1046,"x_min":0,"x_max":0,"o":"m 336 0 b 131 -15 267 0 197 -1 l 93 221 l 111 221 b 329 63 144 106 203 63 l 422 63 l 422 147 b 75 560 233 167 75 336 b 524 949 75 800 256 949 b 971 560 790 949 971 800 b 625 147 971 340 818 167 l 625 61 l 717 61 b 936 219 843 61 903 104 l 953 219 l 917 -17 b 710 -1 850 -3 781 -1 l 589 -1 l 589 188 b 874 561 732 188 874 346 b 524 908 874 776 735 908 b 172 561 311 908 172 776 b 458 188 172 346 314 188 l 458 0 "},"μ":{"ha":707,"x_min":0,"x_max":0,"o":"m 671 36 l 671 17 l 514 -22 l 514 151 b 299 -21 476 36 396 -21 b 133 83 222 -21 163 13 b 210 -274 138 -83 165 -174 l 113 -274 b 115 172 113 -162 115 -26 l 115 189 l 115 517 b 51 582 115 560 97 579 l 29 583 l 29 603 l 189 642 l 189 194 b 324 35 189 81 249 35 b 513 264 413 35 513 99 l 513 517 b 449 582 513 560 494 579 l 426 583 l 426 603 l 586 642 l 586 104 b 650 38 586 61 604 42 "},"π":{"ha":761,"x_min":0,"x_max":0,"o":"m 56 19 b 149 92 122 28 149 47 l 149 586 l 29 586 l 29 621 l 743 621 l 743 586 l 604 586 l 604 135 b 713 19 604 64 621 29 l 713 0 b 668 -3 696 -3 682 -3 b 532 146 568 -3 532 54 l 532 586 l 221 586 l 221 92 b 311 19 221 47 254 26 l 311 0 l 56 0 l 56 19 "},"⓿":{"ha":1106,"x_min":0,"x_max":0,"o":"m 551 -19 b 1036 464 818 -19 1036 199 b 551 947 1036 729 818 947 b 69 464 286 947 69 729 b 551 -19 69 199 286 -19 m 351 465 b 554 731 351 622 433 731 b 757 465 674 731 757 622 b 554 199 757 307 674 199 b 351 465 433 199 351 308 m 436 465 b 554 219 436 308 479 219 b 671 465 629 219 671 308 b 554 711 671 624 628 711 b 436 465 479 711 436 624 "},"❶":{"ha":1106,"x_min":0,"x_max":0,"o":"m 551 -19 b 1036 464 818 -19 1036 199 b 551 947 1036 729 818 947 b 69 464 286 947 69 729 b 551 -19 69 199 286 -19 m 440 218 b 524 274 514 222 524 239 l 525 638 l 440 638 l 440 649 b 594 722 508 667 554 686 l 604 722 l 604 274 b 671 218 604 231 625 222 l 671 207 l 440 207 "},"❷":{"ha":1106,"x_min":0,"x_max":0,"o":"m 551 -19 b 1036 464 818 -19 1036 199 b 551 947 1036 729 818 947 b 69 464 286 947 69 729 b 551 -19 69 199 286 -19 m 369 218 l 410 260 b 640 601 536 392 640 490 b 550 708 640 664 606 708 b 464 607 499 708 464 668 b 474 546 464 588 467 568 l 383 546 b 382 569 382 554 382 563 b 551 729 382 683 468 729 b 726 579 653 729 726 667 b 453 281 726 460 593 376 l 625 281 b 735 363 692 281 718 296 l 746 363 l 724 207 l 369 207 "},"❸":{"ha":1106,"x_min":0,"x_max":0,"o":"m 551 -19 b 1036 464 818 -19 1036 199 b 551 947 1036 729 818 947 b 69 464 286 947 69 729 b 551 -19 69 199 286 -19 m 449 353 b 444 322 446 343 444 332 b 544 221 444 267 485 221 b 651 339 606 221 651 265 b 531 463 651 410 610 463 b 489 458 518 463 504 461 l 485 471 l 642 644 l 538 644 b 396 550 458 644 415 626 l 386 550 l 407 729 b 535 719 444 722 489 719 l 740 719 l 740 710 l 531 483 b 592 492 553 489 572 492 b 738 354 683 492 738 425 b 544 199 738 265 657 199 b 367 353 447 199 360 251 "},"❹":{"ha":1106,"x_min":0,"x_max":0,"o":"m 551 -19 b 1036 464 818 -19 1036 199 b 551 947 1036 729 818 947 b 69 464 286 947 69 729 b 551 -19 69 199 286 -19 m 322 350 l 571 717 l 638 717 l 638 379 l 728 379 l 728 340 l 638 340 l 638 289 b 706 218 638 242 651 222 l 706 207 l 469 207 l 469 218 b 557 289 531 222 557 240 l 557 340 l 322 340 m 557 379 l 557 660 l 365 379 "},"❺":{"ha":1106,"x_min":0,"x_max":0,"o":"m 551 -19 b 1036 464 818 -19 1036 199 b 551 947 1036 729 818 947 b 69 464 286 947 69 729 b 551 -19 69 199 286 -19 m 456 353 b 451 317 453 340 451 328 b 543 221 451 253 490 221 b 642 336 603 221 642 264 b 478 471 642 418 582 471 b 403 463 456 471 431 468 l 394 469 l 446 719 l 710 719 l 710 646 l 453 646 l 424 506 b 532 522 461 517 497 522 b 726 357 642 522 726 465 b 543 199 726 261 651 199 b 374 353 438 199 368 254 "},"❻":{"ha":1106,"x_min":0,"x_max":0,"o":"m 551 -19 b 1036 464 818 -19 1036 199 b 551 947 1036 729 818 947 b 69 464 286 947 69 729 b 551 -19 69 199 286 -19 m 351 458 b 574 731 351 663 474 731 b 738 589 643 731 733 697 l 651 589 b 565 710 657 669 613 710 b 436 449 485 710 432 608 b 572 533 456 504 500 533 b 738 369 672 533 738 463 b 554 197 738 264 658 197 b 351 458 426 197 351 294 m 444 368 b 551 218 444 282 488 218 b 654 363 613 218 654 276 b 547 503 654 451 611 503 b 444 368 483 503 444 453 "},"❼":{"ha":1106,"x_min":0,"x_max":0,"o":"m 551 -19 b 1036 464 818 -19 1036 199 b 551 947 1036 729 818 947 b 69 464 286 947 69 729 b 551 -19 69 199 286 -19 m 400 726 b 528 717 440 719 488 717 l 743 717 l 743 707 b 572 251 636 579 572 436 b 574 207 572 238 572 222 l 483 207 b 482 239 483 218 482 229 b 675 642 482 417 569 536 l 531 642 b 390 547 450 642 408 624 l 379 547 "},"❽":{"ha":1106,"x_min":0,"x_max":0,"o":"m 551 -19 b 1036 464 818 -19 1036 199 b 551 947 1036 729 818 947 b 69 464 286 947 69 729 b 551 -19 69 199 286 -19 m 364 326 b 481 456 364 381 403 431 b 378 594 424 482 378 517 b 556 731 378 676 451 731 b 728 608 657 731 728 678 b 621 492 728 557 692 517 b 743 340 686 467 743 431 b 553 197 743 260 675 197 b 364 326 446 197 364 246 m 433 338 b 554 218 433 264 485 218 b 667 313 619 218 667 258 b 503 446 667 393 581 414 b 433 338 447 415 433 372 m 456 624 b 597 503 456 549 526 528 b 663 601 651 533 663 571 b 554 710 663 669 618 710 b 456 624 496 710 456 674 "},"❾":{"ha":1106,"x_min":0,"x_max":0,"o":"m 551 -19 b 1036 464 818 -19 1036 199 b 551 947 1036 729 818 947 b 69 464 286 947 69 729 b 551 -19 69 199 286 -19 m 453 339 b 539 218 447 258 492 218 b 668 479 619 218 672 319 b 532 394 649 424 604 394 b 367 558 432 394 367 465 b 550 731 367 664 446 731 b 753 469 678 731 753 633 b 531 197 753 265 631 197 b 367 339 461 197 371 231 m 450 565 b 557 425 450 476 493 425 b 660 560 621 425 660 475 b 553 710 660 646 617 710 b 450 565 492 710 450 651 "},"⓪":{"ha":1106,"x_min":0,"x_max":0,"o":"m 551 -19 b 69 464 286 -19 69 199 b 551 947 69 729 286 947 b 1036 464 818 947 1036 729 b 551 -19 1036 199 818 -19 m 101 463 b 550 13 101 214 303 13 b 1004 463 799 13 1004 214 b 550 915 1004 713 799 915 b 101 463 303 915 101 713 m 349 465 b 551 731 349 622 431 731 b 754 465 671 731 754 622 b 551 199 754 307 671 199 b 349 465 431 199 349 308 m 433 465 b 551 219 433 308 476 219 b 668 465 626 219 668 308 b 551 711 668 624 625 711 b 433 465 476 711 433 624 "},"①":{"ha":1106,"x_min":0,"x_max":0,"o":"m 551 -19 b 69 464 286 -19 69 199 b 551 947 69 729 286 947 b 1036 464 818 947 1036 729 b 551 -19 1036 199 818 -19 m 101 463 b 550 13 101 214 303 13 b 1004 463 799 13 1004 214 b 550 915 1004 713 799 915 b 101 463 303 915 101 713 m 428 218 b 511 274 501 222 511 239 l 513 638 l 428 638 l 428 649 b 582 722 496 667 542 686 l 592 722 l 592 274 b 658 218 592 231 613 222 l 658 207 l 428 207 "},"②":{"ha":1106,"x_min":0,"x_max":0,"o":"m 551 -19 b 69 464 286 -19 69 199 b 551 947 69 729 286 947 b 1036 464 818 947 1036 729 b 551 -19 1036 199 818 -19 m 101 463 b 550 13 101 214 303 13 b 1004 463 799 13 1004 214 b 550 915 1004 713 799 915 b 101 463 303 915 101 713 m 357 218 l 397 260 b 628 601 524 392 628 490 b 538 708 628 664 593 708 b 451 607 486 708 451 668 b 461 546 451 588 454 568 l 371 546 b 369 569 369 554 369 563 b 539 729 369 683 456 729 b 714 579 640 729 714 667 b 440 281 714 460 581 376 l 613 281 b 722 363 679 281 706 296 l 733 363 l 711 207 l 357 207 "},"③":{"ha":1106,"x_min":0,"x_max":0,"o":"m 551 -19 b 69 464 286 -19 69 199 b 551 947 69 729 286 947 b 1036 464 818 947 1036 729 b 551 -19 1036 199 818 -19 m 101 463 b 550 13 101 214 303 13 b 1004 463 799 13 1004 214 b 550 915 1004 713 799 915 b 101 463 303 915 101 713 m 443 353 b 439 322 440 343 439 332 b 539 221 439 267 479 221 b 646 339 600 221 646 265 b 525 463 646 410 604 463 b 483 458 513 463 499 461 l 479 471 l 636 644 l 532 644 b 390 550 453 644 410 626 l 381 550 l 401 729 b 529 719 439 722 483 719 l 735 719 l 735 710 l 525 483 b 586 492 547 489 567 492 b 732 354 678 492 732 425 b 539 199 732 265 651 199 b 361 353 442 199 354 251 "},"④":{"ha":1106,"x_min":0,"x_max":0,"o":"m 551 -19 b 69 464 286 -19 69 199 b 551 947 69 729 286 947 b 1036 464 818 947 1036 729 b 551 -19 1036 199 818 -19 m 101 463 b 550 13 101 214 303 13 b 1004 463 799 13 1004 214 b 550 915 1004 713 799 915 b 101 463 303 915 101 713 m 313 350 l 561 717 l 628 717 l 628 379 l 718 379 l 718 340 l 628 340 l 628 289 b 696 218 628 242 642 222 l 696 207 l 460 207 l 460 218 b 547 289 521 222 547 240 l 547 340 l 313 340 m 547 379 l 547 660 l 356 379 "},"⑤":{"ha":1106,"x_min":0,"x_max":0,"o":"m 551 -19 b 69 464 286 -19 69 199 b 551 947 69 729 286 947 b 1036 464 818 947 1036 729 b 551 -19 1036 199 818 -19 m 101 463 b 550 13 101 214 303 13 b 1004 463 799 13 1004 214 b 550 915 1004 713 799 915 b 101 463 303 915 101 713 m 443 353 b 439 317 440 340 439 328 b 531 221 439 253 478 221 b 629 336 590 221 629 264 b 465 471 629 418 569 471 b 390 463 443 471 418 468 l 382 469 l 433 719 l 697 719 l 697 646 l 440 646 l 411 506 b 519 522 449 517 485 522 b 714 357 629 522 714 465 b 531 199 714 261 639 199 b 361 353 425 199 356 254 "},"⑥":{"ha":1106,"x_min":0,"x_max":0,"o":"m 551 -19 b 69 464 286 -19 69 199 b 551 947 69 729 286 947 b 1036 464 818 947 1036 729 b 551 -19 1036 199 818 -19 m 101 463 b 550 13 101 214 303 13 b 1004 463 799 13 1004 214 b 550 915 1004 713 799 915 b 101 463 303 915 101 713 m 351 458 b 574 731 351 663 474 731 b 738 589 643 731 733 697 l 651 589 b 565 710 657 669 613 710 b 436 449 485 710 432 608 b 572 533 456 504 500 533 b 738 369 672 533 738 463 b 554 197 738 264 658 197 b 351 458 426 197 351 294 m 444 368 b 551 218 444 282 488 218 b 654 363 613 218 654 276 b 547 503 654 451 611 503 b 444 368 483 503 444 453 "},"⑦":{"ha":1106,"x_min":0,"x_max":0,"o":"m 551 -19 b 69 464 286 -19 69 199 b 551 947 69 729 286 947 b 1036 464 818 947 1036 729 b 551 -19 1036 199 818 -19 m 101 463 b 550 13 101 214 303 13 b 1004 463 799 13 1004 214 b 550 915 1004 713 799 915 b 101 463 303 915 101 713 m 400 726 b 528 717 440 719 488 717 l 743 717 l 743 707 b 572 251 636 579 572 436 b 574 207 572 238 572 222 l 483 207 b 482 239 483 218 482 229 b 675 642 482 417 569 536 l 531 642 b 390 547 450 642 408 624 l 379 547 "},"⑧":{"ha":1106,"x_min":0,"x_max":0,"o":"m 551 -19 b 69 464 286 -19 69 199 b 551 947 69 729 286 947 b 1036 464 818 947 1036 729 b 551 -19 1036 199 818 -19 m 101 463 b 550 13 101 214 303 13 b 1004 463 799 13 1004 214 b 550 915 1004 713 799 915 b 101 463 303 915 101 713 m 364 326 b 481 456 364 381 403 431 b 378 594 424 482 378 517 b 556 731 378 676 451 731 b 728 608 657 731 728 678 b 621 492 728 557 692 517 b 743 340 686 467 743 431 b 553 197 743 260 675 197 b 364 326 446 197 364 246 m 433 338 b 554 218 433 264 485 218 b 667 313 619 218 667 258 b 503 446 667 393 581 414 b 433 338 447 415 433 372 m 456 624 b 597 503 456 549 526 528 b 663 601 651 533 663 571 b 554 710 663 669 618 710 b 456 624 496 710 456 674 "},"⑨":{"ha":1106,"x_min":0,"x_max":0,"o":"m 551 -19 b 69 464 286 -19 69 199 b 551 947 69 729 286 947 b 1036 464 818 947 1036 729 b 551 -19 1036 199 818 -19 m 101 463 b 550 13 101 214 303 13 b 1004 463 799 13 1004 214 b 550 915 1004 713 799 915 b 101 463 303 915 101 713 m 453 339 b 539 218 447 258 492 218 b 668 479 619 218 672 319 b 532 394 649 424 604 394 b 367 558 432 394 367 465 b 550 731 367 664 446 731 b 753 469 678 731 753 633 b 531 197 753 265 631 197 b 367 339 461 197 371 231 m 450 565 b 557 425 450 476 493 425 b 660 560 621 425 660 475 b 553 710 660 646 617 710 b 450 565 492 710 450 651 "},"⁰":{"ha":486,"x_min":0,"x_max":0,"o":"m 243 485 b 40 751 122 485 40 594 b 243 1017 40 908 122 1017 b 446 751 363 1017 446 908 b 243 485 446 593 363 485 m 125 751 b 243 506 125 594 168 506 b 360 751 318 506 360 594 b 243 997 360 910 317 997 b 125 751 168 997 125 910 "},"¹":{"ha":274,"x_min":0,"x_max":0,"o":"m 29 507 b 113 563 103 511 113 528 l 114 926 l 29 926 l 29 938 b 183 1011 97 956 143 975 l 193 1011 l 193 563 b 260 507 193 519 214 511 l 260 496 l 29 496 l 29 507 "},"²":{"ha":453,"x_min":0,"x_max":0,"o":"m 33 507 l 74 549 b 304 890 200 681 304 779 b 214 997 304 953 269 997 b 128 896 163 997 128 957 b 138 835 128 876 131 857 l 47 835 b 46 858 46 843 46 851 b 215 1018 46 972 132 1018 b 390 868 317 1018 390 956 b 117 569 390 749 257 665 l 289 569 b 399 651 356 569 382 585 l 410 651 l 388 496 l 33 496 "},"³":{"ha":444,"x_min":0,"x_max":0,"o":"m 217 485 b 39 639 119 485 32 538 l 121 639 b 117 608 118 629 117 618 b 217 507 117 553 157 507 b 324 625 278 507 324 551 b 203 749 324 696 282 749 b 161 744 190 749 176 747 l 157 757 l 314 931 l 210 931 b 68 836 131 931 88 913 l 58 836 l 79 1015 b 207 1006 117 1008 161 1006 l 413 1006 l 413 996 l 203 769 b 264 778 225 775 244 778 b 410 640 356 778 410 711 b 217 485 410 551 329 485 "},"⁴":{"ha":442,"x_min":0,"x_max":0,"o":"m 415 629 l 325 629 l 325 578 b 393 507 325 531 339 511 l 393 496 l 157 496 l 157 507 b 244 578 218 511 244 529 l 244 629 l 10 629 l 10 639 l 258 1006 l 325 1006 l 325 668 l 415 668 m 244 668 l 244 949 l 53 668 "},"⁵":{"ha":417,"x_min":0,"x_max":0,"o":"m 103 1006 l 367 1006 l 367 932 l 110 932 l 81 792 b 189 808 118 803 154 808 b 383 643 299 808 383 751 b 200 485 383 547 308 485 b 31 639 94 485 25 540 l 113 639 b 108 603 110 626 108 614 b 200 507 108 539 147 507 b 299 622 260 507 299 550 b 135 757 299 704 239 757 b 60 749 113 757 88 754 l 51 756 "},"⁶":{"ha":468,"x_min":0,"x_max":0,"o":"m 240 485 b 38 746 113 485 38 582 b 260 1018 38 950 160 1018 b 424 876 329 1018 419 985 l 338 876 b 251 997 343 957 299 997 b 122 736 171 997 118 896 b 258 821 142 792 186 821 b 424 657 358 821 424 750 b 240 485 424 551 344 485 m 131 656 b 238 506 131 569 174 506 b 340 650 299 506 340 564 b 233 790 340 739 297 790 b 131 656 169 790 131 740 "},"⁷":{"ha":394,"x_min":0,"x_max":0,"o":"m 388 996 b 217 540 281 868 217 725 b 218 496 217 526 217 511 l 128 496 b 126 528 128 507 126 518 b 319 931 126 706 214 825 l 175 931 b 35 836 94 931 53 913 l 24 836 l 44 1015 b 172 1006 85 1008 132 1006 l 388 1006 l 388 996 "},"⁸":{"ha":454,"x_min":0,"x_max":0,"o":"m 226 485 b 38 614 119 485 38 533 b 154 743 38 668 76 718 b 51 882 97 769 51 804 b 229 1018 51 964 125 1018 b 401 896 331 1018 401 965 b 294 779 401 844 365 804 b 417 628 360 754 417 718 b 226 485 417 547 349 485 m 107 625 b 228 506 107 551 158 506 b 340 600 293 506 340 546 b 176 733 340 681 254 701 b 107 625 121 703 107 660 m 129 911 b 271 790 129 836 200 815 b 336 889 325 821 336 858 b 228 997 336 957 292 997 b 129 911 169 997 129 961 "},"⁹":{"ha":468,"x_min":0,"x_max":0,"o":"m 228 1017 b 431 756 356 1017 431 919 b 208 483 431 551 308 483 b 44 625 139 483 49 517 l 131 625 b 217 504 125 544 169 504 b 346 765 297 504 350 606 b 210 681 326 710 282 681 b 44 844 110 681 44 751 b 228 1017 44 950 124 1017 m 128 851 b 235 711 128 763 171 711 b 338 846 299 711 338 761 b 231 996 338 932 294 996 b 128 851 169 996 128 938 "},"⁄":{"ha":222,"x_min":0,"x_max":0,"o":"m -175 0 l 357 928 l 396 928 l -137 0 "},"½":{"ha":1003,"x_min":0,"x_max":0,"o":"m 29 368 b 113 424 103 372 113 389 l 114 788 l 29 788 l 29 799 b 183 872 97 817 143 836 l 193 872 l 193 424 b 260 368 193 381 214 372 l 260 357 l 29 357 l 29 368 m 686 928 l 725 928 l 192 0 l 154 0 m 585 11 l 625 53 b 856 394 751 185 856 283 b 765 501 856 457 821 501 b 679 400 714 501 679 461 b 689 339 679 381 682 361 l 599 339 b 597 363 597 347 597 356 b 767 522 597 476 683 522 b 942 372 868 522 942 460 b 668 74 942 253 808 169 l 840 74 b 950 156 907 74 933 89 l 961 156 l 939 0 l 585 0 "},"¼":{"ha":901,"x_min":0,"x_max":0,"o":"m 29 368 b 113 424 103 372 113 389 l 114 788 l 29 788 l 29 799 b 183 872 97 817 143 836 l 193 872 l 193 424 b 260 368 193 381 214 372 l 260 357 l 29 357 l 29 368 m 686 928 l 725 928 l 192 0 l 154 0 m 469 143 l 718 510 l 785 510 l 785 172 l 875 172 l 875 133 l 785 133 l 785 82 b 853 11 785 35 799 15 l 853 0 l 617 0 l 617 11 b 704 82 678 15 704 33 l 704 133 l 469 133 m 704 172 l 704 453 l 513 172 "},"¾":{"ha":1017,"x_min":0,"x_max":0,"o":"m 217 346 b 39 500 119 346 32 399 l 121 500 b 117 469 118 490 117 479 b 217 368 117 414 157 368 b 324 486 278 368 324 413 b 203 610 324 557 282 610 b 161 606 190 610 176 608 l 157 618 l 314 792 l 210 792 b 68 697 131 792 88 774 l 58 697 l 79 876 b 207 867 117 869 161 867 l 413 867 l 413 857 l 203 631 b 264 639 225 636 244 639 b 410 501 356 639 410 572 b 217 346 410 413 329 346 m 801 928 l 840 928 l 307 0 l 269 0 m 585 143 l 833 510 l 900 510 l 900 172 l 990 172 l 990 133 l 900 133 l 900 82 b 968 11 900 35 914 15 l 968 0 l 732 0 l 732 11 b 819 82 793 15 819 33 l 819 133 l 585 133 m 819 172 l 819 453 l 628 172 "},"⅛":{"ha":1006,"x_min":0,"x_max":0,"o":"m 29 368 b 113 424 103 372 113 389 l 114 788 l 29 788 l 29 799 b 183 872 97 817 143 836 l 193 872 l 193 424 b 260 368 193 381 214 372 l 260 357 l 29 357 l 29 368 m 686 928 l 725 928 l 192 0 l 154 0 m 589 118 b 706 247 589 172 628 222 b 603 386 649 274 603 308 b 781 522 603 468 676 522 b 953 400 882 522 953 469 b 846 283 953 349 917 308 b 968 132 911 258 968 222 b 778 -11 968 51 900 -11 b 589 118 671 -11 589 38 m 658 129 b 779 10 658 56 710 10 b 892 104 844 10 892 50 b 728 238 892 185 806 206 b 658 129 672 207 658 164 m 681 415 b 822 294 681 340 751 319 b 888 393 876 325 888 363 b 779 501 888 461 843 501 b 681 415 721 501 681 465 "},"⅜":{"ha":1121,"x_min":0,"x_max":0,"o":"m 217 346 b 39 500 119 346 32 399 l 121 500 b 117 469 118 490 117 479 b 217 368 117 414 157 368 b 324 486 278 368 324 413 b 203 610 324 557 282 610 b 161 606 190 610 176 608 l 157 618 l 314 792 l 210 792 b 68 697 131 792 88 774 l 58 697 l 79 876 b 207 867 117 869 161 867 l 413 867 l 413 857 l 203 631 b 264 639 225 636 244 639 b 410 501 356 639 410 572 b 217 346 410 413 329 346 m 801 928 l 840 928 l 307 0 l 269 0 m 704 118 b 821 247 704 172 743 222 b 718 386 764 274 718 308 b 896 522 718 468 792 522 b 1068 400 997 522 1068 469 b 961 283 1068 349 1032 308 b 1083 132 1026 258 1083 222 b 893 -11 1083 51 1015 -11 b 704 118 786 -11 704 38 m 774 129 b 894 10 774 56 825 10 b 1007 104 960 10 1007 50 b 843 238 1007 185 921 206 b 774 129 788 207 774 164 m 796 415 b 938 294 796 340 867 319 b 1003 393 992 325 1003 363 b 894 501 1003 461 958 501 b 796 415 836 501 796 465 "},"⅝":{"ha":1121,"x_min":0,"x_max":0,"o":"m 103 867 l 367 867 l 367 793 l 110 793 l 81 653 b 189 669 118 664 154 669 b 383 504 299 669 383 613 b 200 346 383 408 308 346 b 31 500 94 346 25 401 l 113 500 b 108 464 110 488 108 475 b 200 368 108 400 147 368 b 299 483 260 368 299 411 b 135 618 299 565 239 618 b 60 610 113 618 88 615 l 51 617 m 801 928 l 840 928 l 307 0 l 269 0 m 704 118 b 821 247 704 172 743 222 b 718 386 764 274 718 308 b 896 522 718 468 792 522 b 1068 400 997 522 1068 469 b 961 283 1068 349 1032 308 b 1083 132 1026 258 1083 222 b 893 -11 1083 51 1015 -11 b 704 118 786 -11 704 38 m 774 129 b 894 10 774 56 825 10 b 1007 104 960 10 1007 50 b 843 238 1007 185 921 206 b 774 129 788 207 774 164 m 796 415 b 938 294 796 340 867 319 b 1003 393 992 325 1003 363 b 894 501 1003 461 958 501 b 796 415 836 501 796 465 "},"⅞":{"ha":1015,"x_min":0,"x_max":0,"o":"m 388 857 b 217 401 281 729 217 586 b 218 357 217 388 217 372 l 128 357 b 126 389 128 368 126 379 b 319 792 126 567 214 686 l 175 792 b 35 697 94 792 53 774 l 24 697 l 44 876 b 172 867 85 869 132 867 l 388 867 l 388 857 m 696 928 l 735 928 l 201 0 l 164 0 m 599 118 b 715 247 599 172 638 222 b 613 386 658 274 613 308 b 790 522 613 468 686 522 b 963 400 892 522 963 469 b 856 283 963 349 926 308 b 978 132 921 258 978 222 b 788 -11 978 51 910 -11 b 599 118 681 -11 599 38 m 668 129 b 789 10 668 56 719 10 b 901 104 854 10 901 50 b 738 238 901 185 815 206 b 668 129 682 207 668 164 m 690 415 b 832 294 690 340 761 319 b 897 393 886 325 897 363 b 789 501 897 461 853 501 b 690 415 731 501 690 465 "}," ":{"ha":231,"x_min":0,"x_max":0,"o":""},".":{"ha":328,"x_min":0,"x_max":0,"o":"m 164 -21 b 92 50 122 -21 92 10 b 164 121 92 92 122 121 b 235 50 206 121 235 92 b 164 -21 235 10 206 -21 "},",":{"ha":331,"x_min":0,"x_max":0,"o":"m 94 -150 b 200 -11 138 -131 197 -82 b 163 -21 188 -18 175 -21 b 92 50 122 -21 92 10 b 164 122 92 92 122 122 b 244 26 215 122 244 83 b 100 -162 244 -72 189 -136 l 94 -150 "},":":{"ha":328,"x_min":0,"x_max":0,"o":"m 164 497 b 92 568 122 497 92 528 b 164 639 92 610 122 639 b 235 568 206 639 235 610 b 164 497 235 528 206 497 m 92 50 b 164 121 92 92 122 121 b 235 50 206 121 235 92 b 164 -21 235 10 206 -21 b 92 50 122 -21 92 10 "},";":{"ha":346,"x_min":0,"x_max":0,"o":"m 104 -150 b 210 -11 147 -131 207 -82 b 172 -21 197 -18 185 -21 b 101 50 132 -21 101 10 b 174 122 101 92 132 122 b 254 26 225 122 254 83 b 110 -162 254 -72 199 -136 l 104 -150 m 92 569 b 164 640 92 611 122 640 b 235 569 206 640 235 611 b 164 499 235 529 206 499 b 92 569 122 499 92 529 "},"…":{"ha":994,"x_min":0,"x_max":0,"o":"m 164 -21 b 92 50 122 -21 92 10 b 164 121 92 92 122 121 b 235 50 206 121 235 92 b 164 -21 235 10 206 -21 m 425 50 b 497 121 425 92 456 121 b 568 50 539 121 568 92 b 497 -21 568 10 539 -21 b 425 50 456 -21 425 10 m 760 50 b 832 121 760 92 790 121 b 903 50 874 121 903 92 b 832 -21 903 10 874 -21 b 760 50 790 -21 760 10 "},"!":{"ha":318,"x_min":0,"x_max":0,"o":"m 150 276 b 100 928 144 419 100 631 l 218 928 b 169 276 218 631 176 419 l 150 276 m 88 50 b 160 121 88 92 118 121 b 231 50 201 121 231 92 b 160 -21 231 10 201 -21 b 88 50 118 -21 88 10 "},"¡":{"ha":318,"x_min":0,"x_max":0,"o":"m 169 346 b 218 -306 176 203 218 -8 l 100 -306 b 150 346 100 -8 144 203 l 169 346 m 88 572 b 160 643 88 613 118 643 b 231 572 201 643 231 613 b 160 501 231 531 201 501 b 88 572 118 501 88 531 "},"?":{"ha":611,"x_min":0,"x_max":0,"o":"m 304 947 b 565 749 465 947 565 869 b 283 294 565 513 283 494 b 286 264 283 285 285 275 l 267 264 b 254 346 258 294 254 322 b 468 756 254 526 468 553 b 306 910 468 847 406 910 b 142 728 206 910 142 840 b 153 643 142 701 146 674 l 51 643 b 47 701 49 664 47 683 b 304 947 47 854 149 947 m 210 50 b 282 121 210 92 240 121 b 353 50 324 121 353 92 b 282 -21 353 10 324 -21 b 210 50 240 -21 210 10 "},"¿":{"ha":611,"x_min":0,"x_max":0,"o":"m 307 -325 b 46 -126 146 -325 46 -247 b 328 328 46 110 328 128 b 325 358 328 338 326 347 l 344 358 b 357 276 353 328 357 300 b 143 -133 357 96 143 69 b 306 -287 143 -225 206 -287 b 469 -106 406 -287 469 -218 b 458 -21 469 -79 465 -51 l 560 -21 b 564 -79 563 -42 564 -61 b 307 -325 564 -232 463 -325 m 258 572 b 329 643 258 613 288 643 b 401 572 371 643 401 613 b 329 501 401 531 371 501 b 258 572 288 501 258 531 "},"·":{"ha":328,"x_min":0,"x_max":0,"o":"m 164 389 b 92 460 122 389 92 419 b 164 531 92 501 122 531 b 235 460 206 531 235 501 b 164 389 235 419 206 389 "},"•":{"ha":661,"x_min":0,"x_max":0,"o":"m 333 100 b 53 378 176 100 53 224 b 333 656 53 531 176 656 b 608 378 485 656 608 531 b 333 100 608 224 485 100 "},"*":{"ha":539,"x_min":0,"x_max":0,"o":"m 63 864 b 263 761 149 831 210 783 b 232 985 258 818 235 893 l 307 985 b 274 761 304 893 278 818 b 474 864 326 783 388 831 l 500 793 b 281 750 413 767 335 765 b 439 594 317 707 381 665 l 379 549 b 268 744 326 624 301 697 b 158 549 236 699 211 624 l 99 594 b 257 750 157 665 221 707 b 38 793 203 765 124 767 l 63 864 "},"#":{"ha":1057,"x_min":0,"x_max":0,"o":"m 533 1011 l 435 663 l 725 663 l 824 1011 l 864 1011 l 765 663 l 997 663 l 997 624 l 756 624 l 674 336 l 900 336 l 900 297 l 664 297 l 565 -51 l 525 -51 l 624 297 l 333 297 l 235 -51 l 193 -51 l 292 297 l 60 297 l 60 336 l 301 336 l 383 624 l 157 624 l 157 663 l 393 663 l 492 1011 m 633 336 l 715 624 l 425 624 l 343 336 "},"/":{"ha":544,"x_min":0,"x_max":0,"o":"m 443 953 l 485 953 l 101 -62 l 60 -62 "},"\\":{"ha":544,"x_min":0,"x_max":0,"o":"m 443 -62 l 60 953 l 101 953 l 485 -62 "},"-":{"ha":479,"x_min":0,"x_max":0,"o":"m 415 358 l 64 358 l 64 400 l 415 400 "},"–":{"ha":586,"x_min":0,"x_max":0,"o":"m 521 342 l 64 342 l 64 382 l 521 382 "},"—":{"ha":1106,"x_min":0,"x_max":0,"o":"m 1040 342 l 64 342 l 64 382 l 1040 382 "},"_":{"ha":586,"x_min":0,"x_max":0,"o":"m 521 -65 l 64 -65 l 64 -21 l 521 -21 "},"(":{"ha":417,"x_min":0,"x_max":0,"o":"m 428 -219 b 101 375 235 -108 101 131 b 428 972 101 619 232 860 l 439 953 b 185 375 288 829 185 596 b 439 -200 185 156 288 -76 l 428 -219 "},")":{"ha":417,"x_min":0,"x_max":0,"o":"m -22 -200 b 232 375 129 -76 232 156 b -22 953 232 596 129 829 l -11 972 b 315 375 185 860 315 619 b -11 -219 315 131 182 -108 l -22 -200 "},"{":{"ha":404,"x_min":0,"x_max":0,"o":"m 36 422 b 175 531 147 422 175 467 b 171 576 175 544 174 560 l 132 860 b 129 901 131 874 129 888 b 344 1060 129 1001 189 1060 l 344 1036 b 207 918 235 1036 207 985 b 210 876 207 906 208 890 l 249 593 b 253 536 251 572 253 553 b 103 408 253 453 213 422 b 254 285 215 393 254 365 b 249 226 254 268 251 249 l 210 -62 b 207 -104 208 -76 207 -90 b 344 -219 207 -169 235 -218 l 344 -243 b 129 -82 189 -243 129 -185 b 132 -40 129 -69 131 -56 l 171 243 b 174 288 172 258 174 274 b 36 396 174 351 147 396 l 36 422 "},"}":{"ha":404,"x_min":0,"x_max":0,"o":"m 368 396 b 231 288 257 396 231 351 b 233 243 231 274 232 258 l 272 -40 b 275 -82 274 -56 275 -69 b 60 -243 275 -185 215 -243 l 60 -219 b 197 -104 169 -218 197 -169 b 194 -62 197 -90 196 -76 l 156 226 b 150 285 153 249 150 268 b 301 408 150 365 189 393 b 151 536 192 422 151 453 b 156 593 151 553 153 572 l 194 876 b 197 918 196 890 197 906 b 60 1036 197 985 169 1036 l 60 1060 b 275 901 215 1060 275 1001 b 272 860 275 888 274 874 l 233 576 b 229 531 231 560 229 544 b 368 422 229 467 257 422 l 368 396 "},"[":{"ha":388,"x_min":0,"x_max":0,"o":"m 135 1051 l 353 1051 l 353 1026 l 213 1026 l 213 -210 l 353 -210 l 353 -235 l 135 -235 "},"]":{"ha":388,"x_min":0,"x_max":0,"o":"m 35 -235 l 35 -210 l 175 -210 l 175 1026 l 35 1026 l 35 1051 l 253 1051 l 253 -235 "},"‚":{"ha":325,"x_min":0,"x_max":0,"o":"m 94 -146 b 196 -12 136 -126 193 -79 b 160 -21 185 -19 172 -21 b 92 47 121 -21 92 8 b 161 115 92 86 121 115 b 239 24 211 115 239 79 b 100 -157 239 -71 185 -132 l 94 -146 "},"„":{"ha":519,"x_min":0,"x_max":0,"o":"m 94 -146 b 196 -12 136 -126 193 -79 b 160 -21 185 -19 172 -21 b 92 47 121 -21 92 8 b 161 115 92 86 121 115 b 239 24 211 115 239 79 b 100 -157 239 -71 185 -132 l 94 -146 m 286 47 b 356 115 286 86 315 115 b 433 24 406 115 433 79 b 294 -157 433 -71 379 -132 l 289 -146 b 390 -12 331 -126 388 -79 b 354 -21 379 -19 367 -21 b 286 47 315 -21 286 8 "},"“":{"ha":519,"x_min":0,"x_max":0,"o":"m 425 1026 b 324 893 383 1008 326 961 b 360 903 335 900 347 903 b 428 835 399 903 428 874 b 358 765 428 794 399 765 b 281 858 308 765 281 803 b 419 1039 281 953 335 1014 l 425 1026 m 86 858 b 225 1039 86 953 140 1014 l 231 1026 b 129 893 189 1008 132 961 b 165 903 140 900 153 903 b 233 835 204 903 233 874 b 164 765 233 794 204 765 b 86 858 114 765 86 803 "},"”":{"ha":519,"x_min":0,"x_max":0,"o":"m 94 778 b 196 910 136 796 193 844 b 160 901 185 904 172 901 b 92 969 121 901 92 931 b 161 1039 92 1010 121 1039 b 239 947 211 1039 239 1001 b 100 765 239 853 185 792 l 94 778 m 286 969 b 356 1039 286 1010 315 1039 b 433 947 406 1039 433 1001 b 294 765 433 853 379 792 l 289 778 b 390 910 331 796 388 844 b 354 901 379 904 367 901 b 286 969 315 901 286 931 "},"‘":{"ha":325,"x_min":0,"x_max":0,"o":"m 231 1025 b 129 893 189 1007 132 960 b 165 901 140 899 153 901 b 233 833 204 901 233 872 b 164 764 233 793 204 764 b 86 856 114 764 86 801 b 225 1038 86 951 139 1013 l 231 1025 "},"’":{"ha":325,"x_min":0,"x_max":0,"o":"m 94 776 b 196 908 136 794 193 843 b 160 900 185 903 172 900 b 92 968 121 900 92 929 b 161 1038 92 1008 121 1038 b 239 946 211 1038 239 1000 b 100 764 239 851 185 790 l 94 776 "},"«":{"ha":697,"x_min":0,"x_max":0,"o":"m 333 371 l 614 628 l 625 617 l 426 363 l 625 108 l 614 97 l 333 354 m 71 371 l 351 628 l 363 617 l 164 363 l 363 108 l 351 97 l 71 354 "},"»":{"ha":697,"x_min":0,"x_max":0,"o":"m 83 97 l 72 108 l 271 363 l 72 617 l 83 628 l 364 371 l 364 354 m 533 363 l 335 617 l 346 628 l 626 371 l 626 354 l 346 97 l 335 108 "},"‹":{"ha":436,"x_min":0,"x_max":0,"o":"m 72 371 l 353 628 l 364 617 l 165 363 l 364 108 l 353 97 l 72 354 "},"›":{"ha":436,"x_min":0,"x_max":0,"o":"m 83 97 l 72 108 l 271 363 l 72 617 l 83 628 l 364 371 l 364 354 "},"\"":{"ha":397,"x_min":0,"x_max":0,"o":"m 104 682 b 71 1036 97 800 71 865 l 147 1036 b 114 682 147 865 121 800 l 104 682 m 325 1036 b 292 682 325 865 299 800 l 282 682 b 249 1036 275 800 249 865 "},"'":{"ha":219,"x_min":0,"x_max":0,"o":"m 104 682 b 71 1036 97 800 71 865 l 147 1036 b 114 682 147 865 121 800 l 104 682 "},"ƒ":{"ha":625,"x_min":0,"x_max":0,"o":"m 564 817 b 461 914 543 888 496 914 b 349 761 388 914 349 857 l 349 621 l 522 621 l 522 586 l 349 586 l 349 -76 b 150 -294 349 -222 267 -294 b 38 -279 113 -294 67 -289 l 44 -162 l 61 -162 b 163 -260 81 -233 129 -260 b 275 -107 238 -260 275 -203 l 275 586 l 101 586 l 101 621 l 275 621 l 275 731 b 475 949 275 876 357 949 b 588 933 513 949 558 943 l 579 817 l 564 817 "},"@":{"ha":1256,"x_min":0,"x_max":0,"o":"m 642 -218 b 74 313 304 -218 74 -7 b 685 907 74 644 347 907 b 1182 485 981 907 1182 731 b 876 86 1182 261 1054 86 b 742 222 785 86 738 144 b 550 86 700 142 628 86 b 376 293 443 86 376 172 b 383 363 376 315 379 339 b 665 642 415 538 550 642 b 807 590 722 642 774 628 l 894 642 l 817 274 b 808 207 811 249 808 226 b 889 117 808 151 831 117 b 1097 482 1010 117 1097 279 b 685 872 1097 708 933 872 b 160 313 393 872 160 618 b 663 -178 160 21 358 -178 b 1006 -74 775 -178 917 -135 l 1015 -86 b 642 -218 938 -160 786 -218 m 463 369 b 456 297 457 344 456 319 b 576 139 456 201 500 139 b 760 325 646 139 731 189 l 783 436 b 789 482 786 451 789 467 b 668 611 789 554 749 611 b 463 369 558 611 485 492 "},"&":{"ha":1008,"x_min":0,"x_max":0,"o":"m 304 488 b 164 254 208 432 164 340 b 401 24 164 133 247 24 b 636 132 485 24 574 63 l 354 435 m 74 243 b 283 510 74 381 154 463 b 158 744 203 597 158 658 b 382 949 158 867 247 949 b 610 750 519 949 610 869 b 390 518 610 650 535 565 l 428 476 l 689 199 b 746 418 728 264 746 339 b 739 506 746 447 743 476 l 849 506 b 725 161 842 368 796 249 l 779 103 b 949 19 819 60 863 22 l 949 0 l 760 0 l 669 97 b 367 -19 592 21 488 -19 b 74 243 175 -19 74 92 m 236 771 b 371 539 236 700 263 658 b 532 744 476 588 532 661 b 381 913 532 846 472 913 b 236 771 292 913 236 854 "},"¶":{"ha":844,"x_min":0,"x_max":0,"o":"m 371 347 b 60 639 185 347 60 463 b 371 928 60 813 185 928 l 785 928 l 785 908 b 657 797 701 906 657 889 l 657 -235 l 607 -235 l 607 889 l 478 889 l 478 -235 l 426 -235 l 426 347 l 371 347 "},"§":{"ha":957,"x_min":0,"x_max":0,"o":"m 508 949 b 790 854 622 949 704 925 l 781 647 l 758 647 b 535 910 735 814 657 910 b 357 753 450 910 357 863 b 515 535 357 656 435 597 l 678 410 b 856 99 749 356 856 275 b 444 -235 856 -101 719 -235 b 114 -131 296 -235 211 -199 l 124 82 l 144 82 b 419 -196 175 -94 263 -196 b 613 -44 528 -196 613 -150 b 449 179 613 64 522 126 l 306 283 b 117 618 238 333 117 421 b 508 949 117 828 254 949 m 192 640 b 374 346 192 472 290 407 l 508 249 b 688 -7 574 201 688 126 b 564 -194 688 -101 633 -162 b 781 75 704 -160 781 -57 b 615 350 781 231 683 300 l 458 464 b 285 719 376 524 285 592 b 403 906 285 815 338 875 b 192 640 261 872 192 785 "},"©":{"ha":1106,"x_min":0,"x_max":0,"o":"m 551 -19 b 69 464 286 -19 69 199 b 551 947 69 729 286 947 b 1036 464 818 947 1036 729 b 551 -19 1036 199 818 -19 m 101 463 b 550 13 101 214 303 13 b 1004 463 799 13 1004 214 b 550 915 1004 713 799 915 b 101 463 303 915 101 713 m 317 465 b 558 731 317 622 419 731 b 726 686 619 731 682 715 l 719 585 l 708 585 b 561 708 697 664 638 708 b 383 476 454 708 383 622 b 579 246 383 342 465 246 b 747 368 656 246 721 289 l 757 365 b 556 197 732 258 651 197 b 317 465 414 197 317 308 "},"®":{"ha":719,"x_min":0,"x_max":0,"o":"m 358 369 b 69 658 200 369 69 500 b 358 949 69 818 200 949 b 650 658 518 949 650 818 b 358 369 650 500 518 369 m 90 658 b 358 390 90 510 210 390 b 629 658 507 390 629 510 b 358 929 629 807 507 929 b 90 658 210 929 90 807 m 218 513 b 260 546 247 514 260 521 l 260 772 b 218 806 260 797 247 804 l 218 811 l 353 811 b 478 731 428 811 478 789 b 369 649 478 676 435 653 l 451 553 b 521 513 475 525 499 514 l 521 506 l 431 506 l 308 654 l 308 546 b 349 513 308 526 313 514 l 349 506 l 218 506 m 349 663 b 428 731 400 663 428 690 b 349 799 428 772 400 799 l 308 799 l 308 663 "},"℗":{"ha":719,"x_min":0,"x_max":0,"o":"m 358 369 b 69 658 200 369 69 500 b 358 949 69 818 200 949 b 650 658 518 949 650 818 b 358 369 650 500 518 369 m 90 658 b 358 390 90 510 210 390 b 629 658 507 390 629 510 b 358 929 629 807 507 929 b 90 658 210 929 90 807 m 233 513 b 274 550 268 515 274 529 l 274 769 b 233 807 274 790 267 804 l 233 813 l 369 813 b 490 728 443 813 490 785 b 369 640 490 668 442 640 l 321 640 l 321 550 b 371 513 321 528 325 515 l 371 507 l 233 507 m 360 653 b 440 728 413 653 440 683 b 360 800 440 769 413 800 l 321 800 l 321 653 "},"™":{"ha":1038,"x_min":0,"x_max":0,"o":"m 256 619 b 307 569 256 582 268 574 l 307 556 l 142 556 l 142 569 b 194 619 185 574 194 583 l 194 903 l 163 903 b 60 828 108 903 75 879 l 46 828 l 63 933 b 160 926 92 928 125 926 l 290 926 b 389 933 324 926 358 928 l 404 828 l 390 828 b 286 903 375 876 344 903 l 256 903 l 256 619 m 463 571 b 515 610 500 575 515 583 l 515 867 b 463 915 515 897 503 913 l 463 928 l 578 928 l 722 638 l 868 928 l 978 928 l 978 915 b 924 867 940 914 924 899 l 924 610 b 978 571 924 585 938 575 l 978 557 l 811 557 l 811 571 b 863 610 850 575 863 586 l 863 865 l 706 549 l 697 549 l 540 867 l 540 610 b 593 571 540 586 550 575 l 593 557 l 463 557 "},"°":{"ha":514,"x_min":0,"x_max":0,"o":"m 256 540 b 53 743 149 540 53 633 b 261 947 53 860 149 947 b 461 743 371 947 461 857 b 256 540 461 633 368 540 m 99 743 b 256 582 99 650 164 582 b 418 743 349 582 418 650 b 256 907 418 836 349 907 b 99 743 164 907 99 836 "},"|":{"ha":239,"x_min":0,"x_max":0,"o":"m 101 1067 l 138 1067 l 138 -267 l 101 -267 "},"¦":{"ha":239,"x_min":0,"x_max":0,"o":"m 138 510 l 101 510 l 101 1067 l 138 1067 m 101 290 l 138 290 l 138 -267 l 101 -267 "},"†":{"ha":714,"x_min":0,"x_max":0,"o":"m 214 19 b 326 132 282 22 326 38 l 326 626 l 219 626 b 93 500 110 626 94 572 l 74 500 l 74 789 l 93 789 b 219 663 94 717 110 663 l 326 663 l 326 799 b 214 908 326 889 282 906 l 214 928 l 501 928 l 501 908 b 389 799 432 906 389 889 l 389 663 l 494 663 b 621 789 604 663 619 717 l 640 789 l 640 500 l 621 500 b 494 626 619 572 604 626 l 389 626 l 389 132 b 501 19 389 38 432 22 l 501 0 l 214 0 l 214 19 "},"‡":{"ha":714,"x_min":0,"x_max":0,"o":"m 214 19 b 326 131 282 22 326 38 l 326 238 l 218 238 b 93 111 110 238 94 183 l 74 111 l 74 400 l 93 400 b 218 274 94 328 110 274 l 326 274 l 326 654 l 218 654 b 93 528 110 654 94 600 l 74 528 l 74 817 l 93 817 b 218 690 94 744 110 690 l 326 690 l 326 799 b 214 908 326 889 282 906 l 214 928 l 501 928 l 501 908 b 389 799 432 906 389 889 l 389 690 l 496 690 b 621 817 606 690 619 744 l 640 817 l 640 528 l 621 528 b 496 654 619 600 606 654 l 389 654 l 389 274 l 496 274 b 621 400 606 274 619 328 l 640 400 l 640 111 l 621 111 b 496 238 619 183 606 238 l 389 238 l 389 131 b 501 19 389 38 432 22 l 501 0 l 214 0 l 214 19 "},"℮":{"ha":1117,"x_min":0,"x_max":0,"o":"m 571 -19 b 74 464 293 -19 74 190 b 558 947 74 738 286 947 b 1043 460 835 947 1046 735 l 253 460 l 253 168 b 571 29 317 99 428 29 b 917 213 711 29 831 92 l 956 185 b 571 -19 872 56 732 -19 m 865 517 l 865 763 b 558 899 810 825 696 899 b 253 761 421 899 307 826 l 253 517 "},"№":{"ha":1451,"x_min":0,"x_max":0,"o":"m 1197 497 b 1003 722 1092 497 1003 576 b 1196 949 1003 869 1092 949 b 1392 722 1301 949 1392 869 b 1197 497 1392 576 1303 497 m 60 928 l 244 928 l 808 153 l 808 811 b 660 908 808 899 746 906 l 660 928 l 951 928 l 951 908 b 847 811 894 906 847 899 l 847 -21 l 828 -21 l 231 799 l 231 119 b 376 21 231 25 292 24 l 376 0 l 86 0 l 86 19 b 192 119 144 22 192 25 l 192 817 b 60 908 192 886 132 904 m 1014 386 l 1379 386 l 1379 344 l 1014 344 m 1083 722 b 1197 525 1083 579 1131 525 b 1311 722 1264 525 1311 579 b 1197 921 1311 867 1264 921 b 1083 722 1131 921 1083 867 "},"¢":{"ha":619,"x_min":0,"x_max":0,"o":"m 510 443 b 351 607 499 551 436 606 l 351 40 l 365 40 b 557 183 460 40 526 103 l 574 179 b 351 -18 547 63 468 -11 l 351 -207 l 314 -207 l 314 -17 b 53 314 164 -6 53 128 b 314 640 53 490 161 622 l 314 832 l 351 832 l 351 642 b 533 596 417 640 488 625 l 529 443 l 510 443 m 136 324 b 314 47 136 186 210 75 l 314 604 b 136 324 210 583 136 469 "},"¤":{"ha":900,"x_min":0,"x_max":0,"o":"m 451 32 b 235 124 368 32 290 67 l 100 -11 l 74 15 l 210 151 b 143 347 168 204 143 272 b 200 529 143 415 164 478 l 74 656 l 100 682 l 222 560 b 451 663 279 624 361 663 b 678 560 540 663 622 624 l 800 682 l 826 656 l 701 531 b 757 347 736 479 757 415 b 690 151 757 272 732 204 l 826 15 l 800 -11 l 667 122 b 451 32 610 67 533 32 m 179 347 b 451 69 179 192 303 69 b 721 347 596 69 721 190 b 451 625 721 503 599 625 b 179 347 303 625 179 503 "},"$":{"ha":838,"x_min":0,"x_max":0,"o":"m 432 1125 l 432 947 b 703 696 596 942 703 836 l 607 696 b 611 739 610 711 611 725 b 432 908 611 833 544 903 l 432 535 b 736 242 576 479 736 425 b 432 -19 736 85 614 -17 l 432 -207 l 394 -207 l 394 -18 b 115 257 226 -6 117 106 l 211 257 b 207 213 208 242 207 226 b 394 21 207 110 278 32 l 394 443 b 135 710 265 493 135 547 b 394 947 135 844 236 938 l 394 1125 m 208 740 b 394 550 208 638 293 590 l 394 908 b 208 740 282 900 208 835 m 432 19 b 653 207 565 22 653 97 b 432 429 653 335 547 385 l 432 19 "},"€":{"ha":1068,"x_min":0,"x_max":0,"o":"m 233 604 b 654 949 283 815 446 949 b 992 697 860 949 990 842 l 897 697 b 654 910 908 822 813 910 b 326 604 476 910 360 788 l 744 604 l 744 569 l 321 569 b 317 488 318 543 317 515 b 321 406 317 458 318 432 l 744 406 l 744 371 l 326 371 b 676 53 365 163 506 53 b 990 271 822 53 940 133 l 1008 267 b 639 -21 958 79 815 -21 b 224 371 419 -21 257 135 l 82 371 l 82 406 l 221 406 b 218 463 219 424 218 443 b 226 569 218 500 221 536 l 82 569 l 82 604 "},"₽":{"ha":842,"x_min":0,"x_max":0,"o":"m 532 214 l 274 214 l 274 132 b 428 19 274 38 317 22 l 428 0 l 60 0 l 60 19 b 186 132 143 22 186 38 l 186 214 l 32 214 l 32 249 l 186 249 l 186 413 l 32 413 l 32 447 l 186 447 l 186 797 b 60 908 186 889 143 906 l 60 928 l 431 928 b 782 671 638 928 782 851 b 431 410 782 490 638 410 l 274 410 l 274 249 l 532 249 m 422 449 b 685 671 596 449 685 540 b 422 889 685 799 594 889 l 274 889 l 274 449 "},"₹":{"ha":731,"x_min":0,"x_max":0,"o":"m 60 428 l 60 450 l 208 450 b 472 656 378 450 465 524 l 60 656 l 60 690 l 472 690 b 208 889 464 818 375 889 l 60 889 l 60 928 l 661 928 l 661 893 l 419 893 b 569 690 507 858 563 794 l 661 690 l 661 656 l 569 656 b 229 411 561 474 419 408 l 194 411 l 463 143 b 699 19 551 54 632 24 l 699 0 l 488 0 "},"£":{"ha":856,"x_min":0,"x_max":0,"o":"m 340 456 b 351 386 347 433 351 410 b 163 88 351 301 300 204 b 325 140 228 126 276 140 b 638 56 450 140 538 56 b 793 196 724 56 782 118 l 810 192 b 589 -19 785 32 692 -19 b 251 72 453 -19 364 72 b 79 0 197 72 143 50 l 64 19 b 267 340 208 163 267 258 b 236 456 267 383 253 421 l 74 456 l 74 492 l 217 492 b 149 682 185 549 149 606 b 443 947 149 838 274 947 b 728 708 607 947 728 843 b 722 653 728 690 725 674 l 624 653 b 639 740 633 686 639 714 b 443 908 639 833 553 908 b 233 726 325 908 233 831 b 326 492 233 640 292 569 l 663 492 l 663 456 "},"¥":{"ha":817,"x_min":0,"x_max":0,"o":"m 639 174 l 432 174 l 432 129 b 557 19 432 36 475 22 l 557 0 l 221 0 l 221 19 b 346 129 303 22 346 36 l 346 174 l 140 174 l 140 208 l 346 208 l 346 372 l 140 372 l 140 407 l 346 407 l 346 461 l 83 831 b -24 908 40 893 21 908 l -24 928 l 311 928 l 311 908 b 178 863 214 908 178 893 b 206 801 178 846 188 825 l 415 507 l 667 844 b 676 868 674 853 676 861 b 561 908 676 893 639 908 l 561 928 l 840 928 l 840 908 b 699 824 765 908 735 872 l 432 467 l 432 407 l 639 407 l 639 372 l 432 372 l 432 208 l 639 208 "},"+":{"ha":724,"x_min":0,"x_max":0,"o":"m 385 754 l 385 486 l 650 486 l 650 443 l 385 443 l 385 176 l 340 176 l 340 443 l 72 443 l 72 486 l 340 486 l 340 754 "},"−":{"ha":721,"x_min":0,"x_max":0,"o":"m 71 486 l 649 486 l 649 443 l 71 443 "},"×":{"ha":664,"x_min":0,"x_max":0,"o":"m 100 725 l 331 494 l 561 725 l 592 696 l 361 465 l 590 235 l 561 204 l 331 435 l 101 206 l 71 235 l 301 465 l 71 694 "},"÷":{"ha":721,"x_min":0,"x_max":0,"o":"m 365 208 b 299 271 328 208 299 236 b 365 335 299 307 328 335 b 428 271 400 335 428 307 b 365 208 428 236 400 208 m 71 486 l 649 486 l 649 443 l 71 443 m 299 661 b 365 725 299 697 328 725 b 428 661 400 725 428 697 b 365 599 428 626 400 599 b 299 661 328 599 299 626 "},"=":{"ha":721,"x_min":0,"x_max":0,"o":"m 71 626 l 649 626 l 649 583 l 71 583 m 71 347 l 649 347 l 649 304 l 71 304 "},"≠":{"ha":756,"x_min":0,"x_max":0,"o":"m 296 304 l 72 304 l 72 347 l 313 347 l 403 583 l 72 583 l 72 626 l 419 626 l 472 765 l 514 765 l 461 626 l 650 626 l 650 583 l 444 583 l 354 347 l 650 347 l 650 304 l 338 304 l 285 164 l 243 164 "},">":{"ha":721,"x_min":0,"x_max":0,"o":"m 593 465 l 72 713 l 90 753 l 649 486 l 649 444 l 90 178 l 72 217 "},"<":{"ha":721,"x_min":0,"x_max":0,"o":"m 72 486 l 631 753 l 649 713 l 128 465 l 649 217 l 631 178 l 72 444 "},"≥":{"ha":721,"x_min":0,"x_max":0,"o":"m 71 43 l 649 43 l 649 0 l 71 0 m 593 465 l 72 713 l 90 753 l 649 486 l 649 444 l 90 178 l 72 217 "},"≤":{"ha":721,"x_min":0,"x_max":0,"o":"m 72 0 l 72 43 l 650 43 l 650 0 m 72 486 l 631 753 l 649 713 l 128 465 l 649 217 l 631 178 l 72 444 "},"±":{"ha":724,"x_min":0,"x_max":0,"o":"m 385 754 l 385 486 l 650 486 l 650 443 l 385 443 l 385 176 l 340 176 l 340 443 l 72 443 l 72 486 l 340 486 l 340 754 m 57 43 l 635 43 l 635 0 l 57 0 "},"≈":{"ha":739,"x_min":0,"x_max":0,"o":"m 668 436 b 536 235 672 311 626 235 b 353 325 482 235 436 264 b 200 404 283 375 243 404 b 115 240 132 404 111 336 l 71 240 b 201 446 65 374 111 446 b 385 356 256 446 297 419 b 535 276 447 310 493 276 b 624 436 604 276 628 343 l 668 436 m 71 492 b 201 697 65 625 111 697 b 385 607 256 697 297 671 b 535 528 447 561 493 528 b 624 688 604 528 628 594 l 668 688 b 536 486 672 563 626 486 b 353 576 482 486 436 515 b 200 656 283 626 243 656 b 115 492 132 656 111 588 l 71 492 "},"~":{"ha":739,"x_min":0,"x_max":0,"o":"m 668 563 b 536 361 672 438 626 361 b 353 451 482 361 436 390 b 200 531 283 501 243 531 b 115 367 132 531 111 463 l 71 367 b 201 572 65 500 111 572 b 385 482 256 572 297 546 b 535 403 447 436 493 403 b 624 563 604 403 628 469 l 668 563 "},"¬":{"ha":814,"x_min":0,"x_max":0,"o":"m 633 174 l 589 174 l 589 438 l 56 438 l 56 481 l 633 481 "},"^":{"ha":639,"x_min":0,"x_max":0,"o":"m 515 615 l 319 913 l 124 615 l 71 615 l 308 968 l 333 968 l 567 615 "},"∞":{"ha":986,"x_min":0,"x_max":0,"o":"m 747 674 b 933 467 865 674 933 592 b 744 261 933 343 867 261 b 493 435 631 261 576 333 b 239 261 393 308 324 261 b 53 467 122 261 53 344 b 244 674 53 590 122 674 b 494 500 357 674 413 599 b 747 674 599 632 661 674 m 96 469 b 240 301 96 363 150 301 b 467 465 318 301 369 346 b 239 632 376 579 328 632 b 96 469 147 632 96 574 m 521 469 b 747 301 613 350 661 301 b 890 467 836 301 890 360 b 747 632 890 574 836 632 b 521 469 664 632 614 586 "},"Ω":{"ha":1046,"x_min":0,"x_max":0,"o":"m 336 0 b 131 -15 267 0 197 -1 l 93 221 l 111 221 b 329 63 144 106 203 63 l 422 63 l 422 147 b 75 560 233 167 75 336 b 524 949 75 800 256 949 b 971 560 790 949 971 800 b 625 147 971 340 818 167 l 625 61 l 717 61 b 936 219 843 61 903 104 l 953 219 l 917 -17 b 710 -1 850 -3 781 -1 l 589 -1 l 589 188 b 874 561 732 188 874 346 b 524 908 874 776 735 908 b 172 561 311 908 172 776 b 458 188 172 346 314 188 l 458 0 "},"∆":{"ha":879,"x_min":0,"x_max":0,"o":"m 60 22 l 429 949 l 449 949 l 819 22 l 819 0 l 60 0 m 718 39 l 413 808 l 108 39 "},"∏":{"ha":1040,"x_min":0,"x_max":0,"o":"m 653 19 b 781 132 736 22 781 38 l 781 889 l 274 889 l 274 132 b 400 19 274 38 317 22 l 400 0 l 60 0 l 60 19 b 188 132 143 22 188 38 l 188 797 b 60 908 188 889 143 906 l 60 928 l 993 928 l 993 908 b 867 797 910 906 867 889 l 867 132 b 993 19 867 38 910 22 l 993 0 l 653 0 l 653 19 "},"∑":{"ha":843,"x_min":0,"x_max":0,"o":"m 178 -236 l 538 -236 b 747 -40 667 -236 714 -171 l 767 -40 l 728 -285 b 601 -275 689 -279 650 -275 l 64 -275 l 64 -256 l 456 340 l 78 908 l 78 928 l 579 928 b 706 938 628 928 667 932 l 744 693 l 725 693 b 515 889 692 824 644 889 l 193 889 l 551 346 l 551 333 "},"√":{"ha":653,"x_min":0,"x_max":0,"o":"m 97 463 l -8 463 l -8 497 l 160 497 l 292 128 l 571 928 l 607 928 l 286 0 l 265 0 "},"µ":{"ha":707,"x_min":0,"x_max":0,"o":"m 671 36 l 671 17 l 514 -22 l 514 151 b 299 -21 476 36 396 -21 b 133 83 222 -21 163 13 b 210 -274 138 -83 165 -174 l 113 -274 b 115 172 113 -162 115 -26 l 115 189 l 115 517 b 51 582 115 560 97 579 l 29 583 l 29 603 l 189 642 l 189 194 b 324 35 189 81 249 35 b 513 264 413 35 513 99 l 513 517 b 449 582 513 560 494 579 l 426 583 l 426 603 l 586 642 l 586 104 b 650 38 586 61 604 42 "},"∂":{"ha":693,"x_min":0,"x_max":0,"o":"m 299 15 b 539 374 444 15 539 175 b 376 607 539 513 492 607 b 138 246 225 607 138 439 b 299 15 138 90 196 15 m 53 726 b 331 949 71 850 174 949 b 647 532 465 947 647 896 b 296 -21 647 214 517 -21 b 54 261 151 -21 54 78 b 375 642 54 472 183 642 b 560 526 475 642 532 593 b 561 585 561 544 561 564 b 331 914 561 815 472 914 b 146 749 214 914 146 838 b 147 726 146 742 146 733 l 53 726 "},"%":{"ha":1014,"x_min":0,"x_max":0,"o":"m 222 0 l 754 928 l 793 928 l 260 0 m 60 693 b 254 949 60 849 138 949 b 449 693 369 949 449 849 b 254 438 449 550 369 438 b 60 693 142 438 60 546 m 140 693 b 254 465 140 553 183 465 b 368 693 326 465 368 553 b 254 921 368 846 326 921 b 140 693 183 921 140 846 m 565 236 b 760 492 565 392 643 492 b 954 236 875 492 954 392 b 760 -19 954 93 875 -19 b 565 236 647 -19 565 89 m 646 236 b 760 8 646 96 689 8 b 874 236 832 8 874 96 b 760 464 874 389 832 464 b 646 236 689 464 646 389 "},"‰":{"ha":1488,"x_min":0,"x_max":0,"o":"m 222 0 l 754 928 l 793 928 l 260 0 m 60 693 b 254 949 60 849 138 949 b 449 693 369 949 449 849 b 254 438 449 550 369 438 b 60 693 142 438 60 546 m 140 693 b 254 465 140 553 183 465 b 368 693 326 465 368 553 b 254 921 368 846 326 921 b 140 693 183 921 140 846 m 565 236 b 760 492 565 392 643 492 b 954 236 875 492 954 392 b 760 -19 954 93 875 -19 b 565 236 647 -19 565 89 m 646 236 b 760 8 646 96 689 8 b 874 236 832 8 874 96 b 760 464 874 389 832 464 b 646 236 689 464 646 389 m 1038 236 b 1232 492 1038 392 1115 492 b 1426 236 1347 492 1426 392 b 1232 -19 1426 93 1347 -19 b 1038 236 1119 -19 1038 89 m 1118 236 b 1232 8 1118 96 1161 8 b 1346 236 1304 8 1346 96 b 1232 464 1346 389 1304 464 b 1118 236 1161 464 1118 389 "},"↑":{"ha":713,"x_min":0,"x_max":0,"o":"m 347 781 l 367 781 l 653 490 l 625 464 l 376 717 l 376 -17 l 338 -17 l 338 717 l 88 464 l 60 490 "},"↗":{"ha":746,"x_min":0,"x_max":0,"o":"m 631 906 l 644 892 l 642 485 l 603 486 l 606 840 l 88 322 l 60 349 l 578 868 l 222 865 l 222 904 "},"→":{"ha":917,"x_min":0,"x_max":0,"o":"m 857 389 l 857 369 l 567 83 l 540 111 l 793 360 l 60 360 l 60 399 l 793 399 l 540 649 l 567 676 "},"↘":{"ha":746,"x_min":0,"x_max":0,"o":"m 644 14 l 631 1 l 222 4 l 224 42 l 578 39 l 60 557 l 88 585 l 606 67 l 604 422 l 642 424 "},"↓":{"ha":713,"x_min":0,"x_max":0,"o":"m 365 -21 l 346 -21 l 60 269 l 88 296 l 336 43 l 336 776 l 375 776 l 375 43 l 625 296 l 653 269 "},"↙":{"ha":746,"x_min":0,"x_max":0,"o":"m 142 418 l 140 63 l 658 581 l 686 553 l 168 35 l 522 38 l 524 0 l 115 -3 l 101 10 l 104 419 "},"←":{"ha":917,"x_min":0,"x_max":0,"o":"m 376 649 l 124 399 l 857 399 l 857 360 l 124 360 l 376 111 l 350 83 l 60 369 l 60 389 l 350 676 "},"↖":{"ha":746,"x_min":0,"x_max":0,"o":"m 524 890 l 168 892 l 686 374 l 658 346 l 140 864 l 143 510 l 106 508 l 103 917 l 115 931 l 525 928 "},"●":{"ha":1106,"x_min":0,"x_max":0,"o":"m 551 -19 b 1036 464 818 -19 1036 199 b 551 947 1036 729 818 947 b 69 464 286 947 69 729 b 551 -19 69 199 286 -19 "},"○":{"ha":1106,"x_min":0,"x_max":0,"o":"m 551 -19 b 69 464 286 -19 69 199 b 551 947 69 729 286 947 b 1036 464 818 947 1036 729 b 551 -19 1036 199 818 -19 m 101 463 b 550 13 101 214 303 13 b 1004 463 799 13 1004 214 b 550 915 1004 713 799 915 b 101 463 303 915 101 713 "},"◊":{"ha":647,"x_min":0,"x_max":0,"o":"m 32 464 l 308 949 l 339 949 l 615 464 l 339 -21 l 308 -21 m 324 24 l 575 464 l 324 904 l 72 464 "},"¨":{"ha":628,"x_min":0,"x_max":0,"o":"m 210 778 b 139 843 169 778 139 807 b 210 911 139 882 169 911 b 275 843 246 911 275 882 b 210 778 275 807 246 778 m 357 843 b 426 911 357 882 388 911 b 493 843 463 911 493 882 b 426 778 493 807 463 778 b 357 843 388 778 357 807 "},"˙":{"ha":413,"x_min":0,"x_max":0,"o":"m 208 819 b 139 885 169 819 139 849 b 208 951 139 922 169 951 b 274 885 244 951 274 922 b 208 819 274 849 244 819 "},"`":{"ha":488,"x_min":0,"x_max":0,"o":"m 138 963 l 254 963 l 349 751 l 329 751 "},"´":{"ha":488,"x_min":0,"x_max":0,"o":"m 139 751 l 233 963 l 350 963 l 158 751 "},"˝":{"ha":608,"x_min":0,"x_max":0,"o":"m 139 751 l 224 963 l 313 963 l 157 751 m 382 963 l 472 963 l 315 751 l 296 751 "},"ˆ":{"ha":653,"x_min":0,"x_max":0,"o":"m 375 935 l 514 751 l 496 751 l 328 875 l 157 751 l 139 751 l 281 935 "},"ˇ":{"ha":653,"x_min":0,"x_max":0,"o":"m 139 949 l 157 949 l 328 825 l 496 949 l 514 949 l 375 765 l 281 765 "},"˘":{"ha":586,"x_min":0,"x_max":0,"o":"m 293 757 b 140 950 194 757 139 821 l 157 950 b 293 819 161 853 217 819 b 431 950 369 819 426 853 l 446 950 b 293 757 447 821 392 757 "},"˚":{"ha":528,"x_min":0,"x_max":0,"o":"m 264 753 b 139 871 192 753 139 803 b 264 988 139 938 192 988 b 389 871 336 988 389 938 b 264 753 389 803 336 753 m 172 871 b 264 781 172 818 213 781 b 356 871 317 781 356 818 b 264 961 356 924 317 961 b 172 871 213 961 172 924 "},"˜":{"ha":629,"x_min":0,"x_max":0,"o":"m 139 824 b 221 926 139 890 164 926 b 421 850 288 926 361 850 b 476 922 451 850 471 863 l 490 922 l 490 894 b 410 792 490 828 467 792 b 208 868 343 792 268 868 b 153 796 178 868 158 856 l 139 796 l 139 824 "},"¯":{"ha":628,"x_min":0,"x_max":0,"o":"m 139 839 l 489 839 l 489 806 l 139 806 "},"¸":{"ha":506,"x_min":0,"x_max":0,"o":"m 147 -240 b 222 -262 174 -256 199 -262 b 294 -203 263 -262 294 -242 b 201 -132 294 -168 269 -146 l 250 1 l 274 1 l 244 -83 b 367 -193 319 -99 367 -133 b 250 -294 367 -254 319 -294 b 139 -251 210 -294 174 -282 l 147 -240 "},"˛":{"ha":531,"x_min":0,"x_max":0,"o":"m 263 -294 b 139 -189 186 -294 139 -251 b 308 0 139 -108 208 -33 l 324 0 b 203 -174 256 -39 203 -108 b 279 -251 203 -221 236 -251 b 381 -189 311 -251 351 -228 l 392 -194 b 263 -294 367 -254 314 -294 "}}}
